<svg width="128" height="128" xmlns="http://www.w3.org/2000/svg">

 <g>
  <title>background</title>
  <rect fill="none" id="canvas_background" height="402" width="582" y="-1" x="-1"/>
 </g>
 <g>
  <title>Layer 1</title>
  <path id="svg_5" fill="#515151" d="m105.452894,125.818388l-80,0c-5.514,0 -10,-4.486 -10,-10l0,-104c0,-5.514 4.486,-10 10,-10l40.687,0c2.671,0 5.183,1.041 7.07,2.929l39.314,39.314c1.889,1.889 2.929,4.399 2.929,7.07l0,64.687c0,5.514 -4.486,10 -10,10zm-80,-120c-3.309,0 -6,2.691 -6,6l0,104c0,3.309 2.691,6 6,6l80,0c3.309,0 6,-2.691 6,-6l0,-64.687c0,-1.579 -0.641,-3.125 -1.757,-4.242l-39.314,-39.314c-1.133,-1.133 -2.64,-1.757 -4.242,-1.757l-40.687,0z"/>
  <path stroke="null" id="svg_8" fill="#515151" d="m108.979734,80.299606c-0.095587,-0.679338 -0.655454,-1.531841 -1.256287,-2.104617c-1.720568,-1.651724 -5.503085,-2.517548 -11.265621,-2.59747c-3.905415,-0.039961 -8.602838,0.293048 -13.546056,0.972386c-2.212158,-1.238793 -4.492593,-2.59747 -6.281437,-4.235874c-4.82032,-4.382398 -8.834978,-10.469801 -11.347553,-17.169941c0.163864,-0.626057 0.300417,-1.172191 0.43697,-1.731647c0,0 2.703749,-15.025364 1.993674,-20.11374c-0.095587,-0.692659 -0.163864,-0.892464 -0.355038,-1.438599l-0.23214,-0.586096c-0.737386,-1.665045 -2.184848,-3.423332 -4.451627,-3.330089l-1.338219,-0.039961l-0.027311,0c-2.539886,0 -4.58818,1.265434 -5.134392,3.143604c-1.638636,5.914239 0.054621,14.772277 3.127063,26.227784l-0.792007,1.86485c-2.198503,5.248221 -4.956873,10.523083 -7.387517,15.171888l-0.314072,0.599416c-2.567196,4.888571 -4.888597,9.044523 -7.005168,12.561097l-2.171192,1.11891c-0.163864,0.079922 -3.89176,2.011374 -4.765699,2.517548c-7.414827,4.329116 -12.330735,9.231008 -13.150053,13.120552c-0.259451,1.252114 -0.068276,2.837236 1.256287,3.569856l2.102916,1.038988c0.914905,0.439572 1.884431,0.666018 2.867613,0.666018c5.284601,0 11.41583,-6.420412 19.86846,-20.806399c9.749883,-3.090323 20.865296,-5.674472 30.601524,-7.08643c7.414827,4.062709 16.536567,6.899945 22.299103,6.899945c1.024147,0 1.911742,-0.093243 2.621817,-0.279728c1.106079,-0.293048 2.03464,-0.905784 2.608162,-1.731647c1.119734,-1.638404 1.338219,-3.902865 1.037803,-6.220607zm-80.183914,25.322c0.955871,-2.570829 4.779355,-7.659206 10.418993,-12.161487c0.355038,-0.279728 1.228977,-1.078949 2.020984,-1.824889c-5.899089,9.177727 -9.84547,12.827505 -12.439977,13.986376zm33.400861,-75.033575c1.693257,0 2.662783,4.169272 2.744715,8.085457c0.081932,3.916185 -0.860284,6.660179 -2.020984,8.698194c-0.969526,-3.010401 -1.433806,-7.752448 -1.433806,-10.856092c0,0 -0.068276,-5.927559 0.710076,-5.927559zm-9.968368,53.467916c1.188011,-2.064655 2.416988,-4.249194 3.673275,-6.553616c3.072442,-5.661152 5.011495,-10.083511 6.445301,-13.719969c2.867613,5.088377 6.445301,9.417493 10.637478,12.880786c0.532557,0.426251 1.092424,0.865823 1.665946,1.305395c-8.534562,1.638404 -15.922078,3.649778 -22.422,6.087404zm53.842843,-0.466213c-0.518901,0.306368 -2.007329,0.492853 -2.9632,0.492853c-3.086098,0 -6.923236,-1.371997 -12.289769,-3.623137c2.06195,-0.146524 3.960037,-0.226446 5.653294,-0.226446c3.099753,0 4.014658,-0.01332 7.059789,0.74594c3.031476,0.75926 3.072442,2.291102 2.539886,2.61079z"/>
 </g>
</svg>