<?xml version="1.0" encoding="utf-8"?>
<!-- Generator: Adobe Illustrator 26.0.1, SVG Export Plug-In . SVG Version: 6.00 Build 0)  -->
<svg version="1.1" id="Capa_1" focusable="false" xmlns="http://www.w3.org/2000/svg" xmlns:xlink="http://www.w3.org/1999/xlink"
	 x="0px" y="0px" width="22px" height="24.5px" viewBox="0 0 22 24.5" style="enable-background:new 0 0 22 24.5;"
	 xml:space="preserve">
<path d="M16.7,11.3c0.8-1.2,1.3-2.6,1.3-4.1C18.1,3.2,14.9,0,11,0S3.9,3.2,3.9,7.1c0,1.6,0.5,3,1.4,4.2c-3,1.3-5.3,6.3-5.3,9.5v1.3
	c0,1.3,1.1,2.4,2.4,2.4h17.3c1.3,0,2.4-1.1,2.4-2.4v-1.3C22,17.6,19.7,12.6,16.7,11.3z M11,2.4c2.6,0,4.7,2.1,4.7,4.7
	c0,2.6-2,4.6-4.6,4.7c0,0-0.1,0-0.1,0c0,0-0.1,0-0.1,0c-2.5-0.1-4.6-2.2-4.6-4.7C6.3,4.5,8.4,2.4,11,2.4z M19.6,22.1H2.4v-1.3
	c0-2.3,1.9-7.5,4.2-7.5c0.7,0,1.8,0.8,4.3,0.9c0,0,0.1,0,0.1,0c0,0,0.1,0,0.1,0c2.5,0,3.6-0.8,4.3-0.8c2.3,0,4.2,5.1,4.2,7.4V22.1
	L19.6,22.1z"/>
</svg>
