<?xml version="1.0" standalone="no"?>
<!DOCTYPE svg PUBLIC "-//W3C//DTD SVG 1.1//EN" "http://www.w3.org/Graphics/SVG/1.1/DTD/svg11.dtd" >
<svg xmlns="http://www.w3.org/2000/svg">
<metadata></metadata>
<defs>
<font id="ehusansregular" horiz-adv-x="1159" >
<font-face units-per-em="2048" ascent="1577" descent="-471" />
<missing-glyph horiz-adv-x="430" />
<glyph unicode="&#xfb01;" horiz-adv-x="1277" d="M45 954l10 109q21 5 63.5 16t82.5 19v76q0 94 16.5 159t58.5 115.5t119 75t193 24.5q193 0 454 -73l-16 -185q-254 101 -412 101q-32 0 -52.5 -1.5t-46 -8t-41 -20t-29.5 -35t-20.5 -56.5t-6.5 -82v-90q68 -3 356 -7.5t342 -7.5v-548q0 -382 37 -535h-217 q-35 133 -35 526v420q-87 -2 -265.5 -5.5t-217.5 -4.5v-936h-217v942q-146 11 -156 12z" />
<glyph unicode="&#xfb02;" horiz-adv-x="1292" d="M45 954l10 109q21 5 63.5 16t82.5 19v76q0 94 16.5 159t58.5 115.5t119 75t193 24.5q201 0 530 -92v-921q0 -382 37 -535h-219q-35 133 -35 526v811q-171 54 -287 54q-32 0 -52.5 -1.5t-46 -8t-41 -20t-29.5 -35t-20.5 -56.5t-6.5 -82v-90q179 -8 307 -15l4 -131 q-128 -9 -311 -16v-936h-217v942q-146 11 -156 12z" />
<glyph horiz-adv-x="0" />
<glyph horiz-adv-x="0" />
<glyph horiz-adv-x="682" />
<glyph unicode="&#xd;" horiz-adv-x="430" />
<glyph unicode=" "  horiz-adv-x="430" />
<glyph unicode="&#x09;" horiz-adv-x="430" />
<glyph unicode="&#xa0;" horiz-adv-x="430" />
<glyph unicode="!" horiz-adv-x="737" d="M240 143q0 55 36 89t95 34t95 -34t36 -89q0 -59 -36 -93t-95 -34t-95 34t-36 93zM276 1489h209l-36 -1100l-166 -10z" />
<glyph unicode="&#x22;" horiz-adv-x="741" d="M92 1548h203l-27 -448h-155zM446 1548h203l-26 -448h-156z" />
<glyph unicode="#" horiz-adv-x="1437" d="M51 389l4 148h326l41 368h-313l4 148h327l47 411l154 4l-45 -415h309l47 411l154 4l-45 -415h313l4 -148h-334l-40 -368h313l4 -148h-334l-41 -387h-162l43 387h-305l-41 -387h-162l43 387h-311zM539 537h307l41 368h-307z" />
<glyph unicode="$" d="M78 109l61 217q182 -152 396 -154v473q-56 20 -91 33.5t-86 37t-83.5 45.5t-69.5 55.5t-58 70t-35 85.5t-14 105q0 189 116 293t321 119v135l131 4v-139q151 -9 319 -70l-53 -192q-15 5 -55.5 21t-65.5 25t-65.5 19.5t-79.5 14.5v-453q57 -20 91.5 -33t87 -37t84.5 -45.5 t69.5 -55t58 -70t35 -85.5t14.5 -106q0 -169 -123 -287t-317 -151v-207l-131 -4v198h-11q-247 0 -446 138zM322 1120q0 -79 55 -129t158 -90v406q-213 -22 -213 -187zM666 184q95 22 148.5 78t53.5 139q0 68 -52 113.5t-150 83.5v-414z" />
<glyph unicode="%" horiz-adv-x="1605" d="M94 1081q3 158 84.5 246t235.5 88q155 0 237 -88.5t82 -245.5q0 -162 -82 -256t-237 -94t-237.5 94t-82.5 256zM256 47l952 1358l109 -86l-940 -1362zM268 1081q0 -48 11 -89t45 -74t88 -33q42 0 72.5 18t46 49t22 62.5t6.5 66.5q0 80 -35.5 131.5t-109.5 51.5 t-110 -51.5t-36 -131.5zM872 322q3 158 84.5 245.5t235.5 87.5q155 0 237 -88t82 -245q0 -162 -82 -256.5t-237 -94.5t-237.5 94.5t-82.5 256.5zM1047 322q0 -35 6.5 -67t21.5 -62.5t44.5 -49t70.5 -18.5q42 0 72.5 18.5t46 49t22 62.5t6.5 67q0 80 -35.5 131t-109.5 51 t-109.5 -51t-35.5 -131z" />
<glyph unicode="&#x26;" horiz-adv-x="1605" d="M98 444q0 133 65.5 221.5t188.5 153.5v10q-85 40 -149 127t-64 220q0 107 63 188.5t163.5 122.5t220.5 41q136 0 270 -41l-35 -162q-112 47 -235 47q-100 0 -165 -51t-65 -145q0 -54 19 -93.5t53 -64.5t88.5 -40t116.5 -20.5t147 -5.5q211 0 324 2l-2 326l201 10v-332 l256 9l-9 -181l-247 -4v-63q0 -339 -173 -539t-481 -200q-274 0 -412.5 119.5t-138.5 344.5zM319 459q0 -125 96 -200t244 -75q74 0 138 17t121.5 56.5t98 99.5t64 151.5t23.5 206.5v65q-166 -2 -430 -2q-150 0 -252.5 -97t-102.5 -222z" />
<glyph unicode="'" horiz-adv-x="387" d="M92 1548h203l-27 -448h-155z" />
<glyph unicode="(" horiz-adv-x="651" d="M143 594q0 131 29.5 272t72 254t96 221t95 174.5t76.5 112.5l139 -92q-47 -69 -96.5 -170t-96.5 -226.5t-77.5 -271.5t-30.5 -276t30.5 -275.5t77.5 -270.5t96.5 -225t96.5 -169l-139 -92q-35 46 -76.5 112.5t-95 174.5t-96 221t-72 254t-29.5 272z" />
<glyph unicode=")" horiz-adv-x="651" d="M0 -348q47 69 96.5 169t96.5 225t77.5 270.5t30.5 275.5t-30.5 276t-77.5 271.5t-96.5 226.5t-96.5 170l139 92q35 -46 76.5 -112.5t95 -174.5t96 -221t72 -254t29.5 -272t-29.5 -272t-72 -254t-96 -221t-95 -174.5t-76.5 -112.5z" />
<glyph unicode="*" horiz-adv-x="778" d="M47 1249l49 123q172 -63 248 -102l2 2q-20 195 -20 254l129 4q0 -33 -2.5 -71.5t-5.5 -64.5t-8 -66l-7 -56l2 -2q76 39 248 102l49 -123q-144 -44 -274 -61v-2q18 -14 38.5 -32t34 -30t38.5 -36.5t32.5 -32.5t37 -38.5t32.5 -33.5l-103 -82q-101 113 -176 225h-4 q-75 -112 -176 -225l-102 82q3 3 32.5 33.5t37 38.5t32.5 32.5t38.5 36.5t34 30t38.5 32v2q-131 17 -275 61z" />
<glyph unicode="+" horiz-adv-x="1290" d="M92 473l4 156h467v479l164 4v-483h467l4 -156h-471v-471l-164 -2v473h-471z" />
<glyph unicode="," horiz-adv-x="475" d="M76 -186q63 211 102 405h201q-33 -145 -69 -244t-93 -204z" />
<glyph unicode="-" horiz-adv-x="788" d="M94 571l4 154h592l4 -154h-600z" />
<glyph unicode="." horiz-adv-x="487" d="M106 106q0 62 38 98t100 36t99.5 -36t37.5 -98q0 -58 -37.5 -93.5t-99.5 -35.5t-100 35.5t-38 93.5z" />
<glyph unicode="/" horiz-adv-x="829" d="M45 23l565 1484l154 -69l-555 -1483z" />
<glyph unicode="0" d="M76 711q0 336 131.5 525t372.5 189t372 -189t131 -525q0 -339 -132 -539.5t-371 -200.5t-371.5 200.5t-132.5 539.5zM291 711q0 -564 289 -564q288 0 288 564q0 542 -288 542q-289 0 -289 -542z" />
<glyph unicode="1" horiz-adv-x="1163" d="M244 1153l10 160q269 39 500 92v-1405h-217v1174q-204 -19 -293 -21z" />
<glyph unicode="2" d="M117 127q271 172 454 403q79 100 129 221.5t50 231.5q0 125 -67 198.5t-202 73.5q-127 0 -284 -98l-68 158q193 110 391 110q147 0 251.5 -60.5t154 -160t49.5 -227.5q0 -243 -187 -488q-114 -153 -296 -303l4 -12l546 19l-8 -193h-887z" />
<glyph unicode="3" d="M113 109l47 165q77 -52 177 -91.5t181 -39.5q134 0 203.5 79t69.5 198q0 67 -35.5 115.5t-97 74t-130 36.5t-149.5 11q-34 0 -100 -4l-17 138q159 21 234 43q262 75 262 256q0 77 -53 124.5t-150 47.5q-68 0 -151.5 -31.5t-133.5 -67.5l-67 152q55 37 159 73.5t203 36.5 q186 0 291 -92.5t105 -228.5q0 -55 -19 -105t-45.5 -84.5t-62.5 -64.5t-62.5 -46t-52.5 -28v-6q54 -14 101.5 -38t94 -64t74 -104t27.5 -144q0 -84 -31.5 -162.5t-91 -143t-158 -104t-221.5 -39.5q-115 0 -229 44t-172 94z" />
<glyph unicode="4" d="M59 537q146 319 445 860l184 24q-16 -32 -95 -187t-116 -229.5t-97.5 -202t-105.5 -229.5l5 -6l407 4l6 516l201 11v-520l215 2l8 -174l-225 -3v-403h-205v401h-580z" />
<glyph unicode="5" d="M109 94l47 166q78 -53 167 -85t164 -32q130 0 221 96.5t91 229.5q0 121 -95 192.5t-233 71.5q-33 0 -63.5 -2t-46 -4t-50 -7t-47.5 -7l-51 51l45 633h719l-8 -185l-523 17l-18 -346q57 8 125 8q101 -2 185 -28t149 -76.5t101 -133t36 -190.5q0 -224 -150.5 -358 t-390.5 -134q-101 0 -211 38.5t-163 84.5z" />
<glyph unicode="6" d="M94 653q0 111 21.5 217.5t70.5 208t121 177.5t181.5 122.5t242.5 46.5q71 0 137 -16t97 -37l-17 -160q-98 48 -203 48q-91 -1 -164.5 -37t-120 -92t-79 -130.5t-47 -146t-17.5 -143.5l2 -2q29 41 73 80t120.5 72.5t157.5 33.5q193 0 295 -117.5t102 -306.5 q0 -107 -29.5 -196.5t-87 -158t-151.5 -107t-215 -38.5q-113 0 -199.5 36t-140.5 96.5t-88.5 149.5t-48 186t-13.5 214zM315 477q1 -86 29 -160.5t90.5 -126t149.5 -51.5q111 0 184.5 84t73.5 248q0 116 -49.5 191t-155.5 75q-211 0 -322 -260z" />
<glyph unicode="7" d="M188 1397h836l-8 -168q-89 -85 -148 -188.5t-125 -292.5q-98 -285 -98 -748h-217q0 392 90 694q13 43 27 84.5t30.5 80.5t29.5 69t32.5 66.5t29.5 56t31 54t27.5 45t28 44t22.5 35.5l-579 -8z" />
<glyph unicode="8" d="M104 403q0 127 75 230.5t183 148.5v4q-98 66 -150 139.5t-52 174.5q0 136 114 230.5t322 94.5q212 0 324 -90t112 -233q0 -102 -52.5 -175.5t-154.5 -140.5v-4q113 -56 172.5 -152t59.5 -224q-1 -141 -64.5 -241t-169 -147t-243.5 -47q-220 0 -348 110t-128 322zM322 403 q0 -114 74.5 -189t183.5 -75q62 0 112 25.5t79 65t44.5 84t15.5 87.5q0 61 -22.5 113t-57.5 85.5t-77.5 57t-81.5 33.5t-72 10q-20 -10 -43.5 -26t-51.5 -43.5t-50.5 -59.5t-37.5 -76.5t-15 -91.5zM385 1102q0 -38 21 -75t51.5 -64.5t67 -51.5t66 -37.5t50.5 -19.5 q52 24 113 96t61 152q0 87 -65 135.5t-154 48.5q-91 0 -151 -52.5t-60 -131.5z" />
<glyph unicode="9" d="M92 924q0 107 29.5 196.5t87 158.5t151.5 107.5t215 38.5q113 0 199.5 -36t140.5 -97t88.5 -150.5t48 -186.5t13.5 -214q0 -108 -23 -215.5t-72.5 -208t-120 -177t-173 -123t-223.5 -46.5q-141 0 -224 47l17 172q96 -47 196 -47q80 0 146.5 33.5t110 87t75 126t47 145 t21.5 149.5l-2 2q-6 -10 -20.5 -27.5t-47.5 -46.5t-71.5 -53t-95.5 -41.5t-116 -17.5q-193 0 -295 117.5t-102 306.5zM317 920q0 -111 53.5 -184.5t151.5 -73.5q64 0 119.5 25.5t94.5 66.5t64 80t42 79q-1 64 -17.5 124t-48 110.5t-84 81.5t-117.5 31q-110 0 -184 -87.5 t-74 -252.5z" />
<glyph unicode=":" horiz-adv-x="552" d="M139 106q0 62 37.5 98t99.5 36t100 -36t38 -98q0 -58 -38 -93.5t-100 -35.5t-99.5 35.5t-37.5 93.5zM139 745q0 62 37.5 98t99.5 36t100 -36t38 -98q0 -58 -38 -93.5t-100 -35.5t-99.5 35.5t-37.5 93.5z" />
<glyph unicode=";" horiz-adv-x="552" d="M66 -186q63 211 102 405h201q-33 -145 -69 -244t-93 -204zM139 745q0 62 37.5 98t99.5 36t100 -36t38 -98q0 -58 -38 -93.5t-100 -35.5t-99.5 35.5t-37.5 93.5z" />
<glyph unicode="&#x3c;" horiz-adv-x="829" d="M117 547l463 633l112 -99l-356 -526l356 -539l-112 -98z" />
<glyph unicode="=" horiz-adv-x="1372" d="M145 297l5 172h1073l4 -172h-1082zM145 641l5 172h1073l4 -172h-1082z" />
<glyph unicode="&#x3e;" horiz-adv-x="829" d="M141 16l357 539l-357 526l113 99l463 -633l-463 -629z" />
<glyph unicode="?" horiz-adv-x="1071" d="M152 1409q191 78 350 78q55 0 110 -9.5t116.5 -36.5t108 -68.5t77 -111.5t30.5 -159q0 -138 -121 -279q-65 -75 -151.5 -141.5t-175.5 -112.5q-4 -131 0 -202l-136 6q-24 141 -26 297q7 5 66 36t122 74t109 92q102 105 102 230q0 113 -65 164t-166 51q-109 0 -277 -72z M317 92q0 56 34.5 88.5t90.5 32.5t90.5 -32.5t34.5 -88.5q0 -52 -34.5 -84.5t-90.5 -32.5t-90.5 32.5t-34.5 84.5z" />
<glyph unicode="@" horiz-adv-x="1703" d="M117 662q-1 173 57 322.5t164.5 257.5t263.5 169.5t346 61.5q84 0 169 -18t170 -59t150.5 -101.5t107 -153t42.5 -205.5q1 -111 -35 -202t-97.5 -151.5t-145.5 -102t-176 -60t-193 -19.5q12 78 33 140h-12q-82 -150 -213 -150q-112 0 -165 75.5t-55 195.5 q-1 119 30.5 206.5t89.5 138.5t131 75t163 24q58 0 132.5 -16.5t115.5 -32.5l-68 -490h4q41 0 91 25t97 69.5t77.5 117.5t29.5 157q-1 110 -64 196.5t-169 133.5t-236 47q-314 0 -484.5 -173t-170.5 -466q0 -244 140.5 -390.5t381.5 -146.5q76 0 190 16.5t183 41.5l-10 -150 q-40 -23 -155 -45.5t-204 -22.5q-323 0 -513 187t-193 498zM692 659q0 -153 86 -153q48 0 97.5 65t85.5 160t53 195l6 37q-44 22 -113 22q-113 0 -165 -87.5t-50 -238.5z" />
<glyph unicode="A" horiz-adv-x="1458" d="M53 0q122 474 252 819q151 403 318 654l251 8l553 -1481h-237l-184 489h-592q-47 -135 -121 -489h-240zM461 655h483l-221 600l-14 -2q-53 -91 -132.5 -282t-115.5 -316z" />
<glyph unicode="B" horiz-adv-x="1351" d="M180 -4v1474q268 19 389 19q102 0 185 -10.5t161.5 -38.5t131 -72.5t84.5 -117.5t32 -169q0 -121 -73.5 -199t-202.5 -110v-8q173 -35 269.5 -126.5t96.5 -234.5q0 -216 -147 -318.5t-469 -102.5q-46 0 -127 2.5t-183 6.5t-147 5zM399 156q132 -11 230 -11q73 0 130 6 t108.5 22.5t84.5 43t52.5 69t19.5 99.5q0 145 -108.5 214t-303.5 69h-213v-512zM399 829q31 -4 158 -4q211 0 296 58.5t85 187.5q0 256 -381 256q-109 0 -158 -10v-488z" />
<glyph unicode="C" horiz-adv-x="1331" d="M115 741q0 173 54 314.5t150 236t230 146t293 51.5q207 0 387 -98l-70 -164q-182 82 -330 82q-68 0 -130.5 -13.5t-129.5 -51t-115.5 -97.5t-80 -161.5t-31.5 -233.5q0 -98 17 -181.5t57.5 -156.5t103 -124t156.5 -80.5t215 -29.5q151 0 301 62l47 -166 q-223 -105 -432 -105q-319 0 -505.5 208t-186.5 562z" />
<glyph unicode="D" horiz-adv-x="1472" d="M180 -4v1477q204 16 348 16q830 0 830 -703q0 -182 -53.5 -332t-151.5 -254.5t-240.5 -162t-316.5 -57.5q-30 0 -106.5 3t-173 7.5t-136.5 5.5zM399 154q132 -11 189 -11q113 0 209 38t171.5 114t118.5 203t43 293q0 265 -154 400.5t-448 135.5q-60 0 -129 -12v-1161z " />
<glyph unicode="E" horiz-adv-x="1196" d="M180 0v1473h895l-2 -170l-674 12v-492l615 4l-2 -165l-613 4v-504l680 16l-2 -178h-897z" />
<glyph unicode="F" horiz-adv-x="1085" d="M180 0v1473h848l-2 -175l-627 13v-523l564 11v-174l-564 10v-635h-219z" />
<glyph unicode="G" horiz-adv-x="1521" d="M115 741q0 346 199 547t552 201q126 0 260 -38t211 -81l-69 -164q-220 115 -404 115q-86 0 -160 -17t-142 -58.5t-115.5 -106t-76 -166t-28.5 -232.5q0 -159 60.5 -288.5t178 -207t271.5 -77.5q176 0 287 49v389q-130 7 -230 15l-4 133h447v-658q-244 -125 -518 -125 q-336 0 -527.5 203t-191.5 567z" />
<glyph unicode="H" horiz-adv-x="1531" d="M180 0v1473h219v-646h734v646h219v-1473h-219v662h-734v-662h-219z" />
<glyph unicode="I" horiz-adv-x="579" d="M180 0v1473h219v-1473h-219z" />
<glyph unicode="J" horiz-adv-x="731" d="M18 -98q45 13 84 37q85 51 139 167t54 297v1070h219v-1067q0 -279 -129 -459q-62 -87 -143 -132.5t-168 -45.5z" />
<glyph unicode="K" horiz-adv-x="1415" d="M180 0v1473h219v-633q50 -6 95 -6q127 1 213 41t135 124t69.5 197t20.5 277h219q0 -120 -10.5 -216t-37.5 -192.5t-79.5 -176t-130.5 -138.5q94 -178 186 -320q62 -99 94.5 -149.5t99 -142t116.5 -142.5q-35 -12 -154 -12q-130 0 -145 12q-97 76 -400 655 q-76 -20 -153 -20q-61 0 -138 12v-643h-219z" />
<glyph unicode="L" horiz-adv-x="1093" d="M180 0v1473h219v-1303l656 12l-2 -182h-873z" />
<glyph unicode="M" horiz-adv-x="1810" d="M180 0v1473h359q96 -300 196 -603q4 -14 40.5 -123.5t53 -161.5t43.5 -143t43 -161h9q45 205 159 589q77 261 189 603h358v-1473h-215v1325h-10q-24 -100 -160 -555q-161 -537 -221 -704h-219q-188 528 -248 704q-152 442 -170 555h-12q10 -317 10 -735v-590h-205z" />
<glyph unicode="N" horiz-adv-x="1546" d="M180 0v1473h326q43 -82 154 -279.5t180 -333.5q7 -15 59.5 -113.5t123.5 -234.5t138 -270h13q-13 282 -13 645l2 586h203v-1473h-305q-9 15 -58 95.5t-69.5 116t-65 114t-90.5 165.5t-100 195q-11 22 -86.5 169t-128 255.5t-66.5 151.5h-12q10 -317 10 -672v-590h-215z " />
<glyph unicode="O" horiz-adv-x="1597" d="M115 743q0 210 83.5 379t240 268t358.5 99q313 0 499.5 -199.5t186.5 -546.5q0 -354 -184 -563t-506 -209q-329 0 -503.5 206t-174.5 566zM344 743q0 -86 13 -166.5t45.5 -161t82 -139.5t129 -96t179.5 -37q104 0 186 37t132.5 96t83.5 139.5t45.5 160.5t12.5 167 q0 114 -25.5 214.5t-78 183.5t-143 131.5t-209.5 48.5q-117 0 -206.5 -48.5t-142 -131.5t-78.5 -183.5t-26 -214.5z" />
<glyph unicode="P" horiz-adv-x="1275" d="M180 0v1470q268 19 389 19q323 0 481 -113.5t158 -357.5q0 -124 -44 -218.5t-125 -153.5t-190 -88.5t-243 -29.5q-124 0 -207 15v-543h-219zM399 725q104 -14 197 -14q107 0 192 34t138 106.5t53 174.5q0 151 -105 226t-321 75q-105 0 -154 -10v-592z" />
<glyph unicode="Q" horiz-adv-x="1609" d="M115 743q0 210 83.5 379t240 268t358.5 99q313 0 499.5 -199.5t186.5 -546.5q0 -212 -65.5 -350.5t-192.5 -257.5v-6h372l-2 -178q-112 1 -208.5 5.5t-240 14.5t-200.5 13q-4 0 -30 -3t-44 -4q-47 -6 -73 -6q-329 0 -506.5 206.5t-177.5 565.5zM344 743 q0 -86 13.5 -166.5t47 -161t83.5 -139.5t130.5 -96t180.5 -37q104 0 185.5 37t131 96t81.5 140t44 160.5t12 166.5q0 114 -25.5 214.5t-78 183.5t-143 131.5t-209.5 48.5q-117 0 -206.5 -48.5t-142 -131.5t-78.5 -183.5t-26 -214.5z" />
<glyph unicode="R" horiz-adv-x="1425" d="M180 0v1470q268 19 389 19q341 0 490 -109.5t149 -341.5q0 -310 -266 -422q42 -75 113 -186q155 -246 233 -346q41 -52 76 -88q-35 -12 -154 -12q-130 0 -145 12q-21 16 -85.5 114t-119.5 193q-101 173 -147 260q-62 -4 -107 -4q-103 0 -207 16v-575h-219zM399 756 q111 -15 197 -15q179 0 281 82t102 224q0 67 -20.5 116.5t-68 87.5t-132 57t-205.5 19q-105 0 -154 -10v-561z" />
<glyph unicode="S" horiz-adv-x="1245" d="M125 106l51 187q80 -62 195 -106t227 -44q137 0 227 68t90 170q0 38 -11.5 71t-27.5 57t-47 47t-56 37.5t-67.5 31.5t-69.5 25.5t-75 23.5q-52 16 -87.5 28.5t-83 33.5t-79 42t-66 53t-54.5 68t-33 85t-13 106q0 191 135 295t371 104q186 0 381 -72l-47 -170 q-199 80 -338 80q-127 0 -202.5 -57t-75.5 -142q0 -47 17 -84t43 -62t68 -46.5t81.5 -35.5t94.5 -32q21 -6 32 -10q44 -15 72 -24.5t70 -26t69.5 -31t62.5 -36.5t57.5 -44.5t47 -53t38 -64t22.5 -76t9 -90.5q0 -131 -83 -233.5t-214.5 -155t-284.5 -52.5q-251 0 -446 135z " />
<glyph unicode="T" horiz-adv-x="1177" d="M43 1298l2 175h1092l2 -175l-439 9v-1307h-219v1307z" />
<glyph unicode="U" horiz-adv-x="1503" d="M174 649v824h221v-826q0 -83 7 -148.5t30 -135t60.5 -115.5t104 -75.5t155.5 -29.5t155 29.5t104 75.5t60.5 115.5t29.5 135t7 148.5v826h221v-824q0 -678 -577 -678q-578 0 -578 678z" />
<glyph unicode="V" horiz-adv-x="1449" d="M43 1473h248l477 -1250h8q144 253 250 619q54 188 85.5 360t31.5 271h219q0 -109 -36.5 -297t-102.5 -400q-150 -478 -361 -788h-250z" />
<glyph unicode="W" horiz-adv-x="2244" d="M43 1473h246l346 -1039q54 -165 63 -211h9q98 130 197.5 477.5t121.5 710.5h231l330 -977q0 -1 14 -47t23.5 -84.5t15.5 -79.5h9q79 136 139 319t90.5 359.5t44.5 320t14 251.5h220q0 -146 -22.5 -320t-69.5 -374t-133 -409.5t-199 -381.5h-228q-138 349 -221.5 610.5 t-126.5 534.5h-8q0 -211 -14 -328q-20 -160 -122 -404.5t-227 -412.5h-245z" />
<glyph unicode="X" horiz-adv-x="1523" d="M92 0q43 160 182 389t326 420l-477 664h272l365 -504q57 55 76 73.5t76 79.5t89.5 104t76.5 110.5t77 136.5h223q-30 -93 -91.5 -192.5t-144 -194t-139.5 -153t-131 -128.5l580 -805h-274l-463 645q-109 -107 -212.5 -276.5t-174.5 -368.5h-236z" />
<glyph unicode="Y" d="M66 1473h213q32 -263 137 -498q88 -202 223 -361l287 859h202l-481 -1473h-207l138 410q-207 159 -347 481q-111 253 -165 582z" />
<glyph unicode="Z" horiz-adv-x="1290" d="M121 125q112 219 333.5 571.5t391.5 603.5l-6 9l-652 -25l-14 189h932l29 -117q-158 -227 -391.5 -607t-329.5 -569l6 -8l739 29l-12 -201h-979z" />
<glyph unicode="[" horiz-adv-x="692" d="M176 -432v2050h418v-162h-234v-1724h234v-164h-418z" />
<glyph unicode="\" horiz-adv-x="868" d="M72 1438l153 69l566 -1484l-164 -68z" />
<glyph unicode="]" horiz-adv-x="692" d="M100 -268h234v1724h-234v162h418v-2050h-418v164z" />
<glyph unicode="^" horiz-adv-x="1449" d="M186 637l469 840h115l461 -840l-121 -90l-395 657h-13l-395 -657z" />
<glyph unicode="_" horiz-adv-x="1038" d="M0 -225l4 145h1030l4 -145h-1038z" />
<glyph unicode="`" horiz-adv-x="602" d="M82 1438l117 135l327 -207l-82 -102z" />
<glyph unicode="a" horiz-adv-x="1171" d="M106 358q0 75 17 172q358 150 670 150v68q0 109 -64 161t-160 52q-160 0 -381 -84l-22 170q188 69 391 69q215 0 334 -77t119 -238v-266q0 -343 34 -535h-213q-18 74 -18 139q0 42 6 101l-8 4q-20 -44 -38.5 -77t-51 -72.5t-68.5 -64.5t-90.5 -42t-118.5 -17 q-149 0 -243.5 105.5t-94.5 281.5zM297 383q0 -132 53.5 -194t128.5 -62q84 0 158 66.5t115 162t41 187.5q-126 0 -257.5 -36t-236.5 -89z" />
<glyph unicode="b" horiz-adv-x="1265" d="M170 45v1475h217v-418q0 -88 -27 -262l9 -4q52 134 140.5 207t211.5 73q202 0 320.5 -148.5t119.5 -449.5q0 -162 -61 -283.5t-190 -192.5t-314 -71q-31 0 -62 1.5t-56.5 3.5t-54 6.5t-48 7.5t-45.5 9.5t-39.5 9.5t-37.5 10t-31.5 9.5t-28.5 9t-23 7.5zM387 162 q66 -39 207 -39q173 0 256.5 98t83.5 297q0 209 -60.5 324.5t-162.5 115.5q-104 0 -178 -101t-110 -272.5t-36 -394.5v-28z" />
<glyph unicode="c" horiz-adv-x="1079" d="M104 543q0 253 158.5 413t409.5 160q78 0 171.5 -24t176.5 -72l-68 -148q-156 86 -290 86q-67 0 -124 -21.5t-105 -67.5t-75.5 -128t-27.5 -192q0 -61 10.5 -115t37.5 -107t69 -91.5t109 -62t153 -23.5q124 0 254 57l43 -150q-180 -86 -367 -86q-252 0 -393.5 156 t-141.5 416z" />
<glyph unicode="d" horiz-adv-x="1265" d="M104 569q0 162 61.5 283.5t190.5 192.5t314 71q42 0 80.5 -5t59 -9.5t67.5 -16.5v435h217v-985q0 -343 34 -535h-213q-18 74 -18 141q0 42 6 107l-8 4q-40 -116 -130.5 -198.5t-221.5 -82.5q-203 0 -321 148.5t-118 449.5zM330 569q0 -209 60.5 -324.5t162.5 -115.5 q104 0 178 101t110 272.5t36 394.5v29q-66 39 -207 39q-172 0 -256 -98.5t-84 -297.5z" />
<glyph unicode="e" horiz-adv-x="1173" d="M104 543q0 165 74.5 297t199 204t273.5 72q111 0 192.5 -29.5t129.5 -84t71 -124t23 -155.5q0 -112 -8 -184q-268 -47 -570 -47q-110 0 -159 4q0 -47 10.5 -91.5t37 -91t67 -81t106.5 -56.5t149 -22q152 0 293 65l33 -135q-183 -113 -397 -113q-243 0 -384 157t-141 415z M330 641h51q296 0 487 35l2 55q0 107 -56 171.5t-163 64.5q-134 0 -216 -90t-105 -236z" />
<glyph unicode="f" horiz-adv-x="759" d="M45 954l10 109q21 5 63.5 16t82.5 19v51q0 79 8.5 136t33.5 109t67 84.5t111.5 51t166.5 18.5q128 0 256 -30l-19 -168q-106 41 -211 41q-93 0 -144.5 -54t-51.5 -186v-53q179 -8 307 -15l4 -131q-128 -9 -311 -16v-936h-217v942q-79 6 -156 12z" />
<glyph unicode="g" horiz-adv-x="1216" d="M80 -131l131 242q-61 31 -61 82q0 44 38.5 117t87.5 139q-141 91 -141 294q0 68 29 133t83 119t141.5 87.5t193.5 33.5q59 0 118.5 -8t135 -23t96.5 -18q124 -21 235 -31l-8 -147q-50 0 -160 16q21 -107 21 -162q0 -77 -28.5 -144t-82 -119t-139 -81.5t-192.5 -29.5 t-179 20q-8 -13 -23.5 -63t-15.5 -60q2 -40 320 -67q30 -3 94.5 -8t97 -8t75.5 -7.5t67 -8.5t35 -9q34 -16 67 -68.5t33 -128.5q0 -123 -80.5 -216.5t-208.5 -140t-280 -46.5q-110 0 -200 22.5t-144 56.5t-91 77.5t-51 82t-14 72.5zM274 -135q0 -19 18.5 -43t56.5 -49.5 t110 -42.5t164 -17q145 0 231 63t86 150q0 37 -14 66q-4 8 -28.5 14.5t-75 12t-87 8.5t-108.5 8q-233 16 -283 35zM350 743q0 -103 57 -172t171 -69q112 0 169.5 69t57.5 172q0 116 -27 199q-30 14 -86.5 25.5t-109.5 11.5q-107 0 -169.5 -67t-62.5 -169z" />
<glyph unicode="h" horiz-adv-x="1261" d="M166 0v1520h217v-418q0 -25 -1 -50.5t-2.5 -42t-5 -44t-5 -38t-7 -43.5t-6.5 -42l9 -4q64 137 153.5 207.5t226.5 70.5q373 0 373 -434v-682h-217v682q0 149 -47 212.5t-119 63.5q-102 0 -182.5 -83.5t-125 -233t-44.5 -338.5v-303h-217z" />
<glyph unicode="i" horiz-adv-x="532" d="M135 1382q0 59 36 93t95 34t95 -34t36 -93q0 -55 -36 -88.5t-95 -33.5t-95 33.5t-36 88.5zM156 535v552h217v-552q0 -338 35 -535h-218q-34 153 -34 535z" />
<glyph unicode="j" horiz-adv-x="589" d="M-68 -279q120 53 190.5 187.5t70.5 351.5v827h217v-839q0 -124 -31.5 -233.5t-81 -183.5t-110 -128t-118 -79t-106.5 -25zM160 1382q0 59 36 93t95 34t95 -34t36 -93q0 -55 -36 -88.5t-95 -33.5t-95 33.5t-36 88.5z" />
<glyph unicode="k" horiz-adv-x="1185" d="M166 0v1520h217v-818q21 -8 61 -8q306 0 306 393h206q0 -49 -7.5 -101.5t-26 -118.5t-57.5 -133.5t-95 -121.5q5 -8 37.5 -68.5t40.5 -74.5t38.5 -67t44 -74t42 -66.5t48.5 -72t48 -64t55.5 -68.5t57.5 -61h-277q-46 35 -139.5 196.5t-179.5 331.5q-43 -12 -105 -12 q-64 0 -98 10v-522h-217z" />
<glyph unicode="l" horiz-adv-x="540" d="M160 535v985h217v-985q0 -338 35 -535h-217q-35 158 -35 535z" />
<glyph unicode="m" horiz-adv-x="1986" d="M141 1087h213q19 -78 19 -139q0 -42 -6 -106l8 -4q65 138 155 208t215 70q157 0 244 -76t107 -200l4 -2q23 47 45 83t55.5 74.5t71.5 63.5t90.5 41t114.5 16q366 0 366 -434v-682h-217v682q0 149 -47 212.5t-119 63.5q-102 0 -180 -83.5t-120 -232.5t-42 -339v-303h-217 v682q0 132 -42 204t-124 72q-102 0 -180 -83.5t-120 -232.5t-42 -339v-303h-217v553q0 337 -35 534z" />
<glyph unicode="n" horiz-adv-x="1273" d="M143 1087h213q19 -78 19 -139q0 -42 -6 -106l8 -4q65 138 155 208t226 70q372 0 372 -434v-682h-217v682q0 149 -46.5 212.5t-118.5 63.5q-155 0 -254 -184t-99 -471v-303h-217v553q0 337 -35 534z" />
<glyph unicode="o" horiz-adv-x="1269" d="M104 563q0 246 150 399.5t381 153.5q129 0 231 -41.5t166.5 -116t98.5 -175t34 -220.5q0 -277 -141 -434.5t-387 -157.5q-258 0 -395.5 156t-137.5 436zM330 563q0 -202 78 -315t229 -113q303 0 303 428q0 395 -305 395q-150 0 -227.5 -102.5t-77.5 -292.5z" />
<glyph unicode="p" horiz-adv-x="1265" d="M137 1087h213q19 -89 19 -141q0 -46 -9 -110l9 -5q26 73 70 134.5t119 106t165 44.5q202 0 320 -148.5t118 -449.5q0 -162 -61 -283.5t-190 -192.5t-314 -71q-32 0 -55 1t-46.5 5t-32 6t-37 9.5t-36.5 9.5v-416h-217v967q0 337 -35 534zM389 168q66 -39 207 -39 q173 0 256.5 98t83.5 297q0 209 -60.5 325t-162.5 116q-104 0 -178 -101t-110 -272.5t-36 -394.5v-29z" />
<glyph unicode="q" horiz-adv-x="1273" d="M115 569q0 162 61 283.5t190 192.5t314 71q35 0 68.5 -1.5t64 -5.5t56 -7t53.5 -9.5t45.5 -10t42.5 -11t35.5 -10.5t33 -10.5l25.5 -8.5v-1456h-217v363q0 92 5 145.5t17 132.5q3 15 4 23l-10 -2q-21 -56 -50.5 -102t-71.5 -87t-100.5 -64.5t-127.5 -23.5 q-202 0 -320 148.5t-118 449.5zM340 575q0 -209 60.5 -324.5t162.5 -115.5q104 0 178 101t110 272.5t36 394.5v29q-66 39 -207 39q-172 0 -256 -98.5t-84 -297.5z" />
<glyph unicode="r" horiz-adv-x="796" d="M141 1087h213q19 -74 19 -145q0 -62 -17 -135l9 -4q17 61 44.5 114.5t66.5 99.5t94 72.5t118 26.5q42 0 80 -10l-23 -215q-31 10 -75 10q-126 0 -201.5 -152.5t-75.5 -410.5v-338h-217v553q0 337 -35 534z" />
<glyph unicode="s" horiz-adv-x="954" d="M74 74l43 168q74 -51 167 -83t171 -32q102 0 161.5 42t59.5 122q0 25 -9 47t-29 40t-40.5 32t-55 28.5t-59.5 23.5t-67 23q-85 28 -139 54.5t-97 64t-61.5 88.5t-18.5 121q0 141 110.5 222t276.5 81q151 0 306 -47l-41 -156q-50 17 -76 25t-78 17.5t-100 9.5 q-97 0 -145 -40t-48 -96q0 -30 14 -54.5t33 -41.5t55 -33.5t63 -26t73 -24.5q134 -41 186 -70q139 -77 154 -236q2 -20 2 -42q0 -83 -39 -148.5t-104.5 -104t-146 -58t-169.5 -19.5q-199 0 -352 103z" />
<glyph unicode="t" horiz-adv-x="806" d="M55 954l11 109q74 19 151 35q8 42 20.5 105.5t21.5 110.5t17 85l152 16v-317q179 -8 307 -15l4 -131q-128 -9 -311 -16v-471q0 -103 5.5 -159t24.5 -92t49 -47t85 -11q88 0 164 18l20 -127q-142 -67 -276 -67q-91 0 -151 29t-93 89t-46 137.5t-13 190.5q0 234 14 516 q-16 1 -69.5 5.5t-86.5 6.5z" />
<glyph unicode="u" horiz-adv-x="1265" d="M158 406v681h217v-681q0 -277 166 -277q98 0 177 83t124 233.5t45 338.5v303h217v-552q0 -338 35 -535h-213q-17 80 -17 143q0 21 4 103l-8 4q-63 -123 -160 -201t-215 -78q-372 0 -372 435z" />
<glyph unicode="v" horiz-adv-x="1087" d="M47 1034l199 66l358 -887l6 -2q99 154 160 360q74 253 84 516h193q-10 -296 -105 -587q-92 -284 -264 -504h-205z" />
<glyph unicode="w" horiz-adv-x="1660" d="M47 1032l201 68l239 -873l9 -2q129 245 233 803h234l231 -799l8 -2q75 121 133 344q34 139 53 281t21 235h186q-5 -290 -88 -581q-86 -303 -239 -510h-221q-16 57 -199 713l-6 -2q-91 -446 -267 -711h-237z" />
<glyph unicode="x" horiz-adv-x="1114" d="M20 0q59 149 147.5 286t244.5 285l-383 516h258l278 -382q89 90 165 192t120 190h203q-48 -122 -149 -258.5t-222 -259.5l416 -569h-267l-307 430q-179 -187 -286 -430h-218z" />
<glyph unicode="y" horiz-adv-x="1077" d="M86 1087h205q11 -106 28 -206.5t47 -207.5t67.5 -186.5t92.5 -132.5t119 -57q97 330 195 790h188q-205 -1031 -379 -1253q-92 -117 -213 -180.5t-243 -63.5q-55 0 -95 15l21 186q31 -8 71 -8q111 0 225.5 87.5t166.5 225.5q-420 72 -496 991z" />
<glyph unicode="z" horiz-adv-x="952" d="M57 92q105 184 279.5 439.5t284.5 404.5l-3 6l-493 -10l-12 155h749l21 -100q-124 -163 -294.5 -417.5t-256.5 -409.5l2 -6l561 18l-10 -172h-797z" />
<glyph unicode="{" horiz-adv-x="731" d="M70 723q85 5 149 73.5t57 184.5l-14 240q-11 183 73.5 290t260.5 107h57l-22 -174q-103 9 -147 -50t-38 -167l15 -238q7 -135 -44.5 -223t-148.5 -113l2 -6q95 -25 146.5 -124t44.5 -255l-15 -305q-5 -110 41.5 -170.5t145.5 -48.5l22 -176h-59q-352 0 -334 399l14 307 q6 128 -54.5 211.5t-139.5 83.5z" />
<glyph unicode="|" horiz-adv-x="659" d="M248 -471v2046l164 4v-2046z" />
<glyph unicode="}" horiz-adv-x="731" d="M82 -432l22 176q99 -12 145.5 48.5t41.5 170.5l-15 305q-7 156 44.5 255t146.5 124l2 6q-97 25 -148.5 113t-44.5 223l15 238q6 108 -38 167t-147 50l-22 174h57q176 0 260.5 -107t73.5 -290l-14 -240q-7 -116 57 -184.5t150 -73.5l-13 -154q-79 0 -139.5 -83.5 t-54.5 -211.5l14 -307q18 -399 -334 -399h-59z" />
<glyph unicode="~" horiz-adv-x="1097" d="M94 631q1 2 13 23.5t17.5 31t19.5 31.5t24.5 34t26.5 29t31 26t33.5 16t37.5 7q54 0 228.5 -46t219.5 -46q41 0 170 82l76 -78q-163 -229 -246 -229q-62 0 -223.5 54.5t-226.5 54.5q-33 0 -125 -68z" />
<glyph unicode="&#xa1;" horiz-adv-x="737" d="M236 989q0 59 36 93t95 34t95 -34t36 -93q0 -55 -36 -89t-95 -34t-95 34t-36 89zM252 -356l37 1099l166 11l6 -1110h-209z" />
<glyph unicode="&#xa2;" d="M109 543q0 222 124.5 375t329.5 188v151l129 5v-146q77 -3 165 -27t167 -69l-68 -148q-148 79 -264 84v-806h21q124 0 254 57l43 -150q-154 -75 -318 -84v-204l-129 -5v213q-217 24 -335.5 176t-118.5 390zM334 549q0 -61 11.5 -116.5t36.5 -107.5t71.5 -92t109.5 -61 v772q-104 -32 -166.5 -128t-62.5 -267z" />
<glyph unicode="&#xa3;" d="M59 651l9 185h153q1 178 22 296t72 201t137 119.5t216 36.5q186 0 336 -86l-68 -158q-1 1 -15.5 8t-23.5 11t-28 12.5t-33.5 14t-37 12t-42 10.5t-43 7t-45.5 3q-84 0 -128.5 -39t-67 -144t-23.5 -304h342l8 -185h-350q-3 -357 -52 -489l602 14l-2 -176h-895l4 135 q82 32 99 108t16 312v96h-162z" />
<glyph unicode="&#xa5;" d="M76 1473h225q45 -235 126 -438.5t177 -327.5l6 2l277 764h213l-277 -728h269l8 -133h-322l-55 -112v-41h371l8 -133h-379v-326h-209v326h-401l4 133h397v47q-5 5 -17 16t-16.5 15.5l-14 14t-15 15.5t-13 14.5t-13 16t-11.5 16.5h-293l4 134h209q-79 126 -151.5 338 t-106.5 387z" />
<glyph unicode="&#xa7;" d="M88 -129l51 186q74 -59 186.5 -104t206.5 -45q123 0 188.5 40.5t65.5 121.5q0 35 -19.5 67t-49.5 55.5t-75 49t-87.5 45t-96 46t-91.5 48.5q-132 78 -192 152.5t-60 181.5q0 98 64 177t159 122q-119 98 -119 246q0 94 55.5 164t144.5 104.5t197 34.5q180 0 326 -70 l-61 -156q-138 74 -265 74q-97 0 -144.5 -39.5t-47.5 -95.5q0 -31 12 -57.5t29 -44.5t49 -36.5t57.5 -30t68.5 -29.5l7.5 -3t7 -3t7.5 -3q22 -9 64 -26t67 -27t62 -28.5t59.5 -35.5t49.5 -43t41.5 -54.5t24.5 -67.5t10 -85q0 -59 -23.5 -111.5t-59 -87t-77.5 -60t-78 -37 t-61 -11.5q27 -10 56.5 -26t66 -43.5t65 -60.5t47.5 -79.5t19 -97.5q0 -176 -124 -264t-336 -88q-256 0 -447 135zM309 745q0 -56 51 -113t115.5 -92t112.5 -40q113 0 182.5 62t69.5 147q0 50 -40 94.5t-94.5 71t-101.5 42t-69 15.5q-79 0 -152.5 -54t-73.5 -133z" />
<glyph unicode="&#xa8;" horiz-adv-x="999" d="M174 1413q0 53 33 84t86 31t86 -31t33 -84q0 -49 -33 -79.5t-86 -30.5t-86 30.5t-33 79.5zM588 1413q0 53 33 84t86 31t85.5 -31t32.5 -84q0 -49 -32.5 -79.5t-85.5 -30.5t-86 30.5t-33 79.5z" />
<glyph unicode="&#xa9;" horiz-adv-x="1736" d="M115 733q0 152 59.5 291t160 239.5t239.5 160t292 59.5q204 0 377.5 -100.5t275 -273.5t101.5 -376q0 -152 -60 -290.5t-161.5 -238.5t-240.5 -159t-292 -59t-292 59t-239.5 159t-160 238.5t-59.5 290.5zM279 733q0 -160 78 -296t213.5 -215t295.5 -79q159 0 294.5 79 t214.5 215t79 296q0 159 -79 295t-214.5 215.5t-294.5 79.5q-160 0 -295.5 -79.5t-213.5 -215t-78 -295.5zM512 743q0 159 111.5 262t271.5 103q115 0 223 -64l-45 -114q-95 53 -180 53q-46 0 -81 -10t-66.5 -34t-48.5 -72.5t-17 -118.5q0 -236 242 -236q79 0 161 35 l23 -107q-113 -63 -229 -63q-165 0 -265 100.5t-100 265.5z" />
<glyph unicode="&#xaa;" horiz-adv-x="911" d="M104 952q0 58 15 125q243 104 469 107v33q0 66 -41.5 98.5t-102.5 32.5q-111 0 -280 -62l-21 144q155 51 291 51q156 0 245 -55.5t89 -172.5v-180q0 -225 29 -379h-181q-8 36 -8 84q0 30 4 66l-4 2q-90 -172 -241 -172q-112 0 -187.5 77t-75.5 201zM266 967 q0 -30 5 -55.5t17 -50t35.5 -38.5t57.5 -14q78 0 139.5 80t67.5 174q-166 -3 -320 -80z" />
<glyph unicode="&#xab;" horiz-adv-x="1122" d="M131 549l311 489l131 -53l-186 -440l186 -441l-131 -71zM569 549l312 489l131 -53l-187 -440l187 -441l-131 -71z" />
<glyph unicode="&#xad;" horiz-adv-x="788" d="M94 571l4 154h592l4 -154h-600z" />
<glyph unicode="&#xae;" horiz-adv-x="1736" d="M115 733q0 152 59.5 291t160 239.5t239.5 160t292 59.5q204 0 377.5 -100.5t275 -273.5t101.5 -376q0 -152 -60 -290.5t-161.5 -238.5t-240.5 -159t-292 -59t-292 59t-239.5 159t-160 238.5t-59.5 290.5zM279 733q0 -160 78 -296t213.5 -215t295.5 -79q159 0 294.5 79 t214.5 215t79 296q0 159 -79 295t-214.5 215.5t-294.5 79.5q-160 0 -295.5 -79.5t-213.5 -215t-78 -295.5zM633 393v705q22 0 92 4t111 4q164 0 235.5 -52t71.5 -163q0 -71 -36.5 -126t-100.5 -81q9 -16 25.5 -43.5l25.5 -42.5q92 -150 149 -207q-14 -6 -94 -6q-62 0 -68 6 q-18 13 -98 146q-47 75 -72 127q-14 -2 -47 -2q-13 0 -67 6v-275h-127zM760 774q41 -8 82 -8q170 0 170 117q0 59 -44 90t-145 31q-35 0 -63 -7v-223z" />
<glyph unicode="&#xb0;" horiz-adv-x="831" d="M143 1194q0 125 74 195.5t199 70.5q124 0 199 -71t75 -195q0 -117 -76.5 -192.5t-197.5 -75.5q-122 0 -197.5 75t-75.5 193zM279 1194q0 -66 35.5 -105.5t101.5 -39.5q65 0 102 39.5t37 105.5q0 69 -37 110.5t-102 41.5q-66 0 -101.5 -41.5t-35.5 -110.5z" />
<glyph unicode="&#xb1;" horiz-adv-x="1409" d="M160 678l4 164h454v461l173 4v-465h454l4 -164h-458v-465l-173 -2v467h-458zM195 -127l4 170h1009l4 -170h-1017z" />
<glyph unicode="&#xb2;" horiz-adv-x="651" d="M39 711q145 91 258 235q109 140 109 262q0 156 -138 156q-71 0 -155 -49l-47 112q109 56 217 56q130 0 201 -76t71 -195q0 -130 -94 -270q-78 -113 -170 -182l2 -8l303 12l-6 -137h-533z" />
<glyph unicode="&#xb3;" horiz-adv-x="651" d="M51 690l29 111q45 -32 105.5 -56t109.5 -24q70 0 113 42t43 109q0 68 -60.5 105t-173.5 37q-45 0 -65 -2l-11 98q69 7 131.5 27.5t109 61.5t46.5 93q0 36 -29 53t-73 17q-32 0 -82.5 -13t-89.5 -36l-48 112q109 56 218 56q114 0 175.5 -50t61.5 -139q0 -69 -54.5 -126 t-111.5 -79v-4q82 -13 140.5 -68t58.5 -145q0 -106 -79 -184t-222 -78q-69 0 -139 26t-103 56z" />
<glyph unicode="&#xb4;" horiz-adv-x="602" d="M76 1366l327 207l117 -135l-362 -174z" />
<glyph unicode="&#xb5;" horiz-adv-x="1372" d="M182 -414v1501h213v-643q0 -315 226 -315q145 0 230 181.5t85 473.5v303h217v-552q0 -338 35 -535h-213q-12 52 -14 104t4 142l-9 4q-57 -118 -145.5 -195.5t-200.5 -77.5q-164 0 -252 136l-8 -4q25 -71 37 -163t12 -141q0 -47 -4 -219h-213z" />
<glyph unicode="&#xb6;" horiz-adv-x="1378" d="M135 1063q0 67 17.5 128t56 116t96 95t143.5 63.5t191 23.5q99 0 308.5 -9.5t283.5 -9.5l-4 -120q-91 -11 -146 -15v-1568h-147v1566l-146 -8v-1558h-337l4 131q48 3 92.5 5t93.5 5v770q-238 0 -372 103t-134 282z" />
<glyph unicode="&#xb7;" horiz-adv-x="569" d="M143 596q0 64 39 100.5t103 36.5t102.5 -36.5t38.5 -100.5q0 -60 -39 -96.5t-102 -36.5t-102.5 36.5t-39.5 96.5z" />
<glyph unicode="&#xb8;" horiz-adv-x="579" d="M115 -324q89 0 141.5 24t52.5 73q0 41 -30 61.5t-80 20.5q0 23 9 69.5t19 67.5h158q-10 -50 -10 -74q0 -14 2 -18q84 -34 84 -127q0 -91 -86.5 -149t-237.5 -58z" />
<glyph unicode="&#xb9;" horiz-adv-x="651" d="M127 1300l6 111q198 24 322 55v-839h-152v686q-143 -13 -176 -13z" />
<glyph unicode="&#xba;" horiz-adv-x="1038" d="M131 1092q0 172 109.5 280.5t279.5 108.5q187 0 287 -108t100 -281q0 -194 -103 -305t-284 -111q-189 0 -289 110t-100 306zM317 1092q0 -134 52 -206.5t151 -72.5q103 0 151 70.5t48 208.5q0 254 -199 254q-99 0 -151 -65.5t-52 -188.5z" />
<glyph unicode="&#xbb;" horiz-adv-x="1122" d="M111 104l186 441l-186 440l131 53l311 -489l-311 -516zM549 104l186 441l-186 440l131 53l311 -489l-311 -516z" />
<glyph unicode="&#xbc;" horiz-adv-x="1691" d="M63 1300l7 111q196 24 321 55v-839h-151v686q-143 -13 -177 -13zM373 -162l788 1733l121 -62l-778 -1730zM1008 322q87 189 266 516l139 14q-18 -37 -74 -145t-98 -192.5t-76 -162.5l219 2l5 297l135 6v-299l129 2l6 -129l-135 -2v-229h-140v227h-348z" />
<glyph unicode="&#xbd;" horiz-adv-x="1720" d="M63 1300l7 111q196 24 321 55v-839h-151v686q-143 -13 -177 -13zM291 -162l788 1733l121 -62l-778 -1730zM1108 84q145 91 258 235q109 140 109 263q0 155 -138 155q-71 0 -155 -49l-47 113q107 55 217 55q130 0 201 -75.5t71 -194.5q0 -131 -94 -271q-78 -113 -170 -182 l2 -8l303 12l-6 -137h-533z" />
<glyph unicode="&#xbe;" horiz-adv-x="1701" d="M51 690l29 111q45 -32 105.5 -56t109.5 -24q70 0 113 42t43 109q0 68 -60.5 105t-173.5 37q-45 0 -65 -2l-11 98q68 7 130.5 27.5t109.5 61.5t47 93q0 36 -29 53t-73 17q-32 0 -82.5 -13t-89.5 -36l-48 112q109 56 218 56q114 0 175.5 -50t61.5 -139q0 -69 -54.5 -126 t-111.5 -79v-4q82 -13 140.5 -68t58.5 -145q0 -106 -79 -184t-222 -78q-69 0 -139 26t-103 56zM383 -162l788 1733l121 -62l-778 -1730zM1018 322q87 189 266 516l139 14q-15 -31 -73.5 -143.5t-99 -195.5t-74.5 -161l223 2v303h135v-297h135v-131h-135v-229h-139v227h-348z " />
<glyph unicode="&#xbf;" horiz-adv-x="1071" d="M127 -10q0 79 40.5 160t107.5 149t142.5 123.5t157.5 99.5q5 97 5 99q0 11 -5 104l136 -6q24 -141 26 -297q-10 -7 -50 -29t-81 -45.5t-91 -62.5t-87.5 -80t-63.5 -98t-26 -117q0 -113 65 -164t166 -51q121 0 275 71l76 -163q-1 -1 -16.5 -7t-25 -9.5t-29.5 -10.5 t-36.5 -12t-40 -11.5t-46.5 -11t-48.5 -8.5t-53.5 -6t-55 -2q-55 0 -110 9.5t-116.5 36.5t-108 68.5t-77 111.5t-30.5 159zM504 999q0 52 34.5 84.5t90.5 32.5t90.5 -32.5t34.5 -84.5q0 -56 -34.5 -88t-90.5 -32t-90.5 32t-34.5 88z" />
<glyph unicode="&#xc0;" horiz-adv-x="1458" d="M53 0q122 474 252 819q151 403 318 654l251 8l553 -1481h-237l-184 489h-592q-47 -135 -121 -489h-240zM461 655h483l-221 600l-14 -2q-53 -91 -132.5 -282t-115.5 -316zM477 1794l117 135l328 -207l-82 -102z" />
<glyph unicode="&#xc1;" horiz-adv-x="1458" d="M53 0q122 474 252 819q151 403 318 654l251 8l553 -1481h-237l-184 489h-592q-47 -135 -121 -489h-240zM461 655h483l-221 600l-14 -2q-53 -91 -132.5 -282t-115.5 -316zM539 1720l327 207l117 -135l-362 -174z" />
<glyph unicode="&#xc2;" horiz-adv-x="1458" d="M53 0q122 474 252 819q151 403 318 654l251 8l553 -1481h-237l-184 489h-592q-47 -135 -121 -489h-240zM449 1720l286 195l285 -195l-80 -98l-205 121l-205 -121zM461 655h483l-221 600l-14 -2q-53 -91 -132.5 -282t-115.5 -316z" />
<glyph unicode="&#xc3;" horiz-adv-x="1458" d="M53 0q122 474 252 819q151 403 318 654l251 8l553 -1481h-237l-184 489h-592q-47 -135 -121 -489h-240zM393 1710q14 41 35 82t56 79t69 38q42 0 185.5 -41t179.5 -41q35 0 131 69l59 -69q-122 -197 -190 -197q-49 0 -187 46t-188 46q-26 0 -90 -82zM461 655h483 l-221 600l-14 -2q-53 -91 -132.5 -282t-115.5 -316z" />
<glyph unicode="&#xc4;" horiz-adv-x="1458" d="M53 0q122 474 252 819q151 403 318 654l251 8l553 -1481h-237l-184 489h-592q-47 -135 -121 -489h-240zM424 1743q0 53 33 84t86 31t86 -31t33 -84q0 -49 -33 -80t-86 -31t-86 31t-33 80zM461 655h483l-221 600l-14 -2q-53 -91 -132.5 -282t-115.5 -316zM838 1743 q0 53 32.5 84t85.5 31t86 -31t33 -84q0 -49 -33 -80t-86 -31t-85.5 31t-32.5 80z" />
<glyph unicode="&#xc5;" horiz-adv-x="1458" d="M53 0q122 474 252 819q151 403 318 654l251 8l553 -1481h-237l-184 489h-592q-47 -135 -121 -489h-240zM461 655h483l-221 600l-14 -2q-53 -91 -132.5 -282t-115.5 -316zM504 1741q0 102 64 161.5t169 59.5q100 0 165 -60t65 -161q0 -95 -66 -158t-164 -63 q-103 0 -168 62.5t-65 158.5zM614 1741q0 -45 33.5 -82t89.5 -37q49 0 84 37.5t35 81.5q0 55 -34 89t-85 34q-52 0 -87.5 -34.5t-35.5 -88.5z" />
<glyph unicode="&#xc6;" horiz-adv-x="1994" d="M53 0q15 43 47.5 138.5t54 158t62.5 166.5t78.5 185t96 190.5t122 205.5t149 208.5t183.5 220.5h1028l-2 -170l-674 12v-492l614 4l-2 -165l-612 4v-504l680 16l-2 -178h-897v489h-528q-63 -162 -152 -489h-246zM514 655h465v668l-16 -2q-151 -168 -247 -315.5 t-202 -350.5z" />
<glyph unicode="&#xc7;" horiz-adv-x="1331" d="M115 741q0 173 54 314.5t150 236t230 146t293 51.5q207 0 387 -98l-70 -164q-182 82 -330 82q-68 0 -130.5 -13.5t-129.5 -51t-115.5 -97.5t-80 -161.5t-31.5 -233.5q0 -98 17 -181.5t57.5 -156.5t103 -124t156.5 -80.5t215 -29.5q151 0 301 62l47 -166 q-220 -105 -414 -105q-21 0 -37 2q-6 -27 -6 -55q0 -12 2 -18q84 -34 84 -127q0 -91 -86 -149t-237 -58l-23 110q89 0 142 24t53 73q0 41 -30.5 61.5t-80.5 20.5q0 23 8.5 68t18.5 67q-244 54 -381 252t-137 499z" />
<glyph unicode="&#xc8;" horiz-adv-x="1196" d="M180 0v1473h895l-2 -170l-674 12v-492l615 4l-2 -165l-613 4v-504l680 16l-2 -178h-897zM406 1794l116 135l328 -207l-82 -102z" />
<glyph unicode="&#xc9;" horiz-adv-x="1196" d="M180 0v1473h895l-2 -170l-674 12v-492l615 4l-2 -165l-613 4v-504l680 16l-2 -178h-897zM408 1722l327 207l117 -135l-363 -174z" />
<glyph unicode="&#xca;" horiz-adv-x="1196" d="M180 0v1473h895l-2 -170l-674 12v-492l615 4v-165l-615 4v-504l680 16v-178h-899zM332 1720l286 195l285 -195l-80 -98l-205 121l-204 -121z" />
<glyph unicode="&#xcb;" horiz-adv-x="1196" d="M180 0v1473h895l-2 -170l-674 12v-492l615 4v-165l-615 4v-504l680 16v-178h-899zM322 1743q0 53 32.5 84t85.5 31t86 -31t33 -84q0 -49 -33 -80t-86 -31t-85.5 31t-32.5 80zM735 1743q0 53 33 84t86 31t86 -31t33 -84q0 -49 -33 -80t-86 -31t-86 31t-33 80z" />
<glyph unicode="&#xcc;" horiz-adv-x="579" d="M180 1794l117 135l328 -207l-82 -102zM352 0v1473h219v-1473h-219z" />
<glyph unicode="&#xcd;" horiz-adv-x="579" d="M180 1720l328 207l117 -135l-363 -174zM207 0v1473h219v-1473h-219z" />
<glyph unicode="&#xce;" horiz-adv-x="579" d="M180 1720l287 195l285 -195l-80 -98l-205 121l-205 -121zM356 0v1473h219v-1473h-219z" />
<glyph unicode="&#xcf;" horiz-adv-x="579" d="M180 1733q0 53 33 83.5t86 30.5t86 -30.5t33 -83.5q0 -49 -33 -80t-86 -31t-86 31t-33 80zM397 0v1473h219v-1473h-219zM594 1733q0 53 33 83.5t86 30.5t85.5 -30.5t32.5 -83.5q0 -49 -32.5 -80t-85.5 -31t-86 31t-33 80z" />
<glyph unicode="&#xd1;" horiz-adv-x="1546" d="M180 0v1473h326q43 -82 154 -279.5t180 -333.5q7 -15 59.5 -113.5t123.5 -234.5t138 -270h13q-13 282 -13 645l2 586h203v-1473h-305q-9 15 -58 95.5t-69.5 116t-65 114t-90.5 165.5t-100 195q-11 22 -86.5 169t-128 255.5t-66.5 151.5h-12q10 -317 10 -672v-590h-215z M467 1710q14 41 35 82t56 79t69 38q42 0 185 -41t179 -41q35 0 131 69l60 -69q-122 -197 -191 -197q-49 0 -187 46t-188 46q-26 0 -90 -82z" />
<glyph unicode="&#xd2;" horiz-adv-x="1597" d="M115 743q0 210 83.5 379t240 268t358.5 99q313 0 499.5 -199.5t186.5 -546.5q0 -354 -184 -563t-506 -209q-329 0 -503.5 206t-174.5 566zM344 743q0 -86 13 -166.5t45.5 -161t82 -139.5t129 -96t179.5 -37q104 0 186 37t132.5 96t83.5 139.5t45.5 160.5t12.5 167 q0 114 -25.5 214.5t-78 183.5t-143 131.5t-209.5 48.5q-117 0 -206.5 -48.5t-142 -131.5t-78.5 -183.5t-26 -214.5zM578 1792l116 135l328 -207l-82 -102z" />
<glyph unicode="&#xd3;" horiz-adv-x="1597" d="M115 743q0 210 83.5 379t240 268t358.5 99q313 0 499.5 -199.5t186.5 -546.5q0 -354 -184 -563t-506 -209q-329 0 -503.5 206t-174.5 566zM344 743q0 -86 13 -166.5t45.5 -161t82 -139.5t129 -96t179.5 -37q104 0 186 37t132.5 96t83.5 139.5t45.5 160.5t12.5 167 q0 114 -25.5 214.5t-78 183.5t-143 131.5t-209.5 48.5q-117 0 -206.5 -48.5t-142 -131.5t-78.5 -183.5t-26 -214.5zM578 1722l327 207l117 -135l-363 -174z" />
<glyph unicode="&#xd4;" horiz-adv-x="1597" d="M115 743q0 210 83.5 379t240 268t358.5 99q313 0 499.5 -199.5t186.5 -546.5q0 -354 -184 -563t-506 -209q-329 0 -503.5 206t-174.5 566zM344 743q0 -86 13 -166.5t45.5 -161t82 -139.5t129 -96t179.5 -37q104 0 186 37t132.5 96t83.5 139.5t45.5 160.5t12.5 167 q0 114 -25.5 214.5t-78 183.5t-143 131.5t-209.5 48.5q-117 0 -206.5 -48.5t-142 -131.5t-78.5 -183.5t-26 -214.5zM512 1720l287 195l284 -195l-79 -98l-205 121l-205 -121z" />
<glyph unicode="&#xd5;" horiz-adv-x="1597" d="M115 743q0 210 83.5 379t240 268t358.5 99q313 0 499.5 -199.5t186.5 -546.5q0 -354 -184 -563t-506 -209q-329 0 -503.5 206t-174.5 566zM344 743q0 -86 13 -166.5t45.5 -161t82 -139.5t129 -96t179.5 -37q104 0 186 37t132.5 96t83.5 139.5t45.5 160.5t12.5 167 q0 114 -25.5 214.5t-78 183.5t-143 131.5t-209.5 48.5q-117 0 -206.5 -48.5t-142 -131.5t-78.5 -183.5t-26 -214.5zM442 1710q14 41 35 82t56 79t69 38q42 0 185.5 -41t179.5 -41q35 0 131 69l59 -69q-122 -197 -190 -197q-49 0 -187 46t-188 46q-26 0 -90 -82z" />
<glyph unicode="&#xd6;" horiz-adv-x="1597" d="M115 743q0 210 83.5 379t240 268t358.5 99q313 0 499.5 -199.5t186.5 -546.5q0 -354 -184 -563t-506 -209q-329 0 -503.5 206t-174.5 566zM344 743q0 -86 13 -166.5t45.5 -161t82 -139.5t129 -96t179.5 -37q104 0 186 37t132.5 96t83.5 139.5t45.5 160.5t12.5 167 q0 114 -25.5 214.5t-78 183.5t-143 131.5t-209.5 48.5q-117 0 -206.5 -48.5t-142 -131.5t-78.5 -183.5t-26 -214.5zM473 1743q0 53 33 84t86 31t86 -31t33 -84q0 -49 -33 -80t-86 -31t-86 31t-33 80zM887 1743q0 53 33 84t86 31t85.5 -31t32.5 -84q0 -49 -32.5 -80 t-85.5 -31t-86 31t-33 80z" />
<glyph unicode="&#xd7;" horiz-adv-x="1112" d="M98 223l346 344l-327 332l112 117l332 -336l338 336l109 -113l-336 -334l338 -342l-113 -116l-342 346l-348 -346z" />
<glyph unicode="&#xd8;" horiz-adv-x="1593" d="M113 745q0 209 83.5 378t240 267.5t358.5 98.5q92 0 192 -23l53 140l131 -56l-49 -133q170 -83 264.5 -256.5t94.5 -415.5q0 -354 -184 -563t-506 -209q-108 0 -203 25l-60 -164l-141 53l62 162q-165 89 -250.5 267.5t-85.5 428.5zM342 745q0 -152 42.5 -287.5 t135.5 -217.5l406 1063q-62 18 -131 18q-94 0 -171 -32t-128.5 -86.5t-87 -128.5t-51 -156.5t-15.5 -172.5zM651 166q61 -21 140 -21q104 0 186 37t132.5 96t83.5 139.5t45.5 160.5t12.5 167q0 158 -48.5 290t-147.5 206z" />
<glyph unicode="&#xd9;" horiz-adv-x="1503" d="M174 649v824h221v-826q0 -83 7 -148.5t30 -135t60.5 -115.5t104 -75.5t155.5 -29.5t155 29.5t104 75.5t60.5 115.5t29.5 135t7 148.5v826h221v-824q0 -678 -577 -678q-578 0 -578 678zM530 1792l117 135l328 -207l-82 -102z" />
<glyph unicode="&#xda;" horiz-adv-x="1503" d="M174 649v824h221v-826q0 -83 7 -148.5t30 -135t60.5 -115.5t104 -75.5t155.5 -29.5t155 29.5t104 75.5t60.5 115.5t29.5 135t7 148.5v826h221v-824q0 -678 -577 -678q-578 0 -578 678zM530 1722l328 207l117 -135l-363 -174z" />
<glyph unicode="&#xdb;" horiz-adv-x="1503" d="M174 649v824h221v-826q0 -83 7 -148.5t30 -135t60.5 -115.5t104 -75.5t155.5 -29.5t155 29.5t104 75.5t60.5 115.5t29.5 135t7 148.5v826h221v-824q0 -678 -577 -678q-578 0 -578 678zM465 1720l287 195l284 -195l-80 -98l-204 121l-205 -121z" />
<glyph unicode="&#xdc;" horiz-adv-x="1503" d="M174 649v824h221v-826q0 -83 7 -148.5t30 -135t60.5 -115.5t104 -75.5t155.5 -29.5t155 29.5t104 75.5t60.5 115.5t29.5 135t7 148.5v826h221v-824q0 -678 -577 -678q-578 0 -578 678zM440 1743q0 53 33 84t86 31t86 -31t33 -84q0 -49 -33 -80t-86 -31t-86 31t-33 80z M854 1743q0 53 33 84t86 31t86 -31t33 -84q0 -49 -33 -80t-86 -31t-86 31t-33 80z" />
<glyph unicode="&#xdd;" horiz-adv-x="1171" d="M72 1473h213q32 -263 137 -498q88 -202 223 -361l287 859h203l-482 -1473h-207l138 410q-205 158 -346 481q-113 257 -166 582zM381 1722l328 207l116 -135l-362 -174z" />
<glyph unicode="&#xdf;" horiz-adv-x="1370" d="M221 0v1149q0 201 124 300t355 99q73 0 142.5 -15.5t133 -47.5t102 -89t38.5 -132q0 -45 -13 -87t-27.5 -66.5t-39.5 -59.5q-3 -4 -13 -17.5t-14 -18.5t-12.5 -17t-12 -18.5t-9.5 -18t-9 -20t-6.5 -19.5t-4.5 -22t-1 -23q0 -35 19.5 -65.5t50.5 -55t68.5 -50.5 t74.5 -57.5t68 -69t50.5 -91.5t19.5 -119q0 -69 -28.5 -135.5t-82.5 -122.5t-143 -90.5t-199 -34.5q-128 0 -225 51l22 180q98 -61 207 -61q106 0 167.5 46.5t61.5 143.5q0 42 -19.5 80t-50.5 68t-68.5 59.5t-75 60.5t-68.5 64.5t-50.5 78t-19.5 95.5q0 39 15 77.5t27 56 t42 58.5q41 52 62.5 96t21.5 101q0 67 -54.5 108.5t-146.5 41.5q-110 0 -189 -63t-79 -179v-1149h-211z" />
<glyph unicode="&#xe0;" horiz-adv-x="1171" d="M106 358q0 75 17 172q358 150 670 150v68q0 109 -64 161t-160 52q-160 0 -381 -84l-22 170q188 69 391 69q215 0 334 -77t119 -238v-266q0 -343 34 -535h-213q-18 74 -18 139q0 42 6 101l-8 4q-20 -44 -38.5 -77t-51 -72.5t-68.5 -64.5t-90.5 -42t-118.5 -17 q-149 0 -243.5 105.5t-94.5 281.5zM297 383q-7 -130 49 -193t133 -63q84 0 158 66.5t115 162t41 187.5q-126 0 -257.5 -36t-236.5 -89zM393 1438l117 135l328 -207l-82 -102z" />
<glyph unicode="&#xe1;" horiz-adv-x="1171" d="M106 358q0 75 17 172q358 150 670 150v68q0 109 -64 161t-160 52q-160 0 -381 -84l-22 170q188 69 391 69q215 0 334 -77t119 -238v-266q0 -343 34 -535h-213q-18 74 -18 139q0 42 6 101l-8 4q-20 -44 -38.5 -77t-51 -72.5t-68.5 -64.5t-90.5 -42t-118.5 -17 q-149 0 -243.5 105.5t-94.5 281.5zM297 383q-7 -130 49 -193t133 -63q84 0 158 66.5t115 162t41 187.5q-126 0 -257.5 -36t-236.5 -89zM354 1366l328 207l117 -135l-363 -174z" />
<glyph unicode="&#xe2;" horiz-adv-x="1171" d="M106 358q0 75 17 172q358 150 670 150v68q0 109 -64 161t-160 52q-160 0 -381 -84l-22 170q188 69 391 69q215 0 334 -77t119 -238v-266q0 -343 34 -535h-213q-18 74 -18 139q0 42 6 101l-8 4q-20 -44 -38.5 -77t-51 -72.5t-68.5 -64.5t-90.5 -42t-118.5 -17 q-149 0 -243.5 105.5t-94.5 281.5zM297 383q-7 -130 49 -193t133 -63q84 0 158 66.5t115 162t41 187.5q-126 0 -257.5 -36t-236.5 -89zM297 1366l287 195l284 -195l-80 -98l-204 121l-205 -121z" />
<glyph unicode="&#xe3;" horiz-adv-x="1171" d="M106 358q0 75 17 172q358 150 670 150v68q0 109 -64 161t-160 52q-160 0 -381 -84l-22 170q188 69 391 69q215 0 334 -77t119 -238v-266q0 -343 34 -535h-213q-14 59 -16.5 107t4.5 133l-8 4q-20 -44 -38.5 -77t-51 -72.5t-68.5 -64.5t-90.5 -42t-118.5 -17 q-149 0 -243.5 105.5t-94.5 281.5zM236 1352q14 41 34.5 81.5t55.5 78.5t69 38q42 0 185.5 -41t179.5 -41q34 0 131 70l59 -70q-121 -196 -190 -196q-49 0 -187 46t-188 46q-26 0 -90 -82zM297 383q0 -132 53.5 -194t128.5 -62q84 0 158 66.5t115 162t41 187.5 q-126 0 -257.5 -36t-236.5 -89z" />
<glyph unicode="&#xe4;" horiz-adv-x="1171" d="M106 358q0 75 17 172q358 150 670 150v68q0 109 -64 161t-160 52q-160 0 -381 -84l-22 170q188 69 391 69q215 0 334 -77t119 -238v-266q0 -343 34 -535h-213q-18 88 -18 139q0 42 6 101l-8 4q-20 -44 -38.5 -77t-51 -72.5t-68.5 -64.5t-90.5 -42t-118.5 -17 q-149 0 -243.5 105.5t-94.5 281.5zM295 1413q0 53 33 84t86 31t85.5 -31t32.5 -84q0 -49 -32.5 -79.5t-85.5 -30.5t-86 30.5t-33 79.5zM297 383q-7 -130 49 -193t133 -63q84 0 158 66.5t115 162t41 187.5q-126 0 -257.5 -36t-236.5 -89zM709 1413q0 53 32.5 84t85.5 31 t86 -31t33 -84q0 -49 -33 -79.5t-86 -30.5t-85.5 30.5t-32.5 79.5z" />
<glyph unicode="&#xe5;" horiz-adv-x="1171" d="M106 358q0 75 17 172q358 150 670 150v68q0 109 -64 161t-160 52q-160 0 -381 -84l-22 170q188 69 391 69q215 0 334 -77t119 -238v-266q0 -343 34 -535h-213q-18 88 -18 139q0 42 6 101l-8 4q-20 -44 -38.5 -77t-51 -72.5t-68.5 -64.5t-90.5 -42t-118.5 -17 q-149 0 -243.5 105.5t-94.5 281.5zM297 383q-7 -130 49 -193t133 -63q84 0 158 66.5t115 162t41 187.5q-126 0 -257.5 -36t-236.5 -89zM350 1411q0 102 64.5 161.5t169.5 59.5q100 0 164.5 -60t64.5 -161q0 -95 -65.5 -158t-163.5 -63q-103 0 -168.5 62.5t-65.5 158.5z M461 1411q0 -45 33.5 -82t89.5 -37q49 0 83.5 37.5t34.5 81.5q0 55 -34 89t-84 34q-52 0 -87.5 -34.5t-35.5 -88.5z" />
<glyph unicode="&#xe6;" horiz-adv-x="1859" d="M106 358q0 51 17 172q358 150 670 150v68q0 109 -64 161t-160 52q-160 0 -381 -84l-22 170q188 69 391 69q297 0 408 -147q157 147 372 147q111 0 192.5 -29.5t129.5 -84t71 -124t23 -155.5q0 -112 -8 -184q-268 -47 -569 -47q-111 0 -160 4q0 -47 10.5 -91.5t37 -91 t67 -81t106.5 -56.5t149 -22q152 0 293 65l33 -135q-183 -113 -397 -113q-175 0 -292 82t-169 209q-17 -39 -41 -76.5t-61.5 -77t-81 -69.5t-102.5 -49t-124 -19q-149 0 -243.5 105.5t-94.5 281.5zM299 383q0 -111 43.5 -183.5t136.5 -72.5q84 0 158 66.5t115 162t41 187.5 q-126 0 -257.5 -36t-236.5 -89v-35zM1016 641h51q296 0 487 35l2 55q0 107 -56 171.5t-163 64.5q-134 0 -216 -90t-105 -236z" />
<glyph unicode="&#xe7;" horiz-adv-x="1079" d="M104 543q0 253 158.5 413t409.5 160q78 0 171.5 -24t176.5 -72l-68 -148q-156 86 -290 86q-67 0 -124 -21.5t-105 -67.5t-75.5 -128t-27.5 -192q0 -61 10.5 -115t37.5 -107t69 -91.5t109 -62t153 -23.5q124 0 254 57l43 -150q-171 -83 -361 -86q-6 -27 -6 -53 q0 -12 2 -18q84 -34 84 -127q0 -91 -86.5 -149t-237.5 -58l-22 110q89 0 141.5 24t52.5 73q0 41 -30 61.5t-80 20.5q0 24 8 67.5t18 65.5q-184 42 -284.5 189.5t-100.5 365.5z" />
<glyph unicode="&#xe8;" horiz-adv-x="1173" d="M104 543q0 165 74.5 297t199 204t273.5 72q111 0 192.5 -29.5t129.5 -84t71 -124t23 -155.5q0 -112 -8 -184q-268 -47 -570 -47q-110 0 -159 4q0 -47 10.5 -91.5t37 -91t67 -81t106.5 -56.5t149 -22q152 0 293 65l33 -135q-183 -113 -397 -113q-243 0 -384 157t-141 415z M330 641h51q296 0 487 35l2 55q0 107 -56 171.5t-163 64.5q-134 0 -216 -90t-105 -236zM332 1438l117 135l327 -207l-82 -102z" />
<glyph unicode="&#xe9;" horiz-adv-x="1173" d="M104 543q0 165 74.5 297t199 204t273.5 72q111 0 192.5 -29.5t129.5 -84t71 -124t23 -155.5q0 -112 -8 -184q-268 -47 -570 -47q-110 0 -159 4q0 -47 10.5 -91.5t37 -91t67 -81t106.5 -56.5t149 -22q152 0 293 65l33 -135q-183 -113 -397 -113q-243 0 -384 157t-141 415z M330 641h51q296 0 487 35l2 55q0 107 -56 171.5t-163 64.5q-134 0 -216 -90t-105 -236zM389 1366l328 207l117 -135l-363 -174z" />
<glyph unicode="&#xea;" horiz-adv-x="1173" d="M104 543q0 165 74.5 297t199 204t273.5 72q111 0 192.5 -29.5t129.5 -84t71 -124t23 -155.5q0 -112 -8 -184q-268 -47 -570 -47q-110 0 -159 4q0 -47 10.5 -91.5t37 -91t67 -81t106.5 -56.5t149 -22q152 0 293 65l33 -135q-183 -113 -397 -113q-243 0 -384 157t-141 415z M305 1366l287 195l285 -195l-80 -98l-205 121l-205 -121zM330 641h51q296 0 487 35l2 55q0 107 -56 171.5t-163 64.5q-134 0 -216 -90t-105 -236z" />
<glyph unicode="&#xeb;" horiz-adv-x="1173" d="M104 543q0 165 74.5 297t199 204t273.5 72q111 0 192.5 -29.5t129.5 -84t71 -124t23 -155.5q0 -112 -8 -184q-268 -47 -570 -47q-110 0 -159 4q0 -47 10.5 -91.5t37 -91t67 -81t106.5 -56.5t149 -22q152 0 293 65l33 -135q-183 -113 -397 -113q-243 0 -384 157t-141 415z M315 1413q0 53 33 84t86 31t86 -31t33 -84q0 -49 -33 -79.5t-86 -30.5t-86 30.5t-33 79.5zM330 641h51q296 0 487 35l2 55q0 107 -56 171.5t-163 64.5q-134 0 -216 -90t-105 -236zM729 1413q0 53 33 84t86 31t86 -31t33 -84q0 -49 -33 -79.5t-86 -30.5t-86 30.5t-33 79.5z " />
<glyph unicode="&#xec;" horiz-adv-x="555" d="M-16 1438l116 135l328 -207l-82 -102zM174 535v552h217v-552q0 -338 35 -535h-217q-35 158 -35 535z" />
<glyph unicode="&#xed;" horiz-adv-x="555" d="M131 1366l328 207l116 -135l-362 -174zM172 535v552h217v-552q0 -338 35 -535h-217q-35 158 -35 535z" />
<glyph unicode="&#xee;" horiz-adv-x="555" d="M150 1366l286 195l285 -195l-80 -98l-205 121l-205 -121zM319 535v552h218v-552q0 -343 34 -535h-217q-35 158 -35 535z" />
<glyph unicode="&#xef;" horiz-adv-x="555" d="M-47 1413q0 53 33 84t86 31t85.5 -31t32.5 -84q0 -49 -32.5 -79.5t-85.5 -30.5t-86 30.5t-33 79.5zM170 535v552h217v-552q0 -338 35 -535h-217q-35 158 -35 535zM367 1413q0 53 32.5 84t85.5 31t86 -31t33 -84q0 -49 -33 -79.5t-86 -30.5t-85.5 30.5t-32.5 79.5z" />
<glyph unicode="&#xf1;" horiz-adv-x="1273" d="M143 1087h213q19 -78 19 -139q0 -42 -6 -106l8 -4q65 138 155 208t226 70q372 0 372 -434v-682h-217v682q0 149 -46.5 212.5t-118.5 63.5q-155 0 -254 -184t-99 -471v-303h-217v553q0 337 -35 534zM307 1352q14 41 35 82t56 78.5t69 37.5q42 0 185 -41t179 -41 q35 0 132 70l59 -70q-121 -196 -191 -196q-49 0 -186.5 46t-187.5 46q-26 0 -90 -82z" />
<glyph unicode="&#xf2;" horiz-adv-x="1269" d="M104 563q0 246 150 399.5t381 153.5q129 0 231 -41.5t166.5 -116t98.5 -175t34 -220.5q0 -277 -141 -434.5t-387 -157.5q-258 0 -395.5 156t-137.5 436zM330 563q0 -202 78 -315t229 -113q303 0 303 428q0 395 -305 395q-150 0 -227.5 -102.5t-77.5 -292.5zM412 1438 l116 135l328 -207l-82 -102z" />
<glyph unicode="&#xf3;" horiz-adv-x="1269" d="M104 563q0 246 150 399.5t381 153.5q129 0 231 -41.5t166.5 -116t98.5 -175t34 -220.5q0 -277 -141 -434.5t-387 -157.5q-258 0 -395.5 156t-137.5 436zM330 563q0 -202 78 -315t229 -113q303 0 303 428q0 395 -305 395q-150 0 -227.5 -102.5t-77.5 -292.5zM412 1366 l327 207l117 -135l-362 -174z" />
<glyph unicode="&#xf4;" horiz-adv-x="1269" d="M104 563q0 246 150 399.5t381 153.5q129 0 231 -41.5t166.5 -116t98.5 -175t34 -220.5q0 -277 -141 -434.5t-387 -157.5q-258 0 -395.5 156t-137.5 436zM330 563q0 -202 78 -315t229 -113q303 0 303 428q0 395 -305 395q-150 0 -227.5 -102.5t-77.5 -292.5zM348 1366 l287 195l285 -195l-80 -98l-205 121l-205 -121z" />
<glyph unicode="&#xf5;" horiz-adv-x="1269" d="M104 563q0 246 150 399.5t381 153.5q129 0 231 -41.5t166.5 -116t98.5 -175t34 -220.5q0 -277 -141 -434.5t-387 -157.5q-258 0 -395.5 156t-137.5 436zM279 1352q14 41 34.5 81.5t55.5 78.5t69 38q42 0 185.5 -41t179.5 -41q34 0 131 70l59 -70q-121 -196 -190 -196 q-49 0 -187 46t-188 46q-26 0 -90 -82zM330 563q0 -202 78 -315t229 -113q303 0 303 428q0 395 -305 395q-150 0 -227.5 -102.5t-77.5 -292.5z" />
<glyph unicode="&#xf6;" horiz-adv-x="1269" d="M104 563q0 246 150 399.5t381 153.5q129 0 231 -41.5t166.5 -116t98.5 -175t34 -220.5q0 -277 -141 -434.5t-387 -157.5q-258 0 -395.5 156t-137.5 436zM309 1413q0 53 33 84t86 31t86 -31t33 -84q0 -49 -33 -79.5t-86 -30.5t-86 30.5t-33 79.5zM330 563q0 -202 78 -315 t229 -113q303 0 303 428q0 395 -305 395q-150 0 -227.5 -102.5t-77.5 -292.5zM723 1413q0 53 33 84t86 31t86 -31t33 -84q0 -49 -33 -79.5t-86 -30.5t-86 30.5t-33 79.5z" />
<glyph unicode="&#xf7;" horiz-adv-x="1286" d="M119 475l4 170h1040l4 -170h-1048zM496 115q0 65 38.5 101t102.5 36t102.5 -36t38.5 -101q0 -60 -39 -96.5t-102 -36.5t-102 36.5t-39 96.5zM496 999q0 64 38.5 101t102.5 37t102.5 -37t38.5 -101q0 -60 -39 -96.5t-102 -36.5t-102 36.5t-39 96.5z" />
<glyph unicode="&#xf8;" horiz-adv-x="1269" d="M104 563q0 246 150 399.5t381 153.5q79 0 139 -14l55 145l121 -49l-53 -139q131 -65 199.5 -194.5t68.5 -301.5q0 -277 -141 -434.5t-387 -157.5q-62 0 -143 15l-64 -168l-131 47l63 168q-127 67 -192.5 202t-65.5 328zM330 563q0 -238 104 -348l281 735q-50 8 -80 8 q-150 0 -227.5 -102.5t-77.5 -292.5zM553 145q34 -10 84 -10q303 0 303 428q0 230 -106 328z" />
<glyph unicode="&#xf9;" horiz-adv-x="1280" d="M158 406v681h217v-681q0 -277 166 -277q98 0 177 83t124 233.5t45 338.5v303h217v-552q0 -338 35 -535h-213q-21 91 -13 246l-8 4q-63 -123 -160 -201t-215 -78q-372 0 -372 435zM426 1438l117 135l327 -207l-82 -102z" />
<glyph unicode="&#xfa;" horiz-adv-x="1280" d="M158 406v681h217v-681q0 -277 166 -277q98 0 177 83t124 233.5t45 338.5v303h217v-552q0 -338 35 -535h-213q-21 91 -13 246l-8 4q-63 -123 -160 -201t-215 -78q-372 0 -372 435zM426 1366l328 207l116 -135l-362 -174z" />
<glyph unicode="&#xfb;" horiz-adv-x="1280" d="M158 406v681h217v-681q0 -277 166 -277q98 0 177 83t124 233.5t45 338.5v303h217v-552q0 -338 35 -535h-213q-17 80 -17 143q0 21 4 103l-8 4q-63 -123 -160 -201t-215 -78q-372 0 -372 435zM342 1366l287 195l284 -195l-79 -98l-205 121l-205 -121z" />
<glyph unicode="&#xfc;" horiz-adv-x="1280" d="M158 406v681h217v-681q0 -277 166 -277q98 0 177 83t124 233.5t45 338.5v303h217v-552q0 -338 35 -535h-213q-14 52 -17 143q0 21 4 103l-8 4q-63 -123 -160 -201t-215 -78q-372 0 -372 435zM303 1413q0 53 33 84t86 31t86 -31t33 -84q0 -49 -33 -79.5t-86 -30.5 t-86 30.5t-33 79.5zM717 1413q0 53 33 84t86 31t85.5 -31t32.5 -84q0 -49 -32.5 -79.5t-85.5 -30.5t-86 30.5t-33 79.5z" />
<glyph unicode="&#xfd;" horiz-adv-x="1077" d="M86 1087h205q15 -270 102 -499q52 -133 119 -212t133 -79q97 330 195 790h188q-205 -1031 -379 -1253q-92 -117 -213 -180.5t-243 -63.5q-55 0 -95 15l21 186q31 -8 71 -8q111 0 225.5 87.5t166.5 225.5q-253 39 -387 410q-85 233 -109 581zM336 1366l328 207l116 -135 l-362 -174z" />
<glyph unicode="&#xff;" horiz-adv-x="1077" d="M86 1087h205q15 -270 102 -499q52 -133 119 -212t133 -79q97 330 195 790h188q-205 -1031 -379 -1253q-92 -117 -213 -180.5t-243 -63.5q-55 0 -95 15l21 186q31 -8 71 -8q111 0 225.5 87.5t166.5 225.5q-253 39 -387 410q-85 233 -109 581zM240 1382q0 53 32.5 84 t85.5 31t86 -31t33 -84q0 -49 -33 -79.5t-86 -30.5t-85.5 30.5t-32.5 79.5zM653 1382q0 53 33 84t86 31t86 -31t33 -84q0 -49 -33 -79.5t-86 -30.5t-86 30.5t-33 79.5z" />
<glyph unicode="&#x152;" horiz-adv-x="1939" d="M115 745q0 209 83.5 375t240 261.5t358.5 95.5q27 0 83 -2t78 -2h871v-158h-674v-488h612v-161h-612v-488h678v-178h-827q-54 0 -125 -6q-17 -1 -61 -3.5t-60 -2.5q-209 0 -355.5 94.5t-218 263t-71.5 399.5zM338 745q0 -65 9 -129t28 -132.5t53.5 -126t81.5 -104 t116.5 -73t153.5 -26.5q101 0 156 10v1141q-55 8 -139 8q-117 0 -207.5 -47t-144 -128t-80.5 -180.5t-27 -212.5z" />
<glyph unicode="&#x153;" horiz-adv-x="2004" d="M104 563q0 246 150 399.5t381 153.5q313 0 426 -225q56 91 162.5 158t249.5 67q215 0 315 -106.5t100 -286.5q0 -112 -8 -184q-268 -47 -569 -47q-111 0 -160 4q0 -47 10.5 -91.5t37.5 -91t67.5 -81t106.5 -56.5t149 -22q152 0 293 65l32 -135q-183 -113 -397 -113 q-103 0 -184.5 31t-129.5 74t-96 108q-39 -67 -87 -111t-128.5 -73t-187.5 -29q-258 0 -395.5 156t-137.5 436zM324 563q0 -203 79 -315.5t234 -112.5q303 0 303 428q0 395 -305 395q-155 0 -233 -102.5t-78 -292.5zM1151 641h51q297 0 488 35l2 55q0 107 -56 171.5 t-163 64.5q-134 0 -216.5 -90t-105.5 -236z" />
<glyph unicode="&#x178;" horiz-adv-x="1171" d="M72 1473h213q32 -263 137 -498q88 -202 223 -361l287 859h203l-482 -1473h-207l138 410q-205 158 -346 481q-113 257 -166 582zM297 1767q0 53 33 84t86 31t86 -31t33 -84q0 -49 -33 -79.5t-86 -30.5t-86 30.5t-33 79.5zM711 1767q0 53 32.5 84t85.5 31t86 -31t33 -84 q0 -49 -33 -79.5t-86 -30.5t-85.5 30.5t-32.5 79.5z" />
<glyph unicode="&#x2c6;" horiz-adv-x="780" d="M104 1366l287 195l285 -195l-80 -98l-205 121l-205 -121z" />
<glyph unicode="&#x2dc;" horiz-adv-x="966" d="M123 1352q14 41 35 82t56 78.5t69 37.5q42 0 185 -41t179 -41q34 0 131 70l60 -70q-121 -196 -191 -196q-49 0 -187 46t-188 46q-26 0 -90 -82z" />
<glyph unicode="&#x2000;" horiz-adv-x="981" />
<glyph unicode="&#x2001;" horiz-adv-x="1962" />
<glyph unicode="&#x2002;" horiz-adv-x="981" />
<glyph unicode="&#x2003;" horiz-adv-x="1962" />
<glyph unicode="&#x2004;" horiz-adv-x="654" />
<glyph unicode="&#x2005;" horiz-adv-x="490" />
<glyph unicode="&#x2006;" horiz-adv-x="327" />
<glyph unicode="&#x2007;" horiz-adv-x="327" />
<glyph unicode="&#x2008;" horiz-adv-x="245" />
<glyph unicode="&#x2009;" horiz-adv-x="392" />
<glyph unicode="&#x200a;" horiz-adv-x="109" />
<glyph unicode="&#x2010;" horiz-adv-x="788" d="M94 571l4 154h592l4 -154h-600z" />
<glyph unicode="&#x2011;" horiz-adv-x="788" d="M94 571l4 154h592l4 -154h-600z" />
<glyph unicode="&#x2012;" horiz-adv-x="788" d="M94 571l4 154h592l4 -154h-600z" />
<glyph unicode="&#x2013;" horiz-adv-x="1038" d="M0 608l4 166h1030l4 -166h-1038z" />
<glyph unicode="&#x2014;" horiz-adv-x="2066" d="M0 608l4 166h2058l4 -166h-2066z" />
<glyph unicode="&#x2018;" horiz-adv-x="440" d="M82 1100q35 154 71.5 262t90.5 207l143 -43q-51 -169 -102 -426h-203z" />
<glyph unicode="&#x2019;" horiz-adv-x="440" d="M53 1143q54 179 103 426h202q-36 -156 -72 -263t-89 -206z" />
<glyph unicode="&#x201a;" horiz-adv-x="432" d="M53 -199q58 195 103 418h194q-34 -150 -70.5 -255t-91.5 -206z" />
<glyph unicode="&#x201c;" horiz-adv-x="796" d="M82 1100q35 154 71.5 262t90.5 207l143 -43q-51 -169 -102 -426h-203zM438 1100q35 154 71.5 262t90.5 207l143 -43q-51 -169 -102 -426h-203z" />
<glyph unicode="&#x201d;" horiz-adv-x="796" d="M53 1143q54 179 103 426h202q-36 -156 -72 -263t-89 -206zM410 1143q51 169 102 426h203q-35 -154 -71.5 -262t-90.5 -207z" />
<glyph unicode="&#x201e;" horiz-adv-x="780" d="M53 -199q58 195 103 418h194q-34 -150 -70.5 -255t-91.5 -206zM401 -199q58 195 103 418h194q-35 -152 -71 -256.5t-90 -204.5z" />
<glyph unicode="&#x2022;" horiz-adv-x="684" d="M82 594q0 117 71.5 184.5t188.5 67.5t188.5 -67.5t71.5 -184.5q0 -110 -72 -177t-188 -67t-188 67t-72 177z" />
<glyph unicode="&#x2026;" horiz-adv-x="1425" d="M106 106q0 62 38 98t100 36t99.5 -36t37.5 -98q0 -58 -37.5 -93.5t-99.5 -35.5t-100 35.5t-38 93.5zM569 106q0 62 38 98t100 36t99.5 -36t37.5 -98q0 -58 -37.5 -93.5t-99.5 -35.5t-100 35.5t-38 93.5zM1044 106q0 62 38 98t100 36t99.5 -36t37.5 -98q0 -58 -37.5 -93.5 t-99.5 -35.5t-100 35.5t-38 93.5z" />
<glyph unicode="&#x202f;" horiz-adv-x="392" />
<glyph unicode="&#x2039;" horiz-adv-x="684" d="M131 549l311 489l131 -53l-186 -440l186 -441l-131 -71z" />
<glyph unicode="&#x203a;" horiz-adv-x="684" d="M111 104l186 441l-186 440l131 53l311 -489l-311 -516z" />
<glyph unicode="&#x205f;" horiz-adv-x="490" />
<glyph unicode="&#x20ac;" d="M33 496v137h121q-4 70 -4 102q0 47 2 74h-119v137h133q40 259 194 401t404 142q120 0 237.5 -31.5t198.5 -83.5l-96 -153q-81 46 -159.5 70t-182.5 24q-147 0 -252 -102.5t-125 -266.5h533v-137h-545q-4 -50 -4 -92q0 -30 4 -84h545v-137h-529q49 -324 422 -324 q86 0 182.5 21t177.5 59l48 -158q-231 -123 -467 -123q-231 0 -380.5 130.5t-197.5 394.5h-141z" />
<glyph unicode="&#xe000;" horiz-adv-x="1085" d="M0 0v1085h1085v-1085h-1085z" />
</font>
</defs>
</svg>
