<?xml version="1.0" standalone="no"?>
<!DOCTYPE svg PUBLIC "-//W3C//DTD SVG 1.1//EN" "http://www.w3.org/Graphics/SVG/1.1/DTD/svg11.dtd" >
<svg xmlns="http://www.w3.org/2000/svg">
<metadata></metadata>
<defs>
<font id="ehusansbold" horiz-adv-x="1245" >
<font-face units-per-em="2048" ascent="1577" descent="-471" />
<missing-glyph horiz-adv-x="430" />
<glyph unicode="&#xfb01;" horiz-adv-x="1370" d="M51 893l19 168q118 27 141 31v55q0 205 98 304t330 99q212 0 500 -82l-29 -241q-77 30 -127.5 48t-139.5 39t-159 21q-46 0 -74 -6t-53 -24t-36 -55.5t-11 -96.5v-53q92 -3 375.5 -8.5t324.5 -6.5v-512q0 -367 43 -573h-299q-43 173 -43 569v314q-63 -2 -140.5 -3.5 t-156 -3t-104.5 -2.5v-874h-299v881z" />
<glyph unicode="&#xfb02;" horiz-adv-x="1370" d="M51 893l19 168q118 27 141 31v55q0 205 98 304t330 99q239 0 606 -94v-883q0 -358 45 -573h-301q-43 173 -43 569v719q-157 47 -266 47q-88 0 -129 -36t-41 -146v-53l307 -15l6 -194q-159 -14 -313 -17v-874h-299v881z" />
<glyph horiz-adv-x="0" />
<glyph horiz-adv-x="682" />
<glyph horiz-adv-x="0" />
<glyph horiz-adv-x="0" />
<glyph unicode="&#xd;" horiz-adv-x="0" />
<glyph unicode=" "  horiz-adv-x="430" />
<glyph unicode="&#x09;" horiz-adv-x="430" />
<glyph unicode="&#xa0;" horiz-adv-x="430" />
<glyph unicode="!" horiz-adv-x="708" d="M182 152q0 74 46 117.5t122 43.5q77 0 123.5 -43.5t46.5 -117.5t-46.5 -118t-123.5 -44q-76 0 -122 44t-46 118zM221 1483h289l-39 -1071l-244 -15z" />
<glyph unicode="&#x22;" horiz-adv-x="905" d="M109 1569h282l-31 -525h-227zM514 1569h283l-31 -525h-227z" />
<glyph unicode="#" horiz-adv-x="1437" d="M10 369l6 213h324l35 278h-307l6 213h325l50 389l233 6l-45 -395h231l47 389l236 6l-47 -395h309l6 -213h-340l-32 -278h309l6 -213h-340l-41 -367h-242l43 367h-227l-41 -367h-244l45 367h-305zM580 582h229l33 278h-230z" />
<glyph unicode="$" horiz-adv-x="1265" d="M76 119l69 243q77 -62 191.5 -109.5t232.5 -51.5v438q-64 21 -103.5 35t-94.5 38t-89 46t-72 54.5t-59 69t-35 85t-14 104.5q0 183 125.5 290.5t341.5 125.5v86l138 6v-90q99 -4 178 -22t178 -52l-68 -231q-173 66 -288 80v-381q63 -19 108.5 -35t99.5 -39.5t91.5 -48 t75 -59t60 -73.5t36.5 -90.5t14 -111.5q0 -89 -39 -167t-107 -133.5t-154.5 -92.5t-184.5 -53v-175l-138 -6v168q-263 0 -493 152zM408 1108q0 -64 41.5 -106t119.5 -74v334q-76 -12 -118.5 -54t-42.5 -100zM707 215q77 22 121 71t44 117q0 117 -165 189v-377z" />
<glyph unicode="%" horiz-adv-x="1835" d="M104 1081q2 165 94.5 260t264.5 95t265 -95.5t95 -259.5q0 -167 -93 -267.5t-267 -100.5t-267.5 101t-91.5 267zM291 68l999 1349l172 -125l-985 -1353zM358 1081q0 -65 25.5 -107t77.5 -42q56 0 82 41.5t26 107.5q0 138 -106 138q-52 0 -78.5 -36t-26.5 -102zM969 322 q2 163 94.5 258.5t263.5 95.5q172 0 265.5 -95.5t95.5 -258.5q0 -167 -93.5 -268t-267.5 -101t-267 101.5t-91 267.5zM1223 322q0 -67 25 -109.5t77 -42.5q56 0 82.5 43t26.5 109t-27 101.5t-80 35.5q-104 0 -104 -137z" />
<glyph unicode="&#x26;" horiz-adv-x="1605" d="M78 459q0 123 69 212.5t183 145.5v10q-25 9 -55.5 29t-68 57.5t-62.5 101t-25 140.5q0 115 72 202.5t179 130t226 42.5q146 0 285 -37l-43 -217q-116 39 -226 39q-88 0 -135 -42t-47 -118q0 -85 97.5 -130.5t273.5 -45.5q184 0 282 2q0 51 -1 154.5t-1 154.5l281 15v-320 l258 8l-12 -243l-246 -5v-43q0 -112 -23 -215t-76 -198.5t-131 -165t-197 -111t-265 -41.5q-54 0 -106 5t-112 19.5t-112 37t-101.5 61t-84 87.5t-55.5 120.5t-21 157.5zM379 471q0 -101 80.5 -167t210.5 -66q186 0 299.5 112t113.5 340v51h-389q-133 0 -224 -83t-91 -187z " />
<glyph unicode="'" horiz-adv-x="499" d="M109 1569h282l-31 -525h-227z" />
<glyph unicode="(" horiz-adv-x="716" d="M104 594q0 130 30.5 269t74.5 251.5t101.5 221.5t104 180t89.5 124l205 -129q-54 -76 -107 -177.5t-102 -222.5t-79 -258.5t-30 -260.5t30 -259.5t79 -258t102 -222t107 -178.5l-205 -129q-43 54 -89.5 125t-104 180t-101.5 222t-74.5 252.5t-30.5 269.5z" />
<glyph unicode=")" horiz-adv-x="716" d="M10 -326q54 78 106.5 178.5t101 222t78.5 258t30 259.5t-30 260.5t-78.5 259t-101.5 222.5t-106 177l203 129q42 -53 89 -124t104 -180t101.5 -221.5t74.5 -251.5t30 -269q0 -160 -43.5 -330.5t-111.5 -310.5t-128 -238.5t-116 -169.5z" />
<glyph unicode="*" horiz-adv-x="776" d="M18 1200l66 191q106 -36 205 -84l2 2q-15 146 -15 217l199 4q0 -77 -16 -221l2 -2q90 44 209 84l65 -191q-49 -14 -227 -49v-2q77 -65 166 -172l-156 -125q-107 126 -143 188h-2q-5 -7 -58.5 -79t-83.5 -109l-155 125q87 104 166 172v2q-174 35 -224 49z" />
<glyph unicode="+" horiz-adv-x="1290" d="M78 442l6 217h438v447l244 6v-453h440l6 -217h-446v-440l-244 -2v442h-444z" />
<glyph unicode="," horiz-adv-x="493" d="M55 -209q81 293 113 469h258q-35 -158 -81 -281.5t-118 -246.5z" />
<glyph unicode="-" horiz-adv-x="794" d="M78 446l8 232h619l10 -232h-637z" />
<glyph unicode="." horiz-adv-x="567" d="M113 133q0 78 47 123t125 45q79 0 126.5 -44.5t47.5 -123.5q0 -74 -48 -119t-126 -45q-77 0 -124.5 45.5t-47.5 118.5z" />
<glyph unicode="/" horiz-adv-x="829" d="M-6 35l594 1485l225 -97l-582 -1480z" />
<glyph unicode="0" d="M74 709q0 217 60.5 376.5t184 249.5t299.5 90q263 0 404 -193t141 -523q0 -216 -60 -380.5t-185 -261t-300 -96.5t-299.5 96.5t-184.5 261t-60 380.5zM371 709q0 -54 2 -98.5t8 -97.5t16.5 -94t29.5 -81.5t44.5 -67t63 -43t83.5 -16.5q53 0 94.5 20.5t68 59.5t44 84.5 t26.5 106t12 112.5t3 115t-3 113.5t-12 109t-26.5 101.5t-44 79.5t-68 56t-94.5 19.5q-54 0 -95.5 -19t-68 -56t-43.5 -80t-25.5 -101.5t-11.5 -108.5t-3 -114z" />
<glyph unicode="1" d="M285 1083l16 222q273 32 580 100v-1405h-299v1100q-162 -14 -297 -17z" />
<glyph unicode="2" d="M139 178q97 51 217 142.5t217 199.5q205 226 205 424q0 109 -57.5 178.5t-169.5 69.5q-115 0 -303 -113l-101 219q82 50 194 88.5t220 38.5q146 0 263 -54t189 -164.5t72 -262.5q0 -184 -147 -387q-31 -42 -66.5 -83.5t-72.5 -78.5t-62 -60.5t-58 -53t-38 -33.5l4 -10 l510 18l-12 -256h-957z" />
<glyph unicode="3" d="M133 123l72 235q83 -61 189.5 -107t191.5 -46q114 0 172.5 64.5t58.5 164.5q0 121 -145 162q-118 37 -363 18l-24 203q14 2 58.5 7t68.5 8t64 11.5t75 20.5q47 15 81 30t72.5 39.5t59 59t20.5 76.5q0 58 -39.5 93.5t-121.5 35.5q-131 0 -304 -113l-100 211q80 51 193 90 t221 39q199 0 317.5 -98.5t118.5 -243.5q0 -181 -201 -303v-6q39 -15 73.5 -33.5t69 -48.5t58.5 -65.5t39.5 -85t15.5 -107.5q0 -69 -21 -135.5t-66 -127t-107.5 -105.5t-152.5 -72t-195 -27q-125 0 -249 46.5t-200 109.5z" />
<glyph unicode="4" d="M72 545q51 143 121 304t115.5 254t137.5 277l277 37q-226 -475 -350 -803l4 -6l330 6v488l282 14v-495l213 2l12 -238l-227 -2v-383h-280v381h-574z" />
<glyph unicode="5" d="M133 109l72 235q82 -61 175.5 -100t176.5 -39q119 0 194.5 80.5t75.5 189.5q2 96 -77.5 157.5t-208.5 61.5q-32 0 -64.5 -2.5t-50.5 -4.5t-55.5 -7.5t-51.5 -7.5l-77 73l49 652h799l-13 -250l-522 16l-14 -254q46 6 106 6q95 -1 180 -27.5t155 -78t111.5 -138 t41.5 -198.5q0 -152 -76 -268t-207.5 -177t-298.5 -61q-111 0 -230 41.5t-190 100.5z" />
<glyph unicode="6" d="M102 655q0 119 28 231.5t84.5 210t136 171t190.5 115.5t239 42q165 0 277 -69l-23 -213q-112 55 -225 55q-85 0 -155 -37.5t-117 -102t-78 -141t-47 -165.5l2 -2q12 22 37.5 48.5t65.5 55.5t98 48.5t120 19.5q132 0 229 -59.5t145 -158t48 -223.5q0 -107 -32 -198.5 t-94.5 -163t-164.5 -112t-233 -40.5q-531 0 -531 688zM418 481q0 -115 57 -199.5t158 -84.5q97 0 157 72.5t60 205.5q0 95 -44.5 149t-125.5 54q-171 0 -262 -197z" />
<glyph unicode="7" d="M168 1397h922l-13 -213q-92 -83 -150 -178.5t-122 -272.5q-96 -269 -96 -733h-299q0 417 92 705q41 136 95.5 241.5t127.5 216.5l-545 -8z" />
<glyph unicode="8" d="M119 418q0 134 67.5 228.5t178.5 129.5v4q-40 19 -70.5 41.5t-59.5 57.5t-45 85.5t-16 114.5t31 125t87.5 110.5t146 80t196.5 30.5q240 0 366.5 -94t126.5 -250q0 -107 -54 -185.5t-142 -113.5v-4q109 -41 165 -134t56 -224q0 -146 -70.5 -250t-185.5 -153.5t-262 -49.5 q-234 0 -375 116t-141 335zM410 410q0 -101 61.5 -164.5t167.5 -63.5q54 0 95.5 20.5t65 53.5t35 70.5t11.5 76.5q0 62 -34 116.5t-80 85.5t-86 49t-60 18q-9 0 -36 -20t-59 -52.5t-56.5 -84.5t-24.5 -105zM469 1096q0 -48 32.5 -90.5t76 -66.5t79.5 -38t50 -14 q10 0 38.5 30.5t55 82t26.5 96.5q0 71 -43.5 116t-130.5 45q-93 0 -138.5 -48.5t-45.5 -112.5z" />
<glyph unicode="9" d="M111 911q0 108 32 199.5t94.5 162.5t164.5 111.5t233 40.5q530 0 530 -686q0 -112 -24 -220.5t-76.5 -209t-128 -176t-187 -121t-245.5 -45.5q-65 0 -136 17.5t-114 44.5l25 221q100 -53 210 -53q68 0 127.5 27.5t101.5 72t73 103t47 120t18 121.5l-2 2 q-12 -21 -37.5 -47t-65.5 -55t-98.5 -48.5t-120.5 -19.5q-132 0 -229 59t-144.5 157t-47.5 222zM418 915q0 -96 44.5 -150t125.5 -54q175 0 262 198q0 115 -57 200t-158 85q-97 0 -157 -73.5t-60 -205.5z" />
<glyph unicode=":" horiz-adv-x="602" d="M131 133q0 78 47 123t125 45q79 0 126.5 -44.5t47.5 -123.5q0 -74 -48 -119t-126 -45q-77 0 -124.5 45.5t-47.5 118.5zM131 748q0 78 47 122.5t125 44.5q79 0 126.5 -44.5t47.5 -122.5q0 -74 -48 -119t-126 -45q-77 0 -124.5 45.5t-47.5 118.5z" />
<glyph unicode=";" horiz-adv-x="598" d="M76 -209q78 282 112 469h258q-64 -299 -196 -528zM152 748q0 78 47 122.5t125 44.5q79 0 126.5 -44.5t47.5 -122.5q0 -74 -48 -119t-126 -45q-77 0 -124.5 45.5t-47.5 118.5z" />
<glyph unicode="&#x3c;" horiz-adv-x="829" d="M68 547l505 649l172 -139l-362 -504l360 -514l-170 -137z" />
<glyph unicode="=" horiz-adv-x="1380" d="M139 221l2 244h1096l2 -244h-1100zM139 614l2 242h1096l2 -242h-1100z" />
<glyph unicode="&#x3e;" horiz-adv-x="829" d="M88 39l361 514l-361 504l172 139l506 -649l-506 -645z" />
<glyph unicode="?" horiz-adv-x="1024" d="M84 1384q82 43 188.5 75t208.5 32q47 0 94.5 -7t102.5 -22.5t102 -45.5t86 -72t61.5 -106.5t22.5 -143.5q0 -158 -162 -316q-116 -113 -282 -198q-6 -71 2 -187l-203 4q-31 125 -33 297q10 6 57 29t102 54.5t99 66.5q142 111 142 239q0 91 -52 132.5t-139 41.5 q-114 0 -291 -81zM256 125q0 76 45 119t119 43q76 0 121 -43t45 -119q0 -70 -45.5 -113t-120.5 -43q-74 0 -119 43t-45 113z" />
<glyph unicode="@" horiz-adv-x="1785" d="M127 668q0 126 40 245t117.5 219t184 175.5t247 118t298.5 42.5q88 0 176 -17.5t178.5 -60.5t159.5 -106t112.5 -164t42.5 -225q-1 -108 -38 -195t-100.5 -145.5t-152 -98.5t-189.5 -57.5t-216 -17.5q-6 77 12 156h-4q-33 -68 -100.5 -115t-151.5 -47q-95 0 -160 71 t-65 185q0 208 139 349.5t347 141.5q132 0 280 -67l-82 -463q46 5 93 29t88.5 62t67.5 97t26 127q0 171 -126.5 270t-338.5 101q-131 1 -241.5 -32.5t-188 -91.5t-132 -136.5t-80.5 -167t-26 -182.5q0 -101 27.5 -187t84 -156t154.5 -109.5t228 -39.5q218 0 424 64l-17 -185 q-64 -30 -185 -51.5t-222 -21.5q-346 0 -528.5 181.5t-182.5 504.5zM725 676q0 -117 74 -117q151 -3 233 352l8 35q-52 23 -102 23q-69 0 -119.5 -47t-72 -111.5t-21.5 -134.5z" />
<glyph unicode="A" horiz-adv-x="1509" d="M20 0q125 449 256 786q155 396 345 687l290 8l588 -1481h-319l-185 465h-530q-60 -178 -117 -465h-328zM543 696h364l-170 447l-10 -2q-40 -70 -97.5 -210.5t-86.5 -234.5z" />
<glyph unicode="B" horiz-adv-x="1390" d="M166 -4v1472q319 21 430 21q103 0 188.5 -10t171 -39t144 -75t95 -123t36.5 -179q0 -109 -63.5 -184t-168.5 -107v-6q153 -40 237.5 -126t84.5 -220q0 -223 -158 -331.5t-499 -108.5q-56 0 -238.5 7t-259.5 9zM467 219q89 -12 188 -12q175 0 265 43t90 151 q0 234 -371 234h-172v-416zM467 860q29 -4 129 -4q181 0 254.5 47.5t73.5 151.5q0 211 -328 211q-84 0 -129 -11v-395z" />
<glyph unicode="C" horiz-adv-x="1390" d="M111 739q0 229 98.5 401t272 261.5t397.5 89.5q120 0 220.5 -28t207.5 -81l-101 -225q-195 86 -340 86q-63 0 -120 -11t-118.5 -44t-106 -86t-73 -143.5t-28.5 -208.5q0 -506 504 -506q158 0 331 67l70 -227q-261 -117 -481 -117q-337 0 -535 211t-198 561z" />
<glyph unicode="D" horiz-adv-x="1550" d="M166 -4v1477q254 18 389 18q83 0 158.5 -6.5t165.5 -25.5t165 -50.5t147.5 -86t122.5 -126.5t80.5 -177.5t30.5 -234.5q0 -366 -217 -586.5t-585 -220.5q-43 0 -209 8.5t-248 10.5zM467 217q74 -10 168 -10q104 0 189 32.5t151.5 100t103.5 181t37 265.5 q0 235 -137.5 357.5t-396.5 122.5q-76 0 -115 -13v-1036z" />
<glyph unicode="E" horiz-adv-x="1269" d="M166 0v1473l977 2l-2 -238l-674 10v-391l614 4v-233l-614 4v-404l680 17v-244h-981z" />
<glyph unicode="F" horiz-adv-x="1206" d="M166 0v1473h930l-2 -240l-627 10v-420l563 11v-242l-563 10v-602h-301z" />
<glyph unicode="G" horiz-adv-x="1548" d="M94 739q0 345 212 548.5t581 203.5q252 0 508 -127l-101 -225q-234 116 -409 116q-482 0 -482 -516q0 -144 56 -258.5t164 -182t249 -67.5q150 0 246 35v314q-134 7 -229 14l-6 194h530v-688q-142 -68 -273 -100.5t-286 -32.5q-354 0 -557 206t-203 566z" />
<glyph unicode="H" horiz-adv-x="1585" d="M166 0v1473h301v-613h651v613h301v-1473h-301v629h-651v-629h-301z" />
<glyph unicode="I" horiz-adv-x="632" d="M166 0v1473h301v-1473h-301z" />
<glyph unicode="J" horiz-adv-x="735" d="M-31 -45q67 19 111 41q180 103 180 416v1061h301v-1059q0 -272 -131 -449q-69 -95 -167 -145.5t-212 -50.5z" />
<glyph unicode="K" horiz-adv-x="1462" d="M166 0v1473h301v-605q36 -4 53 -4q152 1 237 60t124 180q37 118 37 369h301q0 -302 -60 -467q-62 -167 -188 -267q75 -132 178 -286q94 -141 174.5 -247.5t165.5 -189.5q-70 -32 -227 -32q-54 0 -108.5 6t-63.5 12q-21 16 -90 114t-126 189q-123 205 -180 307 q-62 -13 -128 -13q-49 0 -99 7v-606h-301z" />
<glyph unicode="L" horiz-adv-x="1091" d="M166 0v1473h301v-1237l653 12l-6 -248h-948z" />
<glyph unicode="M" horiz-adv-x="1863" d="M166 0v1473h442l193 -599q109 -344 139 -462h6q59 242 125 462q106 365 186 599h441v-1473h-297v666q0 171 8 503h-8q-28 -108 -113 -395q-179 -609 -219 -713h-266q-26 68 -57 159.5t-88.5 270t-92.5 283.5q-101 315 -116 395h-11q15 -281 15 -540v-629h-287z" />
<glyph unicode="N" horiz-adv-x="1599" d="M166 0v1473h391q63 -112 155.5 -264t191.5 -331t247 -479h10q-14 182 -14 408l2 666h285v-1473h-371q-211 320 -395 672q-168 321 -209 422h-10q14 -262 14 -498v-596h-297z" />
<glyph unicode="O" horiz-adv-x="1624" d="M86 743q0 155 52 292t144.5 238t229 159.5t297.5 58.5q331 0 529 -201.5t198 -546.5q0 -352 -195 -564t-536 -212q-175 0 -312 56t-226 158.5t-135 244.5t-46 317zM397 743q0 -80 12.5 -154t43 -144.5t76 -121.5t116.5 -82.5t160 -31.5q94 0 168 31.5t120.5 82.5t77 122 t42.5 144t12 154q0 83 -14.5 157.5t-47 140t-80.5 112.5t-118 74.5t-156 27.5q-104 0 -185 -41.5t-129.5 -113t-73 -162t-24.5 -195.5z" />
<glyph unicode="P" horiz-adv-x="1337" d="M166 0v1470q319 21 430 21q333 0 506.5 -117.5t173.5 -369.5q0 -128 -48 -225.5t-135 -157t-201.5 -89.5t-254.5 -30q-108 0 -170 12v-514h-301zM467 764q77 -14 156 -14q153 0 247.5 68.5t94.5 193.5q0 126 -85 190t-286 64q-90 0 -127 -11v-491z" />
<glyph unicode="Q" horiz-adv-x="1624" d="M82 741q0 155 52 292.5t144.5 238.5t229 160t297.5 59q332 0 529.5 -202t197.5 -548q0 -183 -54 -312t-157 -232l2 -7l324 5l-2 -246q-102 1 -203.5 4.5t-155 6t-172 10.5t-158.5 10q-7 0 -33.5 -3t-41.5 -4q-46 -6 -74 -6q-233 0 -398 97.5t-246 270.5t-81 406zM393 741 q0 -80 13 -154t44 -144.5t77.5 -122t118 -82.5t161.5 -31q94 0 167 31.5t119 82.5t75.5 122t41 144t11.5 154q0 84 -14.5 158.5t-47 140t-80.5 113t-118 75t-156 27.5q-84 0 -153 -27.5t-116.5 -75t-80 -113t-47.5 -140.5t-15 -158z" />
<glyph unicode="R" horiz-adv-x="1466" d="M166 0v1470q319 21 430 21q355 0 517.5 -119.5t162.5 -351.5q0 -140 -65 -247t-187 -165l100 -155q94 -141 174.5 -247.5t165.5 -189.5q-70 -32 -227 -32q-54 0 -108.5 6t-63.5 12q-21 16 -89 113t-126 190q-34 55 -135 230q-50 -5 -82 -5q-83 0 -166 15v-545h-301z M467 788q77 -14 156 -14q160 0 251 68t91 188q0 56 -18 97.5t-59.5 73.5t-115 48.5t-178.5 16.5q-90 0 -127 -11v-467z" />
<glyph unicode="S" horiz-adv-x="1265" d="M76 119l69 243q81 -64 202.5 -112.5t242.5 -48.5q124 0 203 55t79 147q0 23 -6 44t-15.5 37.5t-26.5 32.5t-31.5 27.5t-39 24t-41.5 20.5t-46 18.5t-45 15.5t-46 14.5t-43 13.5q-55 18 -90 30.5t-85 35t-82 43.5t-68 53.5t-56.5 68.5t-34.5 84.5t-14 104.5 q0 201 149 310.5t398 109.5q119 0 211 -19t203 -57l-68 -231q-215 84 -360 84q-105 0 -166 -44.5t-61 -115.5q0 -39 18.5 -71t41 -52.5t72.5 -42.5t80 -32t97 -30l39 -12q74 -22 127 -42.5t115.5 -57.5t101.5 -80.5t65.5 -111t26.5 -150.5q0 -105 -53.5 -193t-141.5 -145.5 t-199 -89t-229 -31.5q-263 0 -493 152z" />
<glyph unicode="T" horiz-adv-x="1189" d="M8 1233v240h1178v-240l-438 6v-1239h-302v1239z" />
<glyph unicode="U" horiz-adv-x="1572" d="M168 651v822h303v-822q0 -79 7 -139t27 -119.5t54 -98t91.5 -62t135.5 -23.5q77 0 134.5 23.5t92 62t55 97.5t27.5 120t7 139v822h303v-822q0 -116 -18 -213.5t-62.5 -185.5t-114 -149t-177.5 -96.5t-247 -35.5q-618 0 -618 680z" />
<glyph unicode="V" horiz-adv-x="1441" d="M-25 1473h336l453 -1145h6q133 255 219 567q100 359 103 578h305q-13 -289 -133 -678q-71 -227 -171 -437t-219 -372h-299z" />
<glyph unicode="W" horiz-adv-x="2248" d="M-14 1473h333l330 -994q3 -11 25.5 -76.5t30.5 -97.5h6q93 179 161 479q64 290 89 629h342l337 -1100h7q135 265 198 637q45 266 45 523h301q0 -323 -69 -627q-113 -488 -373 -860h-307q-159 380 -240 714q-40 163 -63 349h-6q-1 -10 -1 -59t-2.5 -109.5t-7.5 -114.5 q-15 -166 -105 -407.5t-188 -372.5h-323z" />
<glyph unicode="X" horiz-adv-x="1630" d="M51 0q53 184 189 410t319 409l-487 654h391l332 -441q112 102 195.5 202.5t150.5 238.5h325q-115 -334 -493 -676l606 -797h-393l-447 584q-210 -214 -350 -584h-338z" />
<glyph unicode="Y" horiz-adv-x="1218" d="M16 1473h308q38 -277 139 -496q60 -134 164 -262l268 758h289l-508 -1473h-293l145 414q-198 157 -335 454q-117 256 -177 605z" />
<glyph unicode="Z" horiz-adv-x="1318" d="M80 156q135 237 349.5 558t361.5 519l-5 8l-630 -22l-21 254h1008l39 -160q-173 -224 -395 -560.5t-314 -506.5l4 -8l731 28l-16 -266h-1049z" />
<glyph unicode="[" horiz-adv-x="677" d="M131 -436v2058h461v-231h-197v-1596h197v-231h-461z" />
<glyph unicode="\" horiz-adv-x="868" d="M20 1423l228 97l594 -1485l-238 -92z" />
<glyph unicode="]" horiz-adv-x="677" d="M86 -205h197v1596h-197v231h461v-2058h-461v231z" />
<glyph unicode="^" horiz-adv-x="1449" d="M139 653l494 824h158l485 -824l-176 -121l-387 603h-8l-388 -603z" />
<glyph unicode="_" horiz-adv-x="1038" d="M0 -225l6 219h1026l6 -219h-1038z" />
<glyph unicode="`" horiz-adv-x="466" d="M-27 1393l150 172l366 -230l-98 -131z" />
<glyph unicode="a" horiz-adv-x="1218" d="M88 369q0 74 21 184q355 140 665 149v46q0 80 -52 116.5t-130 36.5q-151 0 -416 -92l-33 231q224 78 451 78q101 0 185.5 -19t151.5 -57.5t104.5 -104.5t37.5 -153q0 -318 7.5 -476.5t35.5 -307.5h-297q-16 61 -16 138q0 28 2 59l-6 4q-22 -40 -39 -66t-48.5 -61 t-64.5 -56t-83 -36t-109 -15q-169 0 -268 108.5t-99 293.5zM352 385q0 -96 41.5 -146.5t104.5 -50.5q70 0 133.5 50.5t100 126t36.5 151.5q-202 -8 -416 -108v-23z" />
<glyph unicode="b" horiz-adv-x="1306" d="M166 51v1469h299v-414q0 -76 -31 -223l6 -4q44 107 124 173t198 66q221 0 341 -153.5t120 -454.5q0 -245 -146 -394t-420 -149q-117 0 -222.5 16t-154 30t-114.5 38zM465 213q64 -31 174 -31q281 0 281 328q0 176 -52.5 278.5t-132.5 102.5q-87 0 -148.5 -84 t-91.5 -228.5t-30 -336.5v-29z" />
<glyph unicode="c" horiz-adv-x="1140" d="M86 543q0 252 170.5 413.5t437.5 161.5q195 0 387 -104l-100 -203q-175 88 -297 88q-58 0 -107.5 -18t-92 -56.5t-67 -109t-24.5 -166.5q0 -68 16.5 -125.5t53 -107.5t105 -78.5t163.5 -28.5q111 0 281 67l65 -210q-221 -99 -415 -99q-271 0 -423.5 159t-152.5 417z" />
<glyph unicode="d" horiz-adv-x="1304" d="M80 578q0 119 36 217.5t105 170.5t178 112t248 40q92 0 191 -26v428h299v-947q0 -345 43 -573h-297q-16 62 -16 156q0 23 1 49l-6 2q-39 -98 -119.5 -169t-201.5 -71q-220 0 -340.5 155t-120.5 456zM383 578q0 -177 52 -280t132 -103q87 0 149 84t92 229t30 338v26 q-61 33 -174 33q-281 0 -281 -327z" />
<glyph unicode="e" horiz-adv-x="1220" d="M80 543q0 164 79.5 296.5t214 205.5t294.5 73q96 0 173 -20.5t129.5 -57t87.5 -88t50.5 -111.5t15.5 -130q0 -112 -12 -203q-299 -50 -590 -50q-67 0 -133 3q5 -46 24.5 -87t56.5 -78.5t100.5 -60t146.5 -22.5q151 0 321 80l52 -199q-106 -60 -211.5 -93.5t-233.5 -33.5 q-261 0 -413 159.5t-152 416.5zM391 659q278 0 463 27v47q0 80 -47.5 129t-138.5 49q-105 0 -178 -70t-99 -182z" />
<glyph unicode="f" horiz-adv-x="870" d="M49 893l19 168q118 27 141 31v43q0 104 21.5 178.5t70 129t132 81t204.5 26.5q143 0 305 -39l-29 -231q-141 55 -249 55q-76 0 -116 -47.5t-40 -152.5v-35l307 -15l6 -194q-159 -14 -313 -17v-874h-299v881z" />
<glyph unicode="g" horiz-adv-x="1273" d="M55 -96l127 211q-59 33 -59 82q0 71 125 239q-137 96 -137 287q0 72 32.5 142t92 126.5t154 91.5t208.5 35q62 0 129.5 -9t145 -24t110.5 -20q103 -16 244 -29l-13 -211q-53 0 -155 25q16 -86 16 -135q0 -75 -30.5 -142t-87.5 -120t-149.5 -84t-207.5 -31q-90 0 -176 24 q-6 -11 -17.5 -46t-11.5 -44q1 -30 164 -48t343 -28.5t202 -21.5q35 -17 67.5 -68t32.5 -131q0 -126 -86 -223t-223.5 -146.5t-298.5 -49.5q-116 0 -210.5 23.5t-154.5 60t-101 84t-58 92.5t-17 88zM313 -106q0 -17 18 -36.5t53 -39t97.5 -32.5t139.5 -13q139 0 218 49 t79 123q0 28 -13 51q-8 13 -123 21.5t-246.5 18t-166.5 23.5zM408 723q0 -87 47 -143t139 -56q98 0 146 58t48 147q0 97 -22 168q-77 31 -162 31q-93 0 -144.5 -58t-51.5 -147z" />
<glyph unicode="h" horiz-adv-x="1366" d="M170 0v1520h299v-414q0 -78 -31 -225l6 -2q124 239 369 239q107 0 184.5 -33.5t121.5 -95.5t64.5 -139.5t20.5 -175.5v-674h-299v674q0 223 -129 223q-126 0 -216.5 -159t-90.5 -419v-319h-299z" />
<glyph unicode="i" horiz-adv-x="614" d="M131 1386q0 77 46 120.5t122 43.5q78 0 124 -43.5t46 -120.5q0 -73 -46.5 -116t-123.5 -43q-76 0 -122 43t-46 116zM147 573v514h299v-514q0 -345 43 -573h-299q-43 180 -43 573z" />
<glyph unicode="j" horiz-adv-x="630" d="M-96 -223q266 113 266 495v815h299v-825q0 -104 -23.5 -198.5t-63 -165.5t-91.5 -128.5t-110 -93.5t-117 -55.5t-113 -19.5zM180 1393q0 72 48.5 114.5t123.5 42.5t123.5 -42.5t48.5 -114.5q0 -68 -49.5 -111t-122.5 -43q-74 0 -123 43t-49 111z" />
<glyph unicode="k" horiz-adv-x="1247" d="M164 0v1520h299v-783q134 0 199 70q75 81 86 280h288q0 -122 -39.5 -248.5t-136.5 -226.5q75 -129 109 -180l57 -84q155 -221 268 -332q-73 -32 -221 -32q-42 0 -77.5 3.5t-53 7.5t-22.5 7q-43 32 -141 188.5t-177 303.5q-34 -9 -71 -9q-33 0 -68 7v-492h-299z" />
<glyph unicode="l" horiz-adv-x="608" d="M145 573v947h299v-947q0 -345 43 -573h-299q-43 180 -43 573z" />
<glyph unicode="m" horiz-adv-x="2076" d="M123 1087h297q15 -58 15 -149q0 -27 -1 -57l6 -2q124 239 361 239q276 0 360 -241h2q28 53 59.5 93t75 75t102 54t128.5 19q387 0 387 -444v-674h-299v674q0 223 -127 223q-124 0 -211.5 -158.5t-87.5 -419.5v-319h-299v674q0 223 -127 223q-124 0 -211.5 -158.5 t-87.5 -419.5v-319h-299v512q0 350 -43 575z" />
<glyph unicode="n" horiz-adv-x="1361" d="M129 1087h297q15 -58 15 -149q0 -27 -1 -57l6 -2q122 239 369 239q107 0 184.5 -33.5t121.5 -95.5t64.5 -139.5t20.5 -175.5v-674h-299v674q0 223 -129 223q-126 0 -216.5 -159t-90.5 -419v-319h-299v512q0 350 -43 575z" />
<glyph unicode="o" horiz-adv-x="1302" d="M80 561q0 246 161 401.5t410 155.5q139 0 249 -43t180 -119q72 -75 108 -176q36 -98 35 -213v-6q-2 -272 -154 -433t-416 -161q-277 0 -425 159t-148 435zM387 561q0 -180 68.5 -272t197.5 -92q134 0 198 89.5t64 274.5q0 166 -63.5 251t-200.5 85q-129 0 -196.5 -84.5 t-67.5 -251.5z" />
<glyph unicode="p" horiz-adv-x="1316" d="M133 1087h297q15 -62 15 -131q0 -40 -5 -82l6 -2q17 44 46 85.5t70 78.5t97.5 59.5t120.5 22.5q214 0 333.5 -154t119.5 -454q0 -245 -146 -394t-421 -149q-25 0 -46.5 1.5t-42.5 5.5t-33 7t-35.5 9.5t-33.5 9.5v-412h-299v924q0 350 -43 575zM475 217q61 -33 174 -33 q281 0 281 328q0 177 -52.5 280t-132.5 103q-87 0 -148.5 -84t-91.5 -229t-30 -338v-27z" />
<glyph unicode="q" horiz-adv-x="1296" d="M74 578q0 119 36 217.5t105 170.5t178 112t248 40q116 0 223 -16t150.5 -29t115.5 -37v-1448h-299v375q0 19 0.5 37t1.5 31t3.5 31t3.5 26.5t4.5 29t5 26t6.5 30.5t6 31h-6q-103 -238 -321 -238q-102 0 -184.5 35t-145.5 106.5t-97 191t-34 278.5zM377 580 q0 -176 52 -278.5t132 -102.5q87 0 148.5 84t91.5 228.5t30 336.5v29q-62 30 -174 30q-280 0 -280 -327z" />
<glyph unicode="r" horiz-adv-x="829" d="M129 1087h297q14 -49 14 -115t-12 -124l6 -2q18 53 43.5 98.5t62 86t88 64t111.5 23.5q52 0 90 -14l-30 -287q-43 12 -86 12q-112 0 -177 -116t-65 -361v-352h-299v512q0 350 -43 575z" />
<glyph unicode="s" horiz-adv-x="1015" d="M78 66l59 231q76 -50 174.5 -81.5t177.5 -31.5q83 0 130 32t47 93q0 29 -16 51t-59 43t-66.5 30t-89.5 30q-8 3 -12.5 4.5t-11 3.5t-12.5 4q-54 17 -91 31.5t-81 41t-70.5 57.5t-44.5 80t-18 110q0 69 24 124t64 91.5t95 61.5t115 35.5t126 10.5q174 0 346 -49l-55 -211 q-174 55 -279 55q-78 0 -115.5 -29.5t-37.5 -72.5q0 -42 32 -70t83 -44.5t112.5 -31.5t123.5 -39t113 -59t83 -99.5t32 -152.5q0 -72 -29.5 -131.5t-78.5 -99t-114.5 -66.5t-135 -39t-141.5 -12q-203 0 -379 99z" />
<glyph unicode="t" horiz-adv-x="880" d="M37 893l16 168q71 16 152 31q48 242 65 307l226 22v-321l305 -15l6 -194q-159 -14 -311 -17v-397q0 -162 23.5 -210t109.5 -48q73 0 186 25l33 -187q-174 -80 -328 -80q-143 0 -227 75t-98 200q-11 92 -11 240q0 161 13 389z" />
<glyph unicode="u" horiz-adv-x="1347" d="M160 414v673h299v-673q0 -35 4.5 -68t16.5 -69t38.5 -58t63.5 -22q82 0 144.5 55t96.5 143.5t50 182.5t16 190v319h299v-563q0 -300 43 -524h-297q-15 55 -15 147q0 28 1 58l-7 4q-62 -110 -153.5 -176t-210.5 -66q-106 0 -183 34t-121 96.5t-64.5 140.5t-20.5 176z" />
<glyph unicode="v" horiz-adv-x="1124" d="M-4 1018l266 90l336 -817l6 -2q88 154 139 346q60 218 66 452h264q-6 -287 -98 -567q-97 -298 -285 -526h-252z" />
<glyph unicode="w" horiz-adv-x="1732" d="M8 1024l279 86l221 -803h6q76 178 127 379q41 172 68 346h295l208 -725h7q80 132 137 402q45 213 45 378h262q0 -213 -72 -481q-102 -382 -291 -612h-264q-122 420 -186 665l-6 -2q-12 -60 -51 -206q-76 -272 -189 -457h-285z" />
<glyph unicode="x" horiz-adv-x="1269" d="M27 1087h360l262 -337q167 171 254 337h289q-109 -260 -377 -524l442 -563h-368l-289 381q-145 -148 -256 -381h-305q75 171 162 303.5t235 269.5z" />
<glyph unicode="y" horiz-adv-x="1110" d="M59 1087h287q16 -272 103 -489q41 -102 90.5 -165.5t95.5 -74.5q92 301 188 729h271q-201 -963 -394 -1241q-82 -119 -212.5 -187t-260.5 -71h-9q-42 0 -82 8q-45 9 -68 19l34 233q41 -8 88 -8q109 0 207 67.5t146 184.5q-241 62 -371 402q-89 239 -113 593z" />
<glyph unicode="z" horiz-adv-x="1064" d="M27 125q101 168 260 382t284 367l-2 5l-467 -9l-18 217h825l31 -137q-128 -154 -286 -369t-246 -360l2 -6l544 18l-16 -233h-866z" />
<glyph unicode="{" horiz-adv-x="714" d="M47 752q92 6 139 62t41 151l-14 233q-11 190 84 306t291 116h67l-32 -244q-82 4 -116.5 -38t-29.5 -130l15 -231q15 -258 -179 -328l2 -6q91 -28 137.5 -123t39.5 -241l-15 -297q-3 -93 31 -134.5t117 -35.5l32 -248h-69q-195 0 -289.5 109t-85.5 315l14 299 q6 119 -39 182t-122 63z" />
<glyph unicode="|" horiz-adv-x="679" d="M227 -471v2044l219 6v-2044z" />
<glyph unicode="}" horiz-adv-x="714" d="M57 -436l33 248q83 -6 117 35.5t31 134.5l-15 297q-7 146 39 241t137 123l2 6q-193 69 -178 328l15 231q5 88 -29.5 130t-116.5 38l-33 244h68q196 0 291 -116t84 -306l-15 -233q-6 -95 41.5 -151t139.5 -62l-19 -220q-77 0 -122.5 -63.5t-39.5 -181.5l15 -299 q9 -206 -85.5 -315t-289.5 -109h-70z" />
<glyph unicode="~" horiz-adv-x="1097" d="M88 641q16 31 33.5 59.5t46 67t61 61.5t62.5 23q48 0 241 -52t234 -52q43 0 170 88l82 -113q-29 -47 -65 -95t-86 -94.5t-83 -46.5q-56 0 -241.5 56.5t-243.5 56.5q-28 0 -119 -78z" />
<glyph unicode="&#xa1;" horiz-adv-x="708" d="M188 956q0 74 46.5 118t123.5 44q76 0 122 -44t46 -118t-46 -117.5t-122 -43.5q-77 0 -123.5 43.5t-46.5 117.5zM199 -375l39 1071l243 15l6 -1086h-288z" />
<glyph unicode="&#xa2;" horiz-adv-x="1140" d="M86 543q0 219 130.5 372t346.5 191v151l146 5v-144q187 -7 372 -104l-100 -203q-169 82 -272 88v-690q133 0 303 67l65 -210q-203 -89 -368 -97v-200l-146 -7v211q-226 29 -351.5 183t-125.5 387zM393 549q0 -106 40 -188t130 -121v634q-170 -69 -170 -325z" />
<glyph unicode="&#xa3;" horiz-adv-x="1159" d="M23 623l6 241h157q2 164 25.5 276t78 193.5t147.5 119.5t231 38q190 0 366 -94l-88 -205q-2 1 -25 11t-33.5 14.5t-35 14t-42.5 14t-43 11t-49.5 9t-49.5 2.5q-68 0 -107 -36.5t-57.5 -124t-18.5 -243.5h344l7 -241h-353q-3 -282 -39 -402l586 10l-2 -231h-962l6 184 q73 27 84 47q19 37 23.5 119.5t4.5 272.5h-161z" />
<glyph unicode="&#xa5;" horiz-adv-x="1374" d="M113 1473h301q28 -191 98 -367q43 -108 102.5 -194t112.5 -138h6l258 699h305l-260 -668h203l12 -203h-311l-39 -84h338l12 -203h-362v-315h-301v315h-436l8 203h399q-44 44 -78 84h-329l8 203h186q-73 104 -137.5 282.5t-95.5 385.5z" />
<glyph unicode="&#xa7;" horiz-adv-x="1202" d="M57 -119l72 252q97 -76 210.5 -122t203.5 -46q219 0 219 123q0 34 -22 63t-65.5 54.5t-88.5 46.5t-112.5 52t-115.5 58q-137 76 -202.5 155.5t-65.5 195.5q0 94 57 171t144 124q-96 96 -96 229q0 78 36.5 141.5t97.5 103.5t138 61.5t160 21.5q188 0 372 -84l-88 -213 q-146 84 -284 84q-78 0 -117 -29.5t-39 -73.5q0 -19 7 -36t23.5 -32t32 -26t43 -24t44.5 -20.5t50.5 -20.5t47.5 -19q14 -5 48.5 -18.5t51 -20t49 -21.5t50 -25.5t44.5 -29t41.5 -35.5t33 -41.5t28 -50.5t16 -59t6.5 -70q0 -63 -25.5 -118t-66 -91t-80 -59.5t-77.5 -34.5 q34 -19 65.5 -43.5t65 -61t53.5 -85.5t20 -103q0 -96 -38 -168.5t-106.5 -116.5t-157 -65.5t-195.5 -21.5q-268 0 -488 149zM356 741q0 -49 44 -96t99 -74t101 -32q99 0 157 50t58 118q0 42 -35.5 79t-84 58t-90 33t-60.5 12q-74 0 -131.5 -40.5t-57.5 -107.5z" />
<glyph unicode="&#xa8;" horiz-adv-x="1132" d="M223 1372q0 68 41 107t107 39q67 0 108 -39t41 -107q0 -63 -41.5 -101t-107.5 -38q-65 0 -106.5 38.5t-41.5 100.5zM641 1372q0 68 40.5 107t106.5 39q69 0 110.5 -39t41.5 -107q0 -63 -42 -101t-110 -38q-65 0 -106 38t-41 101z" />
<glyph unicode="&#xa9;" horiz-adv-x="1736" d="M86 733q0 153 61.5 292t165.5 240t248.5 160.5t304.5 59.5q212 0 392 -101t284.5 -274t104.5 -377q0 -157 -57.5 -296t-159.5 -239t-248 -158t-316 -58t-316 57.5t-247.5 158t-159 239t-57.5 296.5zM311 733q0 -235 157 -386.5t396 -151.5q243 0 400 152.5t157 385.5 q0 145 -74 269t-202.5 197t-280.5 73q-151 0 -278.5 -73t-201 -197t-73.5 -269zM477 741q0 166 119.5 273.5t292.5 107.5q133 0 246 -67l-64 -162q-90 49 -182 49q-78 0 -132.5 -50.5t-54.5 -148.5q0 -192 213 -192q77 0 187 47l39 -164q-133 -78 -275 -78q-179 0 -284 106 t-105 279z" />
<glyph unicode="&#xaa;" horiz-adv-x="1024" d="M123 954q0 50 14 129q261 99 471 105v33q0 108 -137 108q-115 0 -285 -65l-24 166q161 53 321 53q146 0 240 -58.5t94 -177.5q0 -215 6 -336t25 -227h-209q-15 65 -10 150l-4 2q-18 -35 -35 -58.5t-45.5 -51t-69 -42t-92.5 -14.5q-119 0 -189.5 76.5t-70.5 207.5z M309 965q0 -67 30 -103.5t75 -36.5q73 0 131.5 75t58.5 159q-132 -5 -295 -78v-16z" />
<glyph unicode="&#xab;" horiz-adv-x="1267" d="M84 571l352 473l191 -71l-197 -408l193 -446l-197 -99zM598 569l356 469l195 -71l-201 -404l201 -440l-203 -98z" />
<glyph unicode="&#xad;" horiz-adv-x="794" d="M78 446l8 232h619l10 -232h-637z" />
<glyph unicode="&#xae;" horiz-adv-x="1736" d="M86 733q0 153 61.5 292t165.5 240t248.5 160.5t304.5 59.5q212 0 392 -101t284.5 -274t104.5 -377q0 -157 -57.5 -296t-159.5 -239t-248 -158t-316 -58q-165 0 -310 58t-248 157.5t-162.5 239t-59.5 296.5zM311 733q0 -154 74 -278t200.5 -192t278.5 -68q255 0 406 151 t151 387q0 145 -74 269t-202.5 197t-280.5 73q-151 0 -278.5 -73t-201 -197t-73.5 -269zM586 387v711q30 1 110 4.5t125 3.5q167 0 247.5 -55.5t80.5 -171.5q0 -138 -121 -201q24 -45 49 -82q8 -11 31 -45t37 -54t36.5 -50.5t43.5 -55.5q-54 -8 -138 -8q-51 0 -59 4 q-9 5 -20.5 16.5t-26 30t-26 35t-29 44t-27 42.5t-27.5 45t-24 39q-10 -2 -39 -2q-17 0 -37 4v-254h-186zM772 795q35 -7 64 -7q127 0 127 86q0 91 -138 91q-41 0 -53 -4v-166z" />
<glyph unicode="&#xb0;" horiz-adv-x="831" d="M106 1194q0 139 85.5 220t224.5 81q136 0 222.5 -81.5t86.5 -219.5q0 -132 -87 -218.5t-222 -86.5q-137 0 -223.5 86t-86.5 219zM307 1194q0 -54 28 -85.5t81 -31.5q51 0 79.5 32.5t28.5 84.5q0 56 -29 89.5t-79 33.5q-52 0 -80.5 -33.5t-28.5 -89.5z" />
<glyph unicode="&#xb1;" horiz-adv-x="1409" d="M129 641l6 221h447v432l243 6v-438h449l6 -221h-455v-438l-243 -2v440h-453zM158 -143l6 235h1079l6 -235h-1091z" />
<glyph unicode="&#xb2;" horiz-adv-x="759" d="M66 729q178 109 284 238q92 115 92 213q0 61 -29.5 92t-82.5 31q-63 0 -178 -46l-54 154q126 72 250 72q148 0 228.5 -78t80.5 -205q0 -100 -53 -192q-61 -109 -182 -213l2 -7l276 11l-10 -176h-596z" />
<glyph unicode="&#xb3;" horiz-adv-x="731" d="M63 705l43 143q48 -36 111 -63t115 -27q63 0 99 35.5t36 93.5q0 108 -180 108q-43 0 -117 -6l-16 129q128 7 213 53q79 45 79 103q0 30 -24 47.5t-64 17.5q-20 0 -41.5 -3t-37.5 -7t-35 -10.5t-29 -10.5t-25.5 -10.5t-17.5 -7.5l-63 135q119 56 253 56q120 0 189.5 -56 t69.5 -147q0 -61 -40 -110t-89 -74v-4q70 -23 115.5 -73.5t45.5 -131.5q0 -109 -85 -191t-238 -82q-74 0 -148.5 27.5t-118.5 65.5z" />
<glyph unicode="&#xb4;" horiz-adv-x="522" d="M-23 1335l367 230l150 -172l-418 -189z" />
<glyph unicode="&#xb5;" horiz-adv-x="1372" d="M174 -418v1505h297v-614q0 -289 188 -289q120 0 203.5 163t83.5 421v319h299v-514q0 -345 43 -573h-297q-18 72 -12 205l-6 4q-56 -105 -137.5 -168.5t-180.5 -63.5q-139 0 -219 123l-6 -4q45 -121 45 -284q0 -38 -4 -230h-297z" />
<glyph unicode="&#xb6;" horiz-adv-x="1495" d="M158 1047q0 88 31.5 165.5t94 140.5t168.5 99.5t244 36.5q95 0 313.5 -9.5t315.5 -9.5l-6 -190l-143 -14v-1499h-201v1505l-111 -6v-1499h-393l6 190l187 8v678q-235 8 -370.5 114.5t-135.5 289.5z" />
<glyph unicode="&#xb7;" horiz-adv-x="665" d="M154 596q0 82 48.5 127t129.5 45q83 0 131.5 -45t48.5 -127q0 -75 -49.5 -121.5t-130.5 -46.5q-79 0 -128.5 46.5t-49.5 121.5z" />
<glyph unicode="&#xb8;" horiz-adv-x="598" d="M76 -297q196 0 196 70q0 34 -29.5 50.5t-76.5 16.5q9 91 37 152h213q-13 -69 -8 -92q88 -36 88 -131q0 -102 -97 -160q-101 -58 -286 -58z" />
<glyph unicode="&#xb9;" horiz-adv-x="651" d="M55 1245l11 160q205 26 376 68v-846h-209v626q-81 -8 -178 -8z" />
<glyph unicode="&#xba;" horiz-adv-x="1003" d="M96 1090q0 174 114 284.5t290 110.5q194 0 300.5 -110.5t104.5 -284.5q-2 -192 -109 -306t-294 -114q-196 0 -301 113t-105 307zM313 1090q0 -127 49 -193t140 -66q95 0 140.5 64t45.5 195q0 119 -44.5 179t-143.5 60q-187 0 -187 -239z" />
<glyph unicode="&#xbb;" horiz-adv-x="1267" d="M137 123l201 440l-201 404l195 71l356 -469l-348 -544zM659 973l191 71l352 -473l-342 -551l-196 99l192 446z" />
<glyph unicode="&#xbc;" horiz-adv-x="1812" d="M76 1245l10 160q207 26 377 68v-846h-209v626q-81 -8 -178 -8zM270 -147l820 1730l184 -90l-807 -1726zM950 328q112 252 252 508l184 22q-136 -256 -229 -479v-2l184 4l2 283l183 8v-287l127 2l8 -162l-137 -2v-223h-183v223l-354 -2z" />
<glyph unicode="&#xbd;" horiz-adv-x="1808" d="M76 1245l10 160q207 26 377 68v-846h-209v626q-81 -8 -178 -8zM270 -147l820 1730l184 -90l-807 -1726zM1092 106q172 104 276 228q100 119 100 223q0 61 -29.5 92t-82.5 31q-66 0 -178 -45l-54 153q126 72 250 72q148 0 228.5 -77.5t80.5 -204.5q0 -108 -65 -213 q-60 -100 -170 -193l2 -6l276 10l-10 -176h-596z" />
<glyph unicode="&#xbe;" horiz-adv-x="1812" d="M98 705l43 143q48 -36 111 -63t115 -27q63 0 99 35.5t36 93.5q0 108 -180 108q-44 0 -117 -6l-17 129q125 7 205 49q88 45 88 107q0 30 -24 47.5t-64 17.5q-20 0 -41.5 -3t-37.5 -7t-35 -10.5t-29 -10.5t-25.5 -10.5t-17.5 -7.5l-64 135q119 56 254 56q120 0 189 -56 t69 -147q0 -61 -40 -110t-89 -74v-4q70 -23 116 -73.5t46 -131.5q0 -109 -85 -191t-238 -82q-74 0 -148.5 27.5t-118.5 65.5zM414 -147l819 1730l184 -90l-807 -1726zM1098 328q112 252 252 508l184 22q-136 -256 -229 -479v-2l184 4l2 283l182 8v-287l127 2l8 -162l-137 -2 v-223h-182v223l-354 -2z" />
<glyph unicode="&#xbf;" horiz-adv-x="1024" d="M74 -6q0 81 41.5 161.5t110.5 146t141.5 116.5t150.5 90q5 88 -2 186l203 -4q31 -125 33 -297q-9 -6 -51.5 -27t-82 -41.5t-90.5 -56t-87.5 -72.5t-62.5 -88t-26 -104q0 -91 52 -132.5t139 -41.5q112 0 291 82l106 -209q-81 -42 -188 -74t-209 -32q-47 0 -94.5 7 t-102.5 22.5t-102 45.5t-86 72t-61.5 106.5t-22.5 143.5zM438 963q0 70 45.5 112.5t120.5 42.5q74 0 119 -42.5t45 -112.5q0 -76 -45 -119t-119 -43q-76 0 -121 43t-45 119z" />
<glyph unicode="&#xc0;" horiz-adv-x="1509" d="M20 0q125 449 256 786q155 396 345 687l290 8l588 -1481h-319l-185 465h-530q-60 -178 -117 -465h-328zM422 1761l149 172l367 -229l-98 -131zM543 696h364l-170 447l-10 -2q-40 -70 -97.5 -210.5t-86.5 -234.5z" />
<glyph unicode="&#xc1;" horiz-adv-x="1509" d="M20 0q125 449 256 786q155 396 345 687l290 8l588 -1481h-319l-185 465h-530q-60 -178 -117 -465h-328zM543 696h364l-170 447l-10 -2q-40 -70 -97.5 -210.5t-86.5 -234.5zM596 1704l367 229l149 -172l-418 -188z" />
<glyph unicode="&#xc2;" horiz-adv-x="1509" d="M20 0q125 449 256 786q155 396 345 687l290 8l588 -1481h-319l-185 465h-530q-60 -178 -117 -465h-328zM436 1704l318 229l317 -229l-98 -131l-219 125l-219 -125zM543 696h364l-170 447l-10 -2q-40 -70 -97.5 -210.5t-86.5 -234.5z" />
<glyph unicode="&#xc3;" horiz-adv-x="1509" d="M20 0q125 449 256 786q155 396 345 687l290 8l588 -1481h-319l-185 465h-530q-60 -178 -117 -465h-328zM383 1704q16 38 41.5 80t64.5 79.5t72 37.5q42 0 197.5 -40t191.5 -40q19 0 62 22t75 45l72 -100q-37 -63 -96 -128t-98 -65q-49 0 -198.5 46.5t-199.5 46.5 q-4 0 -8.5 -1.5t-9.5 -4.5t-10 -6.5t-12 -9t-12 -10t-13 -11.5t-12.5 -11.5t-13.5 -13t-13 -12.5zM543 696h364l-170 447l-10 -2q-40 -70 -97.5 -210.5t-86.5 -234.5z" />
<glyph unicode="&#xc4;" horiz-adv-x="1509" d="M20 0q125 449 256 786q155 396 345 687l290 8l588 -1481h-319l-185 465h-530q-60 -178 -117 -465h-328zM383 1718q0 68 40.5 107t106.5 39q67 0 108.5 -39t41.5 -107q0 -63 -42 -101t-108 -38q-65 0 -106 38t-41 101zM543 696h364l-170 447l-10 -2q-40 -70 -97.5 -210.5 t-86.5 -234.5zM801 1718q0 68 40.5 107t106.5 39q69 0 110.5 -39t41.5 -107q0 -63 -42 -101t-110 -38q-65 0 -106 38t-41 101z" />
<glyph unicode="&#xc5;" horiz-adv-x="1509" d="M20 0q125 449 256 786q155 396 345 687l290 8l588 -1481h-319l-185 465h-530q-60 -178 -117 -465h-328zM489 1772q0 119 73 186t194 67q117 0 190.5 -67t73.5 -186q0 -112 -74 -182t-190 -70q-120 0 -193.5 69.5t-73.5 182.5zM543 696h364l-170 447l-10 -2 q-40 -70 -97.5 -210.5t-86.5 -234.5zM653 1772q0 -38 28 -66.5t75 -28.5q43 0 70.5 29t27.5 66q0 46 -28 74t-70 28q-45 0 -74 -28.5t-29 -73.5z" />
<glyph unicode="&#xc6;" horiz-adv-x="2088" d="M88 0q44 155 88.5 289.5t112 297t144.5 304.5t183.5 295.5t229.5 286.5h1126l-8 -236l-659 10v-393l610 6l-8 -233l-602 6v-406l667 13l-8 -240h-963v465h-456q-68 -204 -113 -465h-344zM616 690h385v570l-12 -3q-96 -96 -201.5 -260.5t-171.5 -306.5z" />
<glyph unicode="&#xc7;" horiz-adv-x="1390" d="M111 739q0 229 98.5 401t272 261.5t397.5 89.5q120 0 220.5 -28t207.5 -81l-101 -225q-195 86 -340 86q-63 0 -120 -11t-118.5 -44t-106 -86t-73 -143.5t-28.5 -208.5q0 -506 504 -506q158 0 331 67l70 -227q-239 -115 -504 -115q-8 -53 -4 -69q88 -36 88 -131 q0 -103 -96 -160q-101 -58 -287 -58l-37 152q197 0 197 70q0 34 -30 50.5t-77 16.5q10 99 37 158q-235 67 -368 260.5t-133 480.5z" />
<glyph unicode="&#xc8;" horiz-adv-x="1269" d="M166 0v1473l977 2l-2 -238l-674 10v-391l614 4v-233l-614 4v-404l680 17v-244h-981zM319 1761l150 172l367 -229l-99 -131z" />
<glyph unicode="&#xc9;" horiz-adv-x="1269" d="M166 0v1473l977 2l-2 -238l-674 10v-391l614 4v-233l-614 4v-404l680 17v-244h-981zM446 1704l367 229l150 -172l-418 -188z" />
<glyph unicode="&#xca;" horiz-adv-x="1269" d="M166 0v1473l977 2l-2 -238l-674 10v-391l614 4v-233l-614 4v-404l680 17v-244h-981zM356 1704l318 229l317 -229l-98 -131l-219 125l-219 -125z" />
<glyph unicode="&#xcb;" horiz-adv-x="1269" d="M166 0v1473l977 2l-2 -238l-674 10v-391l614 4v-233l-614 4v-404l680 17v-244h-981zM309 1718q0 68 41 107t107 39q67 0 108 -39t41 -107q0 -63 -41.5 -101t-107.5 -38q-65 0 -106.5 38.5t-41.5 100.5zM727 1718q0 68 40.5 107t106.5 39q69 0 110.5 -39t41.5 -107 q0 -63 -42 -101t-110 -38q-65 0 -106 38t-41 101z" />
<glyph unicode="&#xcc;" horiz-adv-x="632" d="M166 1761l149 172l367 -229l-98 -131zM334 0v1473h301v-1473h-301z" />
<glyph unicode="&#xcd;" horiz-adv-x="632" d="M166 1704l366 229l150 -172l-418 -188zM207 0v1473h301v-1473h-301z" />
<glyph unicode="&#xce;" horiz-adv-x="632" d="M166 1704l317 229l318 -229l-99 -131l-219 125l-219 -125zM332 0v1473h301v-1473h-301z" />
<glyph unicode="&#xcf;" horiz-adv-x="632" d="M166 1718q0 68 40.5 107t106.5 39q67 0 108.5 -39t41.5 -107q0 -63 -42 -101t-108 -38q-65 0 -106 38t-41 101zM369 0v1473h301v-1473h-301zM584 1718q0 68 40.5 107t106.5 39q69 0 110.5 -39t41.5 -107q0 -63 -42 -101t-110 -38q-65 0 -106 38t-41 101z" />
<glyph unicode="&#xd1;" horiz-adv-x="1599" d="M166 0v1473h391q63 -112 155.5 -264t191.5 -331t247 -479h10q-14 182 -14 408l2 666h285v-1473h-371q-211 320 -395 672q-168 321 -209 422h-10q14 -262 14 -498v-596h-297zM428 1704q16 38 41.5 80t64.5 79.5t72 37.5q42 0 197.5 -40t191.5 -40q19 0 63 22t75 45 l71 -100q-37 -63 -96 -128t-98 -65q-49 0 -198.5 46.5t-199.5 46.5q-4 0 -8.5 -1.5t-9.5 -4.5t-10 -6.5t-12 -9t-12 -10t-13 -11.5t-12.5 -11.5t-13.5 -13t-13 -12.5z" />
<glyph unicode="&#xd2;" horiz-adv-x="1624" d="M86 743q0 155 52 292t144.5 238t229 159.5t297.5 58.5q331 0 529 -201.5t198 -546.5q0 -352 -195 -564t-536 -212q-175 0 -312 56t-226 158.5t-135 244.5t-46 317zM397 743q0 -80 12.5 -154t43 -144.5t76 -121.5t116.5 -82.5t160 -31.5q94 0 168 31.5t120.5 82.5t77 122 t42.5 144t12 154q0 83 -14.5 157.5t-47 140t-80.5 112.5t-118 74.5t-156 27.5q-104 0 -185 -41.5t-129.5 -113t-73 -162t-24.5 -195.5zM504 1761l149 172l367 -229l-98 -131z" />
<glyph unicode="&#xd3;" horiz-adv-x="1624" d="M86 743q0 155 52 292t144.5 238t229 159.5t297.5 58.5q331 0 529 -201.5t198 -546.5q0 -352 -195 -564t-536 -212q-175 0 -312 56t-226 158.5t-135 244.5t-46 317zM397 743q0 -80 12.5 -154t43 -144.5t76 -121.5t116.5 -82.5t160 -31.5q94 0 168 31.5t120.5 82.5t77 122 t42.5 144t12 154q0 83 -14.5 157.5t-47 140t-80.5 112.5t-118 74.5t-156 27.5q-104 0 -185 -41.5t-129.5 -113t-73 -162t-24.5 -195.5zM594 1704l367 229l149 -172l-418 -188z" />
<glyph unicode="&#xd4;" horiz-adv-x="1624" d="M86 743q0 155 52 292t144.5 238t229 159.5t297.5 58.5q331 0 529 -201.5t198 -546.5q0 -352 -195 -564t-536 -212q-175 0 -312 56t-226 158.5t-135 244.5t-46 317zM397 743q0 -80 12.5 -154t43 -144.5t76 -121.5t116.5 -82.5t160 -31.5q94 0 168 31.5t120.5 82.5t77 122 t42.5 144t12 154q0 83 -14.5 157.5t-47 140t-80.5 112.5t-118 74.5t-156 27.5q-104 0 -185 -41.5t-129.5 -113t-73 -162t-24.5 -195.5zM494 1704l317 229l317 -229l-98 -131l-219 125l-219 -125z" />
<glyph unicode="&#xd5;" horiz-adv-x="1624" d="M86 743q0 155 52 292t144.5 238t229 159.5t297.5 58.5q331 0 529 -201.5t198 -546.5q0 -352 -195 -564t-536 -212q-175 0 -312 56t-226 158.5t-135 244.5t-46 317zM397 743q0 -80 12.5 -154t43 -144.5t76 -121.5t116.5 -82.5t160 -31.5q94 0 168 31.5t120.5 82.5t77 122 t42.5 144t12 154q0 83 -14.5 157.5t-47 140t-80.5 112.5t-118 74.5t-156 27.5q-104 0 -185 -41.5t-129.5 -113t-73 -162t-24.5 -195.5zM424 1704q16 38 41.5 80t64.5 79.5t72 37.5q42 0 197.5 -40t191.5 -40q19 0 62 22t75 45l72 -100q-37 -63 -96 -128t-98 -65 q-49 0 -198.5 46.5t-199.5 46.5q-4 0 -8.5 -1.5t-9.5 -4.5t-10 -6.5t-12 -9t-12 -10t-13 -11.5t-12.5 -11.5t-13.5 -13t-13 -12.5z" />
<glyph unicode="&#xd6;" horiz-adv-x="1624" d="M86 743q0 155 52 292t144.5 238t229 159.5t297.5 58.5q331 0 529 -201.5t198 -546.5q0 -352 -195 -564t-536 -212q-175 0 -312 56t-226 158.5t-135 244.5t-46 317zM397 743q0 -80 12.5 -154t43 -144.5t76 -121.5t116.5 -82.5t160 -31.5q94 0 168 31.5t120.5 82.5t77 122 t42.5 144t12 154q0 83 -14.5 157.5t-47 140t-80.5 112.5t-118 74.5t-156 27.5q-104 0 -185 -41.5t-129.5 -113t-73 -162t-24.5 -195.5zM453 1718q0 68 40.5 107t106.5 39q67 0 108.5 -39t41.5 -107q0 -63 -42 -101t-108 -38q-65 0 -106 38t-41 101zM870 1718q0 68 41 107 t107 39q68 0 109.5 -39t41.5 -107q0 -63 -41.5 -101t-109.5 -38q-65 0 -106.5 38.5t-41.5 100.5z" />
<glyph unicode="&#xd7;" horiz-adv-x="1144" d="M72 217l340 334l-332 336l162 149l336 -336l340 334l143 -131l-340 -334l340 -344l-162 -149l-344 344l-340 -334z" />
<glyph unicode="&#xd8;" horiz-adv-x="1624" d="M86 743q0 155 52 292t144.5 238t229 159.5t297.5 58.5q83 0 168 -16l55 137l203 -80l-51 -129q167 -89 259.5 -259.5t92.5 -400.5q0 -231 -86 -405t-252 -271.5t-393 -97.5q-94 0 -184 19l-64 -162l-213 74l66 166q-160 94 -242 268.5t-82 408.5zM397 743 q0 -264 121 -407l369 913q-37 6 -78 6q-104 0 -185 -41.5t-129.5 -113t-73 -162t-24.5 -195.5zM713 219q39 -8 92 -8q94 0 168 31.5t120.5 82.5t77 121.5t42.5 143.5t12 153q0 126 -35.5 233t-106.5 175z" />
<glyph unicode="&#xd9;" horiz-adv-x="1572" d="M168 651v822h303v-822q0 -79 7 -139t27 -119.5t54 -98t91.5 -62t135.5 -23.5q77 0 134.5 23.5t92 62t55 97.5t27.5 120t7 139v822h303v-822q0 -116 -18 -213.5t-62.5 -185.5t-114 -149t-177.5 -96.5t-247 -35.5q-618 0 -618 680zM500 1761l149 172l367 -229l-98 -131z " />
<glyph unicode="&#xda;" horiz-adv-x="1572" d="M168 651v822h303v-822q0 -79 7 -139t27 -119.5t54 -98t91.5 -62t135.5 -23.5q77 0 134.5 23.5t92 62t55 97.5t27.5 120t7 139v822h303v-822q0 -116 -18 -213.5t-62.5 -185.5t-114 -149t-177.5 -96.5t-247 -35.5q-618 0 -618 680zM653 1704l367 229l149 -172l-417 -188z " />
<glyph unicode="&#xdb;" horiz-adv-x="1572" d="M168 651v822h303v-822q0 -79 7 -139t27 -119.5t54 -98t91.5 -62t135.5 -23.5q77 0 134.5 23.5t92 62t55 97.5t27.5 120t7 139v822h303v-822q0 -116 -18 -213.5t-62.5 -185.5t-114 -149t-177.5 -96.5t-247 -35.5q-618 0 -618 680zM469 1704l317 229l318 -229l-98 -131 l-220 125l-219 -125z" />
<glyph unicode="&#xdc;" horiz-adv-x="1572" d="M168 651v822h303v-822q0 -79 7 -139t27 -119.5t54 -98t91.5 -62t135.5 -23.5q77 0 134.5 23.5t92 62t55 97.5t27.5 120t7 139v822h303v-822q0 -116 -18 -213.5t-62.5 -185.5t-114 -149t-177.5 -96.5t-247 -35.5q-618 0 -618 680zM475 1718q0 68 41 107t107 39 q67 0 108 -39t41 -107q0 -63 -41.5 -101t-107.5 -38q-65 0 -106.5 38.5t-41.5 100.5zM893 1718q0 68 40.5 107t106.5 39q69 0 110.5 -39t41.5 -107q0 -63 -42 -101t-110 -38q-65 0 -106 38t-41 101z" />
<glyph unicode="&#xdd;" horiz-adv-x="1165" d="M16 1473h297q38 -274 140 -496q67 -150 172 -279l270 775h289l-508 -1473h-293l145 414q-198 157 -335 454q-117 256 -177 605zM492 1704l366 229l150 -172l-418 -188z" />
<glyph unicode="&#xdf;" horiz-adv-x="1370" d="M184 0v1116q0 432 535 432q90 0 171 -16.5t152 -51t113.5 -97t42.5 -146.5q0 -56 -16.5 -102.5t-40.5 -78t-48 -59t-40.5 -57.5t-16.5 -61q0 -29 19.5 -56t50 -50.5t68 -49.5t75 -58t68 -69.5t50 -91t19.5 -115.5q0 -108 -64.5 -201t-173.5 -147.5t-235 -54.5 q-155 0 -303 57l31 229q42 -19 63.5 -27.5t74.5 -21t106 -12.5q88 0 134 44t46 114q0 44 -34.5 89.5t-83.5 86.5t-98 85t-83.5 100.5t-34.5 117.5q0 45 17.5 85t42 70.5t49 59.5t42 66t17.5 77q0 62 -50.5 93.5t-131.5 31.5q-102 0 -169 -55t-67 -158v-1118h-297z" />
<glyph unicode="&#xe0;" horiz-adv-x="1218" d="M88 369q0 74 21 184q355 140 665 149v46q0 80 -52 116.5t-130 36.5q-151 0 -416 -92l-33 231q224 78 451 78q101 0 185.5 -19t151.5 -57.5t104.5 -104.5t37.5 -153q0 -318 7.5 -476.5t35.5 -307.5h-297q-22 83 -14 197l-6 4q-22 -40 -39 -66t-48.5 -61t-64.5 -56t-83 -36 t-109 -15q-169 0 -268 108.5t-99 293.5zM342 1393l150 172l366 -230l-98 -131zM352 385q0 -96 41.5 -146.5t104.5 -50.5q70 0 133.5 50.5t100 126t36.5 151.5q-202 -8 -416 -108v-23z" />
<glyph unicode="&#xe1;" horiz-adv-x="1218" d="M88 369q0 74 21 184q355 140 665 149v46q0 80 -52 116.5t-130 36.5q-151 0 -416 -92l-33 231q224 78 451 78q101 0 185.5 -19t151.5 -57.5t104.5 -104.5t37.5 -153q0 -318 7.5 -476.5t35.5 -307.5h-297q-22 83 -14 197l-6 4q-22 -40 -39 -66t-48.5 -61t-64.5 -56t-83 -36 t-109 -15q-169 0 -268 108.5t-99 293.5zM352 385q0 -96 41.5 -146.5t104.5 -50.5q70 0 133.5 50.5t100 126t36.5 151.5q-202 -8 -416 -108v-23zM432 1335l367 230l149 -172l-418 -189z" />
<glyph unicode="&#xe2;" horiz-adv-x="1218" d="M88 369q0 74 21 184q355 140 665 149v46q0 80 -52 116.5t-130 36.5q-151 0 -416 -92l-33 231q224 78 451 78q101 0 185.5 -19t151.5 -57.5t104.5 -104.5t37.5 -153q0 -318 7.5 -476.5t35.5 -307.5h-297q-22 83 -14 197l-6 4q-22 -40 -39 -66t-48.5 -61t-64.5 -56t-83 -36 t-109 -15q-169 0 -268 108.5t-99 293.5zM291 1335l317 230l318 -230l-99 -131l-219 125l-219 -125zM352 385q0 -96 41.5 -146.5t104.5 -50.5q70 0 133.5 50.5t100 126t36.5 151.5q-202 -8 -416 -108v-23z" />
<glyph unicode="&#xe3;" horiz-adv-x="1218" d="M88 369q0 74 21 184q355 140 665 149v46q0 80 -52 116.5t-130 36.5q-151 0 -416 -92l-33 231q224 78 451 78q101 0 185.5 -19t151.5 -57.5t104.5 -104.5t37.5 -153q0 -318 7.5 -476.5t35.5 -307.5h-297q-22 83 -14 197l-6 4q-22 -40 -39 -66t-48.5 -61t-64.5 -56t-83 -36 t-109 -15q-169 0 -268 108.5t-99 293.5zM240 1354q16 38 41.5 79.5t64.5 79t72 37.5q29 0 198 -39q160 -41 191 -41q19 0 62 22t75 46l72 -100q-37 -62 -96.5 -127.5t-98.5 -65.5q-49 0 -198 46t-199 46q-21 0 -95 -71q-7 -6 -10 -9zM352 385q0 -96 41.5 -146.5t104.5 -50.5 q70 0 133.5 50.5t100 126t36.5 151.5q-202 -8 -416 -108v-23z" />
<glyph unicode="&#xe4;" horiz-adv-x="1218" d="M88 369q0 74 21 184q355 140 665 149v46q0 80 -52 116.5t-130 36.5q-151 0 -416 -92l-33 231q224 78 451 78q101 0 185.5 -19t151.5 -57.5t104.5 -104.5t37.5 -153q0 -318 7.5 -476.5t35.5 -307.5h-297q-22 83 -14 197l-6 4q-22 -40 -39 -66t-48.5 -61t-64.5 -56t-83 -36 t-109 -15q-169 0 -268 108.5t-99 293.5zM276 1372q0 68 41 107t107 39q67 0 108 -39t41 -107q0 -63 -41.5 -101t-107.5 -38q-65 0 -106.5 38.5t-41.5 100.5zM352 385q0 -96 41.5 -146.5t104.5 -50.5q70 0 133.5 50.5t100 126t36.5 151.5q-202 -8 -416 -108v-23zM694 1372 q0 68 41 107t107 39q68 0 109.5 -39t41.5 -107q0 -63 -41.5 -101t-109.5 -38q-65 0 -106.5 38.5t-41.5 100.5z" />
<glyph unicode="&#xe5;" horiz-adv-x="1218" d="M88 369q0 74 21 184q355 140 665 149v46q0 80 -52 116.5t-130 36.5q-151 0 -416 -92l-33 231q224 78 451 78q101 0 185.5 -19t151.5 -57.5t104.5 -104.5t37.5 -153q0 -318 7.5 -476.5t35.5 -307.5h-297q-22 83 -14 197l-6 4q-22 -40 -39 -66t-48.5 -61t-64.5 -56t-83 -36 t-109 -15q-169 0 -268 108.5t-99 293.5zM344 1436q0 120 72.5 187t193.5 67q117 0 190.5 -67.5t73.5 -186.5q0 -112 -74 -182t-190 -70q-120 0 -193 69.5t-73 182.5zM352 385q0 -96 41.5 -146.5t104.5 -50.5q70 0 133.5 50.5t100 126t36.5 151.5q-202 -8 -416 -108v-23z M508 1436q0 -38 27.5 -66.5t74.5 -28.5q43 0 71 29t28 66q0 46 -28.5 74t-70.5 28q-45 0 -73.5 -28.5t-28.5 -73.5z" />
<glyph unicode="&#xe6;" horiz-adv-x="1873" d="M72 369q0 58 20 184q359 140 666 149v46q0 80 -52 116.5t-131 36.5q-89 0 -183.5 -23t-229.5 -69l-35 231q224 78 453 78q265 0 391 -123q158 123 364 123q119 0 209 -31t143 -87.5t79 -128.5t26 -160q0 -112 -12 -203q-368 -61 -723 -47q5 -46 24.5 -87t56 -78.5 t100 -60t146.5 -22.5q152 0 322 80l51 -199q-106 -60 -211 -93.5t-233 -33.5q-158 0 -275.5 66t-185.5 174q-167 -240 -412 -240q-169 0 -268.5 109t-99.5 293zM338 383q0 -84 37 -139.5t108 -55.5q104 0 186.5 105t82.5 223q-90 -3 -217.5 -35.5t-196.5 -68.5v-29z M1059 659q276 0 461 27l2 47q0 80 -48 129t-139 49q-105 0 -177.5 -70t-98.5 -182z" />
<glyph unicode="&#xe7;" horiz-adv-x="1140" d="M86 543q0 252 170.5 413.5t437.5 161.5q195 0 387 -104l-100 -203q-175 88 -297 88q-58 0 -107.5 -18t-92 -56.5t-67 -109t-24.5 -166.5q0 -68 16.5 -125.5t53 -107.5t105 -78.5t163.5 -28.5q111 0 281 67l65 -210q-199 -90 -383 -99q-7 -46 -2 -67q88 -36 88 -131 q0 -103 -96 -160q-101 -58 -287 -58l-37 152q197 0 197 70q0 34 -29.5 50.5t-76.5 16.5q9 94 34 148q-191 47 -295 195t-104 360z" />
<glyph unicode="&#xe8;" horiz-adv-x="1220" d="M80 543q0 164 79.5 296.5t214 205.5t294.5 73q96 0 173 -20.5t129.5 -57t87.5 -88t50.5 -111.5t15.5 -130q0 -112 -12 -203q-368 -61 -723 -47q5 -46 24.5 -87t56.5 -78.5t100.5 -60t146.5 -22.5q151 0 321 80l52 -199q-106 -60 -211.5 -93.5t-233.5 -33.5 q-261 0 -413 159.5t-152 416.5zM352 1393l150 172l366 -230l-98 -131zM391 659q278 0 463 27v47q0 80 -47.5 129t-138.5 49q-105 0 -178 -70t-99 -182z" />
<glyph unicode="&#xe9;" horiz-adv-x="1220" d="M80 543q0 164 79.5 296.5t214 205.5t294.5 73q96 0 173 -20.5t129.5 -57t87.5 -88t50.5 -111.5t15.5 -130q0 -112 -12 -203q-368 -61 -723 -47q5 -46 24.5 -87t56.5 -78.5t100.5 -60t146.5 -22.5q151 0 321 80l52 -199q-106 -60 -211.5 -93.5t-233.5 -33.5 q-261 0 -413 159.5t-152 416.5zM391 659q278 0 463 27v47q0 80 -47.5 129t-138.5 49q-105 0 -178 -70t-99 -182zM397 1335l367 230l149 -172l-417 -189z" />
<glyph unicode="&#xea;" horiz-adv-x="1220" d="M80 543q0 164 79.5 296.5t214 205.5t294.5 73q96 0 173 -20.5t129.5 -57t87.5 -88t50.5 -111.5t15.5 -130q0 -112 -12 -203q-368 -61 -723 -47q5 -46 24.5 -87t56.5 -78.5t100.5 -60t146.5 -22.5q151 0 321 80l52 -199q-106 -60 -211.5 -93.5t-233.5 -33.5 q-261 0 -413 159.5t-152 416.5zM350 1335l318 230l317 -230l-98 -131l-219 125l-219 -125zM391 659q278 0 463 27v47q0 80 -47.5 129t-138.5 49q-105 0 -178 -70t-99 -182z" />
<glyph unicode="&#xeb;" horiz-adv-x="1220" d="M80 543q0 164 79.5 296.5t214 205.5t294.5 73q96 0 173 -20.5t129.5 -57t87.5 -88t50.5 -111.5t15.5 -130q0 -112 -12 -203q-368 -61 -723 -47q5 -46 24.5 -87t56.5 -78.5t100.5 -60t146.5 -22.5q151 0 321 80l52 -199q-106 -60 -211.5 -93.5t-233.5 -33.5 q-261 0 -413 159.5t-152 416.5zM301 1372q0 68 41 107t107 39q67 0 108 -39t41 -107q0 -63 -41.5 -101t-107.5 -38q-65 0 -106.5 38.5t-41.5 100.5zM391 659q278 0 463 27v47q0 80 -47.5 129t-138.5 49q-105 0 -178 -70t-99 -182zM719 1372q0 68 40.5 107t106.5 39 q69 0 110.5 -39t41.5 -107q0 -63 -42 -101t-110 -38q-65 0 -106 38t-41 101z" />
<glyph unicode="&#xec;" horiz-adv-x="614" d="M131 1393l150 172l366 -230l-98 -131zM307 573v514h299v-514q0 -345 43 -573h-299q-43 180 -43 573z" />
<glyph unicode="&#xed;" horiz-adv-x="614" d="M131 1335l367 230l149 -172l-418 -189zM172 573v514h299v-514q0 -345 43 -573h-299q-43 180 -43 573z" />
<glyph unicode="&#xee;" horiz-adv-x="614" d="M131 1335l318 230l317 -230l-98 -131l-219 125l-220 -125zM289 573v514h299v-514q0 -345 43 -573h-299q-43 180 -43 573z" />
<glyph unicode="&#xef;" horiz-adv-x="614" d="M131 1372q0 68 41 107t107 39q67 0 108 -39t41 -107q0 -63 -41.5 -101t-107.5 -38q-65 0 -106.5 38.5t-41.5 100.5zM330 573v514h299v-514q0 -345 43 -573h-299q-43 180 -43 573zM549 1372q0 68 40.5 107t106.5 39q69 0 110.5 -39t41.5 -107q0 -63 -42 -101t-110 -38 q-65 0 -106 38t-41 101z" />
<glyph unicode="&#xf1;" horiz-adv-x="1361" d="M129 1087h297q20 -75 14 -206l6 -2q122 239 369 239q107 0 184.5 -33.5t121.5 -95.5t64.5 -139.5t20.5 -175.5v-674h-299v674q0 223 -129 223q-126 0 -216.5 -159t-90.5 -419v-319h-299v512q0 350 -43 575zM289 1354q16 38 41.5 79.5t64.5 79t72 37.5q30 0 199 -39 q160 -41 190 -41q19 0 62 22t75 46l72 -100q-37 -62 -96.5 -127.5t-98.5 -65.5q-49 0 -198 46t-199 46q-4 0 -8.5 -1.5t-9.5 -4.5t-10 -6.5t-12 -9t-12 -10t-13 -11.5t-12.5 -11.5t-13.5 -13t-13 -12.5z" />
<glyph unicode="&#xf2;" horiz-adv-x="1302" d="M80 561q0 246 161 401.5t410 155.5q139 0 249 -43t180.5 -118.5t107 -176.5t35.5 -219q-2 -272 -154 -433t-416 -161q-277 0 -425 159t-148 435zM338 1393l149 172l367 -230l-98 -131zM387 561q0 -180 68.5 -272t197.5 -92q134 0 198 89.5t64 274.5q0 166 -63.5 251 t-200.5 85q-129 0 -196.5 -84.5t-67.5 -251.5z" />
<glyph unicode="&#xf3;" horiz-adv-x="1302" d="M80 561q0 246 161 401.5t410 155.5q139 0 249 -43t180.5 -118.5t107 -176.5t35.5 -219q-2 -272 -154 -433t-416 -161q-277 0 -425 159t-148 435zM387 561q0 -180 68.5 -272t197.5 -92q134 0 198 89.5t64 274.5q0 166 -63.5 251t-200.5 85q-129 0 -196.5 -84.5 t-67.5 -251.5zM438 1335l367 230l149 -172l-417 -189z" />
<glyph unicode="&#xf4;" horiz-adv-x="1302" d="M80 561q0 246 161 401.5t410 155.5q139 0 249 -43t180.5 -118.5t107 -176.5t35.5 -219q-2 -272 -154 -433t-416 -161q-277 0 -425 159t-148 435zM334 1335l317 230l318 -230l-99 -131l-219 125l-219 -125zM387 561q0 -180 68.5 -272t197.5 -92q134 0 198 89.5t64 274.5 q0 166 -63.5 251t-200.5 85q-129 0 -196.5 -84.5t-67.5 -251.5z" />
<glyph unicode="&#xf5;" horiz-adv-x="1302" d="M80 561q0 246 161 401.5t410 155.5q139 0 249 -43t180.5 -118.5t107 -176.5t35.5 -219q-2 -272 -154 -433t-416 -161q-277 0 -425 159t-148 435zM264 1354q16 38 41.5 79.5t64.5 79t72 37.5q30 0 199 -39q160 -41 190 -41q19 0 62.5 22t75.5 46l71 -100q-37 -63 -96 -128 t-98 -65q-49 0 -198 46t-199 46q-21 0 -95 -71q-7 -6 -10 -9zM387 561q0 -180 68.5 -272t197.5 -92q134 0 198 89.5t64 274.5q0 166 -63.5 251t-200.5 85q-129 0 -196.5 -84.5t-67.5 -251.5z" />
<glyph unicode="&#xf6;" horiz-adv-x="1302" d="M80 561q0 246 161 401.5t410 155.5q139 0 249 -43t180.5 -118.5t107 -176.5t35.5 -219q-2 -272 -154 -433t-416 -161q-277 0 -425 159t-148 435zM293 1372q0 68 40.5 107t106.5 39q67 0 108.5 -39t41.5 -107q0 -63 -42 -101t-108 -38q-65 0 -106 38t-41 101zM387 561 q0 -180 68.5 -272t197.5 -92q134 0 198 89.5t64 274.5q0 166 -63.5 251t-200.5 85q-129 0 -196.5 -84.5t-67.5 -251.5zM711 1372q0 68 40.5 107t106.5 39q69 0 110.5 -39t41.5 -107q0 -63 -42 -101t-110 -38q-65 0 -106 38t-41 101z" />
<glyph unicode="&#xf7;" horiz-adv-x="602" d="M-268 440v244h1142v-244h-1142zM131 133q0 78 47 123t125 45q79 0 126.5 -44.5t47.5 -123.5q0 -74 -48 -119t-126 -45q-77 0 -124.5 45.5t-47.5 118.5zM131 981q0 78 47 123t125 45q79 0 126.5 -44.5t47.5 -123.5q0 -74 -48 -119t-126 -45q-77 0 -124.5 45.5t-47.5 118.5 z" />
<glyph unicode="&#xf8;" horiz-adv-x="1302" d="M80 561q0 246 161 401.5t410 155.5q74 0 123 -10l66 166l168 -70l-62 -149q135 -68 206 -198t71 -296q-2 -272 -154 -433t-416 -161q-47 0 -131 13l-73 -183l-179 64l72 178q-129 70 -195.5 203.5t-66.5 318.5zM387 561q0 -170 64 -258l233 590q-24 2 -76 -2 q-109 -11 -165 -94.5t-56 -235.5zM610 201q34 -5 76 -2q229 17 229 362q0 167 -67 248z" />
<glyph unicode="&#xf9;" horiz-adv-x="1347" d="M160 414v673h299v-673q0 -35 4.5 -68t16.5 -69t38.5 -58t63.5 -22q82 0 144.5 55t96.5 143.5t50 182.5t16 190v319h299v-563q0 -300 43 -524h-297q-20 71 -14 205l-7 4q-62 -110 -153.5 -176t-210.5 -66q-106 0 -183 34t-121 96.5t-64.5 140.5t-20.5 176zM399 1393 l150 172l366 -230l-98 -131z" />
<glyph unicode="&#xfa;" horiz-adv-x="1347" d="M160 414v673h299v-673q0 -35 4.5 -68t16.5 -69t38.5 -58t63.5 -22q82 0 144.5 55t96.5 143.5t50 182.5t16 190v319h299v-563q0 -300 43 -524h-297q-20 71 -14 205l-7 4q-62 -110 -153.5 -176t-210.5 -66q-106 0 -183 34t-121 96.5t-64.5 140.5t-20.5 176zM469 1335 l367 230l149 -172l-418 -189z" />
<glyph unicode="&#xfb;" horiz-adv-x="1347" d="M160 414v673h299v-673q0 -35 4.5 -68t16.5 -69t38.5 -58t63.5 -22q82 0 144.5 55t96.5 143.5t50 182.5t16 190v319h299v-563q0 -300 43 -524h-297q-20 71 -14 205l-7 4q-62 -110 -153.5 -176t-210.5 -66q-106 0 -183 34t-121 96.5t-64.5 140.5t-20.5 176zM356 1335 l318 230l317 -230l-98 -131l-219 125l-219 -125z" />
<glyph unicode="&#xfc;" horiz-adv-x="1347" d="M160 414v673h299v-673q0 -35 4.5 -68t16.5 -69t38.5 -58t63.5 -22q82 0 144.5 55t96.5 143.5t50 182.5t16 190v319h299v-563q0 -300 43 -524h-297q-20 71 -14 205l-7 4q-62 -110 -153.5 -176t-210.5 -66q-106 0 -183 34t-121 96.5t-64.5 140.5t-20.5 176zM311 1372 q0 68 41 107t107 39q67 0 108 -39t41 -107q0 -63 -41.5 -101t-107.5 -38q-65 0 -106.5 38.5t-41.5 100.5zM729 1372q0 68 41 107t107 39q68 0 109.5 -39t41.5 -107q0 -63 -41.5 -101t-109.5 -38q-65 0 -106.5 38.5t-41.5 100.5z" />
<glyph unicode="&#xfd;" horiz-adv-x="1110" d="M59 1087h287q16 -272 103 -489q41 -102 90.5 -165.5t95.5 -74.5q92 301 188 729h271q-201 -963 -394 -1241q-82 -119 -212.5 -187t-260.5 -71q-47 -1 -91.5 8t-67.5 19l34 233q41 -8 88 -8q109 0 207 67.5t146 184.5q-241 62 -371 402q-89 239 -113 593zM416 1335 l366 230l150 -172l-418 -189z" />
<glyph unicode="&#xff;" horiz-adv-x="1110" d="M59 1087h287q16 -272 103 -489q41 -102 90.5 -165.5t95.5 -74.5q92 301 188 729h271q-201 -963 -394 -1241q-82 -119 -212.5 -187t-260.5 -71q-47 -1 -91.5 8t-67.5 19l34 233q41 -8 88 -8q109 0 207 67.5t146 184.5q-241 62 -371 402q-89 239 -113 593zM233 1372 q0 68 41 107t107 39q67 0 108 -39t41 -107q0 -63 -41.5 -101t-107.5 -38q-65 0 -106.5 38.5t-41.5 100.5zM651 1372q0 68 41 107t107 39q68 0 109.5 -39t41.5 -107q0 -63 -41.5 -101t-109.5 -38q-65 0 -106.5 38.5t-41.5 100.5z" />
<glyph unicode="&#x152;" horiz-adv-x="2060" d="M86 743q0 155 52 290t145 233t229 154.5t297 56.5q30 0 85.5 -2t82.5 -2h958l-8 -236l-659 10v-393l610 6l-8 -233l-602 6v-406l667 13l-8 -240h-928q-41 0 -100 -6q-7 0 -50 -3t-61 -3q-228 0 -387.5 94.5t-237 262.5t-77.5 398zM395 743q0 -76 12 -148t42 -142t75 -122 t115.5 -84t159.5 -32q103 0 166 16v1002q-74 18 -156 18q-104 0 -185 -40.5t-130 -111.5t-74 -161t-25 -195z" />
<glyph unicode="&#x153;" horiz-adv-x="2041" d="M80 561q0 246 161 401.5t410 155.5q287 0 426 -180q74 79 178.5 129.5t231.5 50.5q119 0 209 -31t143 -87.5t79 -128.5t26 -160q0 -104 -13 -203q-368 -61 -723 -47q5 -46 24.5 -87t56.5 -78.5t100.5 -60t146.5 -22.5q152 0 322 80l51 -199q-106 -60 -211.5 -93.5 t-233.5 -33.5q-244 0 -405 172q-148 -172 -406 -172q-277 0 -425 159t-148 435zM383 561q0 -180 69 -272t201 -92q134 0 198 89.5t64 274.5q0 166 -63.5 251t-200.5 85q-132 0 -200 -84.5t-68 -251.5zM1210 659q276 0 461 27l2 47q0 80 -47.5 129t-138.5 49q-105 0 -178 -70 t-99 -182z" />
<glyph unicode="&#x178;" horiz-adv-x="1165" d="M16 1473h297q38 -274 140 -496q67 -150 172 -279l270 775h289l-508 -1473h-293l145 414q-198 157 -335 454q-117 256 -177 605zM270 1718q0 68 41 107t107 39q67 0 108 -39t41 -107q0 -63 -41.5 -101t-107.5 -38q-65 0 -106.5 38.5t-41.5 100.5zM688 1718q0 68 41 107 t107 39q68 0 109.5 -39t41.5 -107q0 -63 -41.5 -101t-109.5 -38q-65 0 -106.5 38.5t-41.5 100.5z" />
<glyph unicode="&#x2c6;" horiz-adv-x="940" d="M154 1335l317 230l317 -230l-98 -131l-219 125l-219 -125z" />
<glyph unicode="&#x2dc;" horiz-adv-x="923" d="M82 1354q16 38 41.5 79.5t64.5 79t72 37.5q30 0 199 -39q160 -41 190 -41q19 0 62 22t75 46l72 -100q-37 -63 -96 -128t-98 -65q-49 0 -198.5 46t-199.5 46q-4 0 -8.5 -1.5t-9.5 -4.5t-10 -6.5t-12 -9t-12 -10t-13 -11.5t-12.5 -11.5t-13.5 -13t-13 -12.5z" />
<glyph unicode="&#x2000;" horiz-adv-x="1012" />
<glyph unicode="&#x2001;" horiz-adv-x="2025" />
<glyph unicode="&#x2002;" horiz-adv-x="1012" />
<glyph unicode="&#x2003;" horiz-adv-x="2025" />
<glyph unicode="&#x2004;" horiz-adv-x="675" />
<glyph unicode="&#x2005;" horiz-adv-x="506" />
<glyph unicode="&#x2006;" horiz-adv-x="337" />
<glyph unicode="&#x2007;" horiz-adv-x="337" />
<glyph unicode="&#x2008;" horiz-adv-x="253" />
<glyph unicode="&#x2009;" horiz-adv-x="405" />
<glyph unicode="&#x200a;" horiz-adv-x="112" />
<glyph unicode="&#x2010;" horiz-adv-x="794" d="M78 446l8 232h619l10 -232h-637z" />
<glyph unicode="&#x2011;" horiz-adv-x="794" d="M78 446l8 232h619l10 -232h-637z" />
<glyph unicode="&#x2012;" horiz-adv-x="794" d="M78 446l8 232h619l10 -232h-637z" />
<glyph unicode="&#x2013;" horiz-adv-x="1038" d="M-2 543l6 243h1030l6 -243h-1042z" />
<glyph unicode="&#x2014;" horiz-adv-x="2072" d="M0 543l6 243h2058l7 -243h-2071z" />
<glyph unicode="&#x2018;" horiz-adv-x="526" d="M61 1040q67 314 197 539l176 -61q-71 -257 -112 -478h-261z" />
<glyph unicode="&#x2019;" horiz-adv-x="528" d="M98 1102q75 270 113 477h260q-67 -314 -197 -539z" />
<glyph unicode="&#x201a;" horiz-adv-x="583" d="M88 -217q75 270 113 477h260q-67 -314 -197 -539z" />
<glyph unicode="&#x201c;" horiz-adv-x="923" d="M92 1040q36 162 82 290t117 249l174 -61q-74 -268 -113 -478h-260zM481 1040q67 314 197 539l176 -61q-74 -268 -113 -478h-260z" />
<glyph unicode="&#x201d;" horiz-adv-x="923" d="M115 1102q72 259 112 477h260q-73 -327 -198 -539zM502 1102q72 259 112 477h260q-68 -316 -196 -539z" />
<glyph unicode="&#x201e;" horiz-adv-x="931" d="M80 -215q75 270 113 477h260q-72 -322 -199 -538zM467 -215q75 270 113 477h260q-67 -312 -197 -538z" />
<glyph unicode="&#x2022;" horiz-adv-x="802" d="M72 594q0 151 89 234t240 83q152 0 241 -83t89 -234q0 -138 -90.5 -223.5t-239.5 -85.5q-148 0 -238.5 85.5t-90.5 223.5z" />
<glyph unicode="&#x2026;" horiz-adv-x="1660" d="M111 133q0 78 47 123t125 45q79 0 126.5 -44.5t47.5 -123.5q0 -74 -48 -119t-126 -45q-77 0 -124.5 45.5t-47.5 118.5zM655 133q0 78 47 123t123 45q79 0 126.5 -44.5t47.5 -123.5q0 -74 -48 -119t-126 -45q-75 0 -122.5 45.5t-47.5 118.5zM1204 133q0 78 47 123t125 45 q79 0 126.5 -44.5t47.5 -123.5q0 -74 -48 -119t-126 -45q-77 0 -124.5 45.5t-47.5 118.5z" />
<glyph unicode="&#x202f;" horiz-adv-x="405" />
<glyph unicode="&#x2039;" horiz-adv-x="694" d="M88 549l340 495l193 -71l-195 -430l192 -426l-190 -94z" />
<glyph unicode="&#x203a;" horiz-adv-x="694" d="M74 117l194 426l-194 430l192 71l338 -495l-340 -526z" />
<glyph unicode="&#x205f;" horiz-adv-x="506" />
<glyph unicode="&#x20ac;" d="M47 467l6 180l121 2q-2 33 -2 96v29h-125l6 180l135 2q38 247 204 393t429 146q244 0 463 -131l-125 -207q-96 52 -173.5 75t-166.5 23q-268 0 -327 -294l430 8l12 -191l-459 -2v-20q0 -68 2 -103l445 9l12 -191l-430 -2q33 -113 117 -170t249 -57q158 0 365 86l70 -222 q-145 -68 -257 -101.5t-237 -33.5q-238 0 -394 125t-214 371h-156z" />
<glyph unicode="&#xe000;" horiz-adv-x="1085" d="M0 0v1085h1085v-1085h-1085z" />
</font>
</defs>
</svg>
