<?xml version="1.0" encoding="utf-8"?>
<!-- Generator: Adobe Illustrator 26.0.1, SVG Export Plug-In . SVG Version: 6.00 Build 0)  -->
<svg version="1.1" id="Capa_1" xmlns="http://www.w3.org/2000/svg" xmlns:xlink="http://www.w3.org/1999/xlink" x="0px" y="0px"
	 width="129.1px" height="108px" viewBox="0 0 129.1 108" style="enable-background:new 0 0 129.1 108;" xml:space="preserve">
<style type="text/css">
	.st0{fill:none;}
	.st1{fill-rule:evenodd;clip-rule:evenodd;fill:#1D1D1B;}
	.st2{fill:#1D1D1B;}
</style>
<g id="Capa_2_00000097460521017661689970000007413892017263766459_">
	<g id="Capa_2-2">
		<rect class="st0" width="129.1" height="108"/>
		<path class="st1" d="M51.8,30.3c0,0-0.1-2.5-0.1-2.7c0-0.2-0.1-0.4-0.3-0.5c-0.3-0.1-0.6-0.1-0.9-0.1c-0.5,0-9,0.1-10.4,0.1
			s-1.7,0-1.8,0c-0.2,0-0.4,0.1-0.5,0.2c-0.1,0.2-0.2,0.4-0.2,0.6c0,0.3,0.1,5.2,0.2,9.8s0.2,9.8,0.2,10.1c0.1,0.6,0.3,1.1,0.6,1.6
			c0.2,0.3,0.6,0.5,1,0.5c0.3,0,6.3,0.3,6.6,0.4s0.9,0,1,0.4s0.1,4.3,0.1,4.7s0,0.5,0,0.6c0,0.2,0.1,0.4,0.2,0.5
			c0.2,0.2,1.5,1.2,2,1.5s1.1,0.7,1.3,0.8c0.2,0.1,0.4,0.2,0.6,0.2l3.3,0.2c0.5,0,1,0,1,0.3s0.3,5.8,0.3,7v2.1c0,0.2,0,0.5,0.2,0.5
			s6.9,0.1,9.5,0.1s4.8,0,5.1,0c0.3,0,0.5-0.1,0.7-0.3c0.2-0.2,0.3-0.4,0.4-0.7c0.1-0.2,0.2-0.5,0.2-0.7c0-0.4,0-7.9,0-8.5
			c-0.1-0.5-0.1-1,0-1.5c0.3-0.4,0.6-0.8,1-1.1c0.1-0.1,0.2-0.2,0.8-0.2s6.2-0.4,7.9-0.5s3.1-0.2,3.4-0.2s0.7,0,0.8-0.3
			s1.4-2.5,1.4-2.7c0.1-0.3,0.2-0.6,0.2-0.9v-1.9c0-0.2,0-0.4,0.2-0.5c0.7-0.6,1.7-0.7,2.5-0.4c0.6,0.1,1.8,0.4,2.2,0.5
			c0.4,0.1,0.8,0.1,1.2,0c0.3-0.1,1.4-0.5,1.8-0.7s0.9-0.3,1-0.8c0.1-0.4,0.1-0.9,0.1-1.3V33.7c0-0.8,0.1-1.6-0.1-1.8
			c-0.2-0.2-0.4-0.3-0.7-0.3c-0.3-0.1-2.8-0.4-3.9-0.5s-1.6-0.2-1.8-0.3c-0.3,0-0.6-0.2-0.8-0.4c-0.3-0.2-1.4-1.5-1.7-1.8
			S87.2,28,87,28h-9.4c-0.4,0-0.4,0.2-0.4,0.3s-0.1,2.9-0.1,3.2s0.2,1,0.4,1.1c-0.1-0.1,1.4,0.2,2.1,0.2c0.4,0,0.8,0.1,1.2,0.2
			c0.4,0.1,1.4,0.4,1.8,0.5c0.5,0,1,0.2,1.4,0.4c0.3,0.5,0.4,1.1,0.6,1.7c0.1,0.5,0.3,2.7,0.4,3.2c0,0.4,0,0.9,0,1.3
			c0,0.3-0.1,0.5-0.3,0.7c-0.4,0.1-0.8,0.2-1.2,0.2c-0.5,0-2.2,0-2.4,0s-0.3,0-0.3-0.3s-0.3-3.3-0.3-3.5s-0.1-0.3-0.3-0.3h-4
			c-0.3,0-0.6,0.1-0.6,0.5s0.3,5,0.4,5.9s0.2,1.9,0.2,2.1s0.1,0.4,0.3,0.4s2.5-0.1,2.8-0.2s1-0.1,1.1,0.3s0.1,3.3,0.1,3.5
			s0.1,0.5-0.3,0.6s-3.9,0.5-5.2,0.6c-1.4,0.1-1.9,0.2-2,0.2c-0.3,0-0.5-0.1-0.7-0.4c-0.2-1-0.3-2.1-0.3-3.2c0-0.6,0-1.4-0.4-1.5
			c-0.3-0.2-0.7-0.4-1.2-0.4c-0.8-0.1-4.8-0.5-6-0.5s-1.8-0.2-1.9,0c-0.3,0.7-0.5,1.5-0.4,2.3c0,0.6,0,1.3,0.1,1.9
			c0.1,0.3,0.3,0.5,0.6,0.5c0.8,0,1.5,0.1,2.3,0.2c0.4,0.1,1.1,0.3,1.2,0.8c0.1,0.3,0.2,0.7,0.2,1.1c0,0.4,0,6.6,0,7
			s0.1,0.8-0.3,1.1s-0.5,0.2-1,0.2s-2.2-0.2-2.5-0.2c-0.4-0.1-0.7-0.3-0.8-0.6c-0.1-1.1-0.2-2.3-0.2-3.5c0-0.6,0.2-1.1-0.5-1.2
			S59,54,58.1,54l-3.5-0.1c-0.5,0-0.8,0-1-0.3c-0.2-0.4-0.4-0.9-0.3-1.4c0-0.6,0-1.7,0-1.9c0-0.3,0.2-0.5,0.4-0.6
			c0.6-0.1,1.2-0.2,1.8-0.4c0.5-0.1,0.9-0.3,1.4-0.6c0.2-0.1,0.2-0.2,0.2-0.7c0-0.8,0-1.6-0.1-2.4c-0.1-0.7-0.2-1.3-0.4-2
			c0-0.2-0.1-0.3-0.5-0.2s-2.3,0.5-2.7,0.6c-0.6,0.1-1.3-0.1-1.9-0.3c-0.5-0.2-0.9-0.5-1.3-0.8c-0.3-0.3-0.4-0.6-0.4-1
			c0.1-0.3,1-2,1.5-3s1.1-2.5,1.2-2.8c0.1-0.3,0.4-0.5,0.7-0.4c0,0,0,0,0,0c0.4,0.1,1.2,0.3,1.7,0.5s0.9,0.4,1,0.8
			c0.1,0.3,0.1,0.7,0.1,1c0,0.3,0,0.5,0.1,0.6s2.9,0.7,3.4,0.8s0.9,0.2,1-0.1s0.7-2.6,0.8-3.3s0.1-2.3,0.1-2.7s0-0.7-0.3-0.8
			s-2-0.8-2.3-0.8c-0.6-0.1-1.2-0.1-1.8-0.1c-0.5,0-2.5-0.2-3.4-0.3L52.3,31c-0.2,0-0.4-0.1-0.5-0.3C51.8,30.5,51.8,30.4,51.8,30.3"
			/>
		<path class="st1" d="M43.2,20.4c0-0.4,0.4-0.8,0.8-0.8c0.5,0,0.8,0.4,0.8,0.8c0,0,0,0,0,0H43.2 M44.8,21.1
			c-0.1,0.4-0.4,0.6-0.8,0.6c-0.5,0-0.9-0.3-0.9-0.8c0-0.1,0-0.1,0-0.2h2.2c0-0.7-0.3-1.6-1.3-1.6c-0.8,0-1.4,0.6-1.4,1.4
			c0,0,0,0.1,0,0.1c0,0.9,0.5,1.5,1.4,1.5c0.6,0,1.1-0.4,1.2-1L44.8,21.1z"/>
		<path class="st2" d="M45.8,22.1h0.5v-1.8c0-0.4,0.4-0.7,0.8-0.7c0.4,0,0.5,0.3,0.5,0.6v1.9h0.5v-1.8c0-0.4,0.3-0.7,0.7-0.7
			c0,0,0.1,0,0.1,0c0.5,0,0.5,0.3,0.5,0.6v1.9h0.5V20c0-0.6-0.4-0.8-1-0.8c-0.4,0-0.7,0.2-0.9,0.5c-0.1-0.3-0.4-0.5-0.8-0.5
			c-0.4,0-0.7,0.2-0.9,0.5l0,0v-0.4h-0.5L45.8,22.1"/>
		<path class="st1" d="M53.1,21.7H53c-0.2,0-0.2-0.1-0.2-0.3v-1.5c0-0.7-0.6-0.8-1.1-0.8s-1.2,0.2-1.2,1H51c0-0.4,0.3-0.5,0.7-0.5
			s0.6,0.1,0.6,0.5s-0.4,0.3-1,0.4s-1,0.2-1,0.9s0.4,0.8,1,0.8c0.4,0,0.8-0.2,1-0.5c0,0.3,0.2,0.5,0.4,0.5c0.1,0,0.2,0,0.3-0.1
			L53.1,21.7 M52.3,21.1c0,0.3-0.3,0.6-0.9,0.6c-0.3,0-0.5-0.1-0.5-0.4s0.3-0.5,0.6-0.5c0.3,0,0.6-0.1,0.9-0.2V21.1z"/>
		<path class="st2" d="M53.5,22.1H54v-1.6c-0.1-0.4,0.3-0.8,0.7-0.9c0,0,0.1,0,0.1,0c0.3,0,0.6,0.2,0.6,0.5c0,0,0,0.1,0,0.1v1.9h0.5
			v-1.9c0-0.6-0.2-1-1-1c-0.4,0-0.7,0.2-0.9,0.5l0,0v-0.5h-0.5L53.5,22.1"/>
		<path class="st2" d="M58.8,18.3h-0.5v0.9h-0.5v0.4h0.5v1.8c0,0.5,0.2,0.6,0.7,0.6h0.4v-0.4h-0.2c-0.3,0-0.3,0-0.3-0.2v-1.8h0.6
			v-0.4h-0.6V18.3"/>
		<path class="st1" d="M62.5,21.7h-0.1c-0.2,0-0.2-0.1-0.2-0.3v-1.5c0-0.7-0.6-0.8-1.1-0.8s-1.2,0.2-1.2,1h0.5
			c0-0.4,0.3-0.5,0.7-0.5s0.6,0.1,0.6,0.5s-0.4,0.3-1,0.4s-1,0.2-1,0.9s0.4,0.8,0.9,0.8c0.4,0,0.8-0.2,1-0.5c0,0.3,0.2,0.5,0.4,0.5
			c0.1,0,0.2,0,0.3-0.1L62.5,21.7 M61.6,21.1c0,0.3-0.3,0.6-0.9,0.6c-0.3,0-0.5-0.1-0.5-0.4s0.3-0.5,0.6-0.5c0.3,0,0.6-0.1,0.9-0.2
			V21.1z"/>
		<polyline class="st2" points="64.2,22.1 66.6,22.1 66.6,21.6 64.8,21.6 66.6,19.5 66.6,19.2 64.3,19.2 64.3,19.6 65.9,19.6 
			64.2,21.7 64.2,22.1 		"/>
		<path class="st1" d="M69.6,21.7h-0.1c-0.2,0-0.2-0.1-0.2-0.3v-1.5c0-0.7-0.6-0.8-1.1-0.8s-1.2,0.2-1.2,1h0.5
			c0-0.4,0.3-0.5,0.7-0.5s0.6,0.1,0.6,0.5s-0.4,0.3-1,0.4s-1,0.2-1,0.9s0.4,0.8,1,0.8c0.4,0,0.8-0.2,1-0.5c0,0.3,0.2,0.5,0.4,0.5
			c0.1,0,0.2,0,0.3-0.1L69.6,21.7 M68.8,21.1c0,0.3-0.2,0.6-0.9,0.6c-0.3,0-0.6-0.1-0.6-0.4s0.3-0.5,0.6-0.5c0.3,0,0.6-0.1,0.8-0.2
			V21.1z"/>
		<path class="st1" d="M70.1,22.1h0.5v-0.4l0,0c0.2,0.3,0.6,0.5,0.9,0.5c0.7,0,1.3-0.6,1.3-1.3c0-0.1,0-0.1,0-0.2
			c0.1-0.7-0.4-1.4-1.2-1.5c0,0-0.1,0-0.1,0c-0.4,0-0.7,0.1-0.9,0.5l0,0v-1.5h-0.5L70.1,22.1 M72.3,20.6c0,0.6-0.2,1.1-0.9,1.1
			s-0.9-0.5-0.9-1.1s0.2-1.1,0.9-1.1S72.3,20.1,72.3,20.6L72.3,20.6z"/>
		<path class="st1" d="M75.9,21.7h-0.1c-0.2,0-0.2-0.1-0.2-0.3v-1.5c0-0.7-0.6-0.8-1.1-0.8s-1.2,0.2-1.2,1h0.5
			c0-0.4,0.3-0.5,0.7-0.5s0.6,0.1,0.6,0.5s-0.4,0.3-1,0.4s-1,0.2-1,0.9s0.4,0.8,1,0.8c0.4,0,0.8-0.2,1-0.5c0,0.3,0.2,0.5,0.4,0.5
			c0.1,0,0.2,0,0.3-0.1L75.9,21.7 M75.1,21.1c0,0.3-0.3,0.6-0.9,0.6c-0.3,0-0.6-0.1-0.6-0.4s0.3-0.5,0.6-0.5c0.3,0,0.6-0.1,0.9-0.2
			V21.1z"/>
		<rect x="76.4" y="18.1" class="st2" width="0.5" height="4"/>
		<polyline class="st2" points="78.9,22.1 81.3,22.1 81.3,21.6 79.5,21.6 81.2,19.5 81.2,19.2 79,19.2 79,19.6 80.6,19.6 78.9,21.7 
			78.9,22.1 		"/>
		<path class="st1" d="M84.3,21.7h-0.1c-0.2,0-0.2-0.1-0.2-0.3v-1.5c0-0.7-0.6-0.8-1.1-0.8s-1.2,0.2-1.2,1h0.5
			c0-0.4,0.3-0.5,0.7-0.5s0.6,0.1,0.6,0.5s-0.4,0.3-1,0.4s-1,0.2-1,0.9s0.4,0.8,0.9,0.8c0.4,0,0.8-0.2,1-0.5c0,0.3,0.2,0.5,0.4,0.5
			c0.1,0,0.2,0,0.3-0.1L84.3,21.7 M83.5,21.1c0,0.3-0.3,0.6-0.9,0.6c-0.3,0-0.6-0.1-0.6-0.4s0.3-0.5,0.6-0.5c0.3,0,0.6-0.1,0.9-0.2
			V21.1z"/>
		<polyline class="st2" points="84.5,22.1 86.9,22.1 86.9,21.6 85.1,21.6 86.9,19.5 86.9,19.2 84.6,19.2 84.6,19.6 86.2,19.6 
			84.5,21.7 84.5,22.1 		"/>
		<path class="st2" d="M89.8,19.2h-0.5v1.6c0.1,0.4-0.3,0.8-0.7,0.9c0,0-0.1,0-0.1,0c-0.3,0-0.6-0.2-0.6-0.5c0,0,0-0.1,0-0.1v-1.9
			h-0.5v1.9c0,0.6,0.2,1,1,1c0.4,0,0.7-0.2,0.9-0.5l0,0v0.5h0.4V19.2"/>
		<path class="st2" d="M28.4,76.4v8.5c0,1.3-0.4,2.6-1.3,3.5c-1.1,1-2.5,1.5-3.9,1.4c-1.4,0.1-2.8-0.4-3.8-1.3
			c-0.9-0.9-1.3-2.1-1.3-3.3v-8.7h1.8v8.2c-0.1,1,0.2,2,1,2.8c0.7,0.6,1.5,0.9,2.4,0.8c0.9,0,1.7-0.3,2.4-0.8c0.7-0.7,1.1-1.7,1-2.8
			v-8.3H28.4"/>
		<path class="st1" d="M33,89.5h-1.8V76.4h5.9c1-0.1,2.1,0.3,2.8,1c0.7,0.7,1,1.7,1,2.7c0,1-0.3,2-1,2.7c-0.7,0.8-1.8,1.2-2.9,1.2
			h-4V89.5 M33,82.4h3.5c0.7,0,1.4-0.1,2-0.5c0.5-0.5,0.8-1.1,0.7-1.8c0.1-0.6-0.2-1.3-0.7-1.7c-0.6-0.4-1.2-0.5-1.9-0.5H33V82.4z"
			/>
		<polyline class="st2" points="51.4,76.4 53.4,76.4 48.6,89.5 46.7,89.5 42,76.4 43.9,76.4 47.7,87.5 51.4,76.4 		"/>
		<polyline class="st2" points="85.5,89.5 75.8,89.5 75.8,76.4 85.3,76.4 85.3,77.9 77.6,77.9 77.6,82 84.8,82 84.8,83.5 77.6,83.5 
			77.6,87.9 85.5,87.9 85.5,89.5 		"/>
		<polyline class="st2" points="96.2,76.4 98,76.4 98,89.5 96.2,89.5 96.2,83.3 89.4,83.3 89.4,89.5 87.6,89.5 87.6,76.4 89.4,76.4 
			89.4,81.8 96.2,81.8 96.2,76.4 		"/>
		<path class="st2" d="M110.9,76.4v8.5c0,1.3-0.4,2.6-1.3,3.5c-1.1,1-2.5,1.5-3.9,1.4c-1.4,0.1-2.8-0.4-3.8-1.3
			c-0.9-0.9-1.3-2.1-1.3-3.3v-8.7h1.8v8.2c-0.1,1,0.3,2.1,1,2.8c0.7,0.6,1.5,0.9,2.4,0.8c0.9,0,1.7-0.3,2.4-0.8
			c0.7-0.7,1.1-1.7,1-2.8v-8.3H110.9"/>
	</g>
</g>
</svg>
